<svg width="246" height="54" xmlns="http://www.w3.org/2000/svg"><defs><linearGradient x1="5.577%" y1="31.808%" x2="98.34%" y2="68.289%" id="a"><stop stop-color="#1DBFFF" offset="0%"/><stop stop-color="#1EA0F3" offset="100%"/></linearGradient><linearGradient x1="17.67%" y1="17.275%" x2="100.098%" y2="72.441%" id="b"><stop stop-color="#32B4F8" offset="0%"/><stop stop-color="#1073D8" offset="100%"/></linearGradient><linearGradient x1="10.118%" y1="31.338%" x2="97.038%" y2="67.04%" id="c"><stop stop-color="#2BCDFD" offset="0%"/><stop stop-color="#87E6FF" offset="100%"/></linearGradient></defs><g fill="none"><path fill="#FFF" d="M88.87 18.13v1.84l-12.53 15.2h13v2.69H72v-1.84l12.6-15.24h-12v-2.65zm19.5 0a6.33 6.33 0 014.49 1.67 5.13 5.13 0 011.84 4.07v3.83l-1.25.53c-.33.12-.68.24-1 .35a3.43 3.43 0 01-.87.15h-10.76a2.54 2.54 0 01-1.41-.46 18.05 18.05 0 01-1.75-1.34v4.57a3.4 3.4 0 001.17 2.59 4 4 0 002.82 1.07h6.17a3.9 3.9 0 002.79-1.07 3.37 3.37 0 001.18-2.59v-.22h2.91v.79a5.19 5.19 0 01-1.88 4.09 6.45 6.45 0 01-4.45 1.69h-7.59a6.54 6.54 0 01-4.45-1.69 5.4 5.4 0 01-1.86-4.09v-8.2a5.37 5.37 0 011.86-4.09 6.24 6.24 0 014.45-1.65h7.59zm-9.57 3.55a3.38 3.38 0 00-1.14 2.6v1.95h13.88v-1.95a3.29 3.29 0 00-1.18-2.6 4.07 4.07 0 00-2.84-1.09h-5.87a4.14 4.14 0 00-2.85 1.09zm25.2-3.55l.51 1.78c.48-.37.89-.66 1.23-.88a10.74 10.74 0 011-.62 2 2 0 01.89-.28H134a6.33 6.33 0 014.49 1.67 5.13 5.13 0 011.84 4.07v14h-3.16V24.5a3.34 3.34 0 00-1.18-2.62 4 4 0 00-2.84-1.06h-8.69v17.04h-3.18V18.13H124zM147.86 9h3.19v28.86h-3.19zm21.72 9.13a6.33 6.33 0 014.5 1.67 5.19 5.19 0 011.84 4.09v14h-2.67l-.5-1.8c-.5.39-.92.7-1.25.92-.323.22-.657.423-1 .61-.27.152-.57.244-.88.27h-6.46a6.681 6.681 0 01-4.49-1.69 5.23 5.23 0 01-1.86-4.05v-.48a5.37 5.37 0 011.86-4.09 6.29 6.29 0 014.45-1.66h9.67v-1.61a3.36 3.36 0 00-1.18-2.63 4.05 4.05 0 00-2.84-1.09h-9.84v-2.46h10.65zm-8.49 11.37a2.88 2.88 0 00-1.09 2.36 3.19 3.19 0 001.14 2.36 4.31 4.31 0 002.86 1h8.8v-6.86H164a4.16 4.16 0 00-2.91 1.14zm23.31-11.37l7.29 17 7.64-17h3.72L189.83 45.5h-3.66l2.83-4.82a18.68 18.68 0 011.36-1.82l-9.66-20.73h3.7zm37.01 0a6.33 6.33 0 014.49 1.67 5.13 5.13 0 011.84 4.07v3.83l-1.25.53c-.33.12-.68.24-1 .35a3.43 3.43 0 01-.87.15h-10.76a2.56 2.56 0 01-1.41-.46 19.28 19.28 0 01-1.76-1.34v4.57a3.41 3.41 0 001.18 2.59 4 4 0 002.82 1.07h6.17a3.9 3.9 0 002.79-1.07 3.37 3.37 0 001.18-2.59v-.22h2.91v.79a5.19 5.19 0 01-1.88 4.09 6.45 6.45 0 01-4.45 1.69h-7.59a6.56 6.56 0 01-4.45-1.69 5.4 5.4 0 01-1.86-4.09v-8.2a5.37 5.37 0 011.86-4.09 6.25 6.25 0 014.45-1.65h7.59zm-9.57 3.55a3.39 3.39 0 00-1.15 2.6v1.95h13.89v-1.95a3.29 3.29 0 00-1.18-2.6 4.07 4.07 0 00-2.84-1.09h-5.87a4.14 4.14 0 00-2.85 1.09zM237 18.13l.52 1.78c.47-.37.88-.66 1.22-.88.34-.22.69-.43 1.05-.62a2 2 0 01.89-.28h5.19v2.65h-8.35v17.08h-3.17V18.13H237z"/><path d="M32.19 6.77a16.75 16.75 0 00-5.4-1.23h-1.05a17.07 17.07 0 00-16 23.07v-.84a15.68 15.68 0 1131.35 0 16.68 16.68 0 01-.22 2.67c-.09.48-.19.95-.32 1.42a15.63 15.63 0 01-2.25 4.84A20.77 20.77 0 010 26.13v.59a26.75 26.75 0 0036.4 24.92 24.68 24.68 0 00-4.21-44.87z" fill="url(#a)"/><path d="M26.72 0a26.73 26.73 0 00-25 17.38 21.29 21.29 0 00-1.31 4.06l.24-.61A25.08 25.08 0 0123.88 5.37c.69 0 1.38 0 2.05.08l.86.09a16.75 16.75 0 015.4 1.23 24.68 24.68 0 014.21 44.87c11.982-4.663 18.947-17.197 16.578-29.835C50.608 9.167 39.578.007 26.72 0z" fill="url(#b)"/><path d="M25.44 43.42c-8.334.001-15.214-6.518-15.66-14.84a17.07 17.07 0 0116-23.07h1.05l-.86-.09c-.67 0-1.36-.08-2.05-.08A25.08 25.08 0 00.65 20.83l-.24.61A20.81 20.81 0 000 25.57v.56a20.77 20.77 0 0038.32 10.54 15.67 15.67 0 01-12.88 6.75z" fill="url(#c)"/></g></svg>