<?xml version="1.0" encoding="UTF-8"?>
<svg width="206px" height="142px" viewBox="0 0 206 142" version="1.1" xmlns="http://www.w3.org/2000/svg" xmlns:xlink="http://www.w3.org/1999/xlink">
    <title>形状结合</title>
    <defs>
        <linearGradient x1="50%" y1="0%" x2="50%" y2="100%" id="linearGradient-1">
            <stop stop-color="#F3F5F9" offset="0%"></stop>
            <stop stop-color="#FFFFFF" offset="100%"></stop>
        </linearGradient>
    </defs>
    <g id="首页✅" stroke="none" stroke-width="1" fill="none" fill-rule="evenodd">
        <g id="7个产品首页备份" transform="translate(-617.000000, -867.000000)" fill="url(#linearGradient-1)" fill-rule="nonzero">
            <g id="编组-7" transform="translate(108.000000, 840.000000)">
                <g id="编组-18" transform="translate(416.000000, 27.000000)">
                    <path d="M101,-2.98427949e-13 C102.888264,-2.98427949e-13 104.715665,0.667921518 106.158868,1.88558458 L180.753047,64.8223548 C184.129946,67.6715192 184.557759,72.7187404 181.708594,76.0956387 C181.417598,76.4405341 181.097943,76.7601898 180.753047,77.0511857 L106.158868,139.987956 C102.78197,142.83712 97.734749,142.409307 94.8855846,139.032409 C93.6679215,137.589205 93,135.761804 93,133.873541 L93,8 C93,3.581722 96.581722,-2.98427949e-13 101,-2.98427949e-13 Z M291,-3.12638804e-13 C295.418278,-3.12638804e-13 299,3.581722 299,8 L299,8 L299,133.873541 C299,135.761804 298.332078,137.589205 297.114415,139.032409 C294.265251,142.409307 289.21803,142.83712 285.841132,139.987956 L285.841132,139.987956 L211.246953,77.0511857 C210.902057,76.7601898 210.582402,76.4405341 210.291406,76.0956387 C207.442241,72.7187404 207.870054,67.6715192 211.246953,64.8223548 L211.246953,64.8223548 L285.841132,1.88558458 C287.284335,0.667921518 289.111736,-3.12638804e-13 291,-3.12638804e-13 Z" id="形状结合"></path>
                </g>
            </g>
        </g>
    </g>
</svg>