<?xml version="1.0" encoding="UTF-8"?>
<svg width="64px" height="64px" viewBox="0 0 64 64" version="1.1" xmlns="http://www.w3.org/2000/svg" xmlns:xlink="http://www.w3.org/1999/xlink">
    <title>编组 16备份</title>
    <defs>
        <filter id="filter-1">
            <feColorMatrix in="SourceGraphic" type="matrix" values="0 0 0 0 0.878431 0 0 0 0 0.976471 0 0 0 0 0.925490 0 0 0 1.000000 0"></feColorMatrix>
        </filter>
    </defs>
    <g id="首页*" stroke="none" stroke-width="1" fill="none" fill-rule="evenodd">
        <g id="首页备份-2" transform="translate(-944.000000, -3438.000000)">
            <g id="编组-74" transform="translate(944.000000, 3438.000000)">
                <g filter="url(#filter-1)" id="编组-16备份">
                    <g transform="translate(32.000000, 32.000000) rotate(180.000000) translate(-32.000000, -32.000000) ">
                        <rect id="矩形备份-8" x="0" y="0" width="64" height="64"></rect>
                        <g id="shangshengshangjiantouxiangshangzhangmianxing" transform="translate(32.000000, 31.733333) rotate(180.000000) translate(-32.000000, -31.733333) translate(8.000000, 3.733333)" fill="#000000" fill-rule="nonzero">
                            <path d="M35.8694444,54.2644033 C35.8694444,55.2191358 35.0957819,55.9927984 34.1410494,55.9927984 L13.7756173,55.9927984 C12.8208848,55.9927984 12.0472222,55.2191358 12.0472222,54.2644033 L12.0472222,28.0109053 L1.77890949,28.0109053 C1.09534383,28.0108254 0.476044098,27.6078882 0.199016593,26.982974 C-0.0780109115,26.3580598 0.0392855284,25.628586 0.498251042,25.1220164 L22.6776749,0.623251042 C23.0053098,0.261760244 23.4704601,0.055572762 23.9583333,0.055572762 C24.4462065,0.055572762 24.9113569,0.261760244 25.2389918,0.623251042 L47.4184156,25.1220164 C47.8773811,25.628586 47.9946776,26.3580598 47.7176501,26.982974 C47.4406226,27.6078882 46.8213228,28.0108254 46.1377572,28.0109053 L35.8694444,28.0109053 L35.8694444,54.2644033 Z" id="路径"></path>
                        </g>
                    </g>
                </g>
            </g>
        </g>
    </g>
</svg>