<?xml version="1.0" encoding="UTF-8"?>
<svg width="28px" height="28px" viewBox="0 0 28 28" version="1.1" xmlns="http://www.w3.org/2000/svg" xmlns:xlink="http://www.w3.org/1999/xlink">
    <title>Icon/Web/facebook-fill</title>
    <g id="产品页" stroke="none" stroke-width="1" fill="none" fill-rule="evenodd">
        <g id="BMC" transform="translate(-1410.000000, -9183.000000)">
            <g id="footer" transform="translate(0.000000, 8534.000000)">
                <g id="-">
                    <g transform="translate(1366.000000, 649.000000)">
                        <g id="Icon/Web/facebook-fill" transform="translate(44.000000, 0.000000)">
                            <g id="icon" fill="#000000" opacity="0">
                                <rect id="Rectangle" x="0" y="0" width="28" height="28"></rect>
                            </g>
                            <g id="linkedin-fill">
                                <g id="编组">
                                    <rect id="矩形" stroke-opacity="0.01" stroke="#FFFFFF" stroke-width="0.1" opacity="0" fill-rule="nonzero" x="0" y="0" width="28" height="28"></rect>
                                    <path d="M24.12,3 L3.88,3 C3.39325,3 3,3.39325 3,3.88 L3,24.12 C3,24.60675 3.39325,25 3.88,25 L24.12,25 C24.60675,25 25,24.60675 25,24.12 L25,3.88 C25,3.39325 24.60675,3 24.12,3 Z M9.55117188,21.7027344 L6.30546875,21.7027344 L6.30546875,11.2628906 L9.55117188,11.2628906 L9.55117188,21.7027344 Z M7.9296875,9.83554687 C6.890625,9.83554687 6.0484375,8.99335937 6.0484375,7.95429687 C6.0484375,6.91523437 6.890625,6.07304687 7.9296875,6.07304687 C8.96601563,6.07304687 9.8109375,6.91523437 9.8109375,7.95429687 C9.80820313,8.99335937 8.96601563,9.83554687 7.9296875,9.83554687 Z M21.7027344,21.7027344 L18.4597656,21.7027344 L18.4597656,16.625 C18.4597656,15.4136719 18.4378906,13.8578125 16.7726563,13.8578125 C15.0855469,13.8578125 14.8257813,15.1757813 14.8257813,16.5375 L14.8257813,21.7027344 L11.5855469,21.7027344 L11.5855469,11.2628906 L14.6972656,11.2628906 L14.6972656,12.6902344 L14.7410156,12.6902344 C15.1730469,11.8699219 16.23125,11.003125 17.8117188,11.003125 C21.0984375,11.003125 21.7027344,13.1660156 21.7027344,15.9769531 L21.7027344,21.7027344 L21.7027344,21.7027344 Z" id="形状" fill="#E1F3FE"></path>
                                </g>
                            </g>
                        </g>
                    </g>
                </g>
            </g>
        </g>
    </g>
</svg>