<?xml version="1.0" encoding="UTF-8"?>
<svg width="258px" height="140px" viewBox="0 0 258 140" version="1.1" xmlns="http://www.w3.org/2000/svg" xmlns:xlink="http://www.w3.org/1999/xlink">
    <title>1</title>
    <defs>
        <polygon id="path-1" points="0.0345810761 0.294493878 7.49357922 0.294493878 7.49357922 9.3877551 0.0345810761 9.3877551"></polygon>
        <polygon id="path-3" points="0.0262174397 0.294493878 7.48521558 0.294493878 7.48521558 9.3877551 0.0262174397 9.3877551"></polygon>
        <polygon id="path-5" points="0.103953741 0.15616045 7.39949116 0.15616045 7.39949116 9.3877551 0.103953741 9.3877551"></polygon>
        <polygon id="path-7" points="0.0515814471 0.294493878 7.50989685 0.294493878 7.50989685 9.3877551 0.0515814471 9.3877551"></polygon>
    </defs>
    <g id="首页*" stroke="none" stroke-width="1" fill="none" fill-rule="evenodd">
        <g id="国内版logo展示" transform="translate(-108.000000, -95.000000)">
            <g id="1" transform="translate(108.000000, 95.000000)">
                <rect id="矩形" fill="#FFFFFF" x="0" y="0" width="258" height="140" rx="8"></rect>
                <g id="编组" transform="translate(83.000000, 13.000000)">
                    <path d="M41.2945075,104.204082 C40.9990387,104.204082 40.7708146,104.255757 40.6098351,104.359442 C40.4468178,104.461786 40.3673469,104.653722 40.3673469,104.93156 L40.3673469,112.864359 C40.3673469,113.142867 40.4468178,113.334132 40.6098351,113.437147 C40.7708146,113.540497 40.9990387,113.591837 41.2945075,113.591837 C41.588346,113.591837 41.8206456,113.540497 41.9909986,113.437147 C42.1589064,113.334132 42.244898,113.142867 42.244898,112.864359 L42.244898,104.93156 C42.244898,104.653722 42.1589064,104.461786 41.9909986,104.359442 C41.8206456,104.255757 41.588346,104.204082 41.2945075,104.204082" id="Fill-1" fill="#EC1D24"></path>
                    <g transform="translate(31.918367, 104.204082)">
                        <mask id="mask-2" fill="white">
                            <use xlink:href="#path-1"></use>
                        </mask>
                        <g id="Clip-4"></g>
                        <path d="M4.63321558,4.19635782 L3.4824475,4.02706531 C3.09840297,3.98137823 2.79150872,3.91409932 2.56313024,3.8230381 C2.33372764,3.73260272 2.16099295,3.62808571 2.04356067,3.50886122 C1.92544564,3.39026259 1.84829536,3.26321497 1.81142709,3.12803129 C1.77421744,2.99159592 1.75544193,2.85046667 1.75544193,2.70370476 C1.75544193,2.35291565 1.91281484,2.06471156 2.22824341,1.83846667 C2.54435473,1.61159592 3.03695584,1.49862993 3.70502263,1.49862993 C4.23790575,1.49862993 4.66803562,1.56716054 4.99541224,1.70203129 C5.32381299,1.83846667 5.60544564,1.96801769 5.84065158,2.0925619 C6.00143822,2.18362313 6.14140111,2.25465714 6.25815065,2.30472517 C6.37558293,2.35541905 6.50359777,2.38107891 6.63878145,2.38107891 C6.86135659,2.38107891 7.03204304,2.31035782 7.15015807,2.16891565 C7.26690761,2.02778639 7.32698924,1.86725578 7.32698924,1.68575918 C7.32698924,1.50394966 7.20887421,1.32370476 6.97469239,1.14220816 C6.88866642,1.0743034 6.76406531,0.992629932 6.60464416,0.896561905 C6.44488163,0.799868027 6.24074063,0.707242177 5.99392801,0.616806803 C5.74609128,0.525745578 5.44056252,0.450330612 5.07802449,0.387432653 C4.71377959,0.325160544 4.28399109,0.294493878 3.79173135,0.294493878 C2.6809039,0.294493878 1.80152727,0.514480272 1.15428423,0.956017687 C0.506699814,1.39724218 0.18273692,2.01996327 0.18273692,2.8223034 C0.18273692,3.55767755 0.438766605,4.12845306 0.950143228,4.53619456 C1.46151985,4.9433102 2.11900408,5.20366395 2.9215718,5.31600408 L4.05049202,5.48592245 C4.46935659,5.54224898 4.8018538,5.61860272 5.05003191,5.7152966 C5.29650315,5.8110517 5.48528237,5.92182721 5.61466271,6.04574558 C5.74404304,6.16997687 5.82733803,6.30077959 5.86454768,6.43565034 C5.9020987,6.57145986 5.92019147,6.71321497 5.92019147,6.86060272 C5.92019147,7.26709252 5.74404304,7.58909252 5.39277032,7.82691565 C5.04047347,8.06442585 4.53797254,8.18365034 3.88390204,8.18365034 C3.29162004,8.18365034 2.79833618,8.09822177 2.40370909,7.92892925 C2.00771651,7.75963673 1.70628423,7.60661633 1.49668126,7.47049388 C1.3601321,7.38068435 1.23962746,7.31215374 1.13550872,7.26709252 C1.03070724,7.22234422 0.915323191,7.19918776 0.793453061,7.19918776 C0.582143228,7.19918776 0.404629314,7.28148707 0.256814842,7.44608571 C0.108658998,7.60974558 0.0345810761,7.78717415 0.0345810761,7.97962313 C0.0345810761,8.07068435 0.0618909091,8.16362313 0.117876067,8.25937823 C0.173519852,8.35607211 0.268080148,8.45433061 0.404629314,8.55665714 C0.515234137,8.63614014 0.665438219,8.72344626 0.857972542,8.81982721 C1.04948275,8.91589524 1.2894679,9.00570476 1.58031763,9.09144626 C1.86877774,9.17624898 2.20229907,9.24728299 2.5788334,9.3032966 C2.95570909,9.35962313 3.37696327,9.38778639 3.84703377,9.38778639 C5.01930835,9.38778639 5.92019147,9.15309252 6.54934174,8.68370476 C7.17815065,8.21431701 7.49357922,7.56687483 7.49357922,6.74137823 C7.49357922,5.9950517 7.25495955,5.41520136 6.77737885,5.00307891 C6.30150501,4.58939184 5.58667013,4.32090204 4.63321558,4.19635782" id="Fill-3" fill="#EC1D24" mask="url(#mask-2)"></path>
                    </g>
                    <g transform="translate(62.897959, 104.204082)">
                        <mask id="mask-4" fill="white">
                            <use xlink:href="#path-3"></use>
                        </mask>
                        <g id="Clip-6"></g>
                        <path d="M4.62621744,4.19635782 L3.47408386,4.02706531 C3.09072208,3.98137823 2.7841692,3.91409932 2.5547666,3.8230381 C2.3267295,3.73260272 2.15262931,3.62808571 2.03587978,3.50886122 C1.917082,3.39026259 1.84061447,3.26321497 1.80306345,3.12803129 C1.7658538,2.99159592 1.74776104,2.85046667 1.74776104,2.70370476 C1.74776104,2.35291565 1.90513395,2.06471156 2.22056252,1.83846667 C2.53599109,1.61159592 3.02859221,1.49862993 3.696659,1.49862993 C4.22954212,1.49862993 4.65967199,1.56716054 4.98773135,1.70203129 C5.31579072,1.83846667 5.59776475,1.96801769 5.83297069,2.0925619 C5.99375733,2.18362313 6.13303748,2.25465714 6.25046976,2.30472517 C6.36858479,2.35541905 6.49523414,2.38107891 6.6317833,2.38107891 C6.8536757,2.38107891 7.02436215,2.31035782 7.14179443,2.16891565 C7.25922672,2.02778639 7.3186256,1.86725578 7.3186256,1.68575918 C7.3186256,1.50394966 7.20119332,1.32370476 6.9670115,1.14220816 C6.88064416,1.0743034 6.75706716,0.992629932 6.59696327,0.896561905 C6.436518,0.799868027 6.23305974,0.707242177 5.98556438,0.616806803 C5.73977588,0.525745578 5.43356438,0.450330612 5.06966085,0.387432653 C4.7060987,0.325160544 4.27699295,0.294493878 3.78336772,0.294493878 C2.67322301,0.294493878 1.79452913,0.514480272 1.14592059,0.956017687 C0.498336178,1.39724218 0.174373284,2.01996327 0.174373284,2.8223034 C0.174373284,3.55767755 0.430402968,4.12845306 0.942462338,4.53619456 C1.45520445,4.9433102 2.11132319,5.20366395 2.91389091,5.31600408 L4.04281113,5.48592245 C4.46235844,5.54224898 4.7955384,5.61860272 5.04235102,5.7152966 C5.28882226,5.8110517 5.47760148,5.92182721 5.60698182,6.04574558 C5.73636215,6.16997687 5.8189744,6.30077959 5.85652542,6.43565034 C5.89373506,6.57145986 5.91251058,6.71321497 5.91251058,6.86060272 C5.91251058,7.26709252 5.73636215,7.58909252 5.38440668,7.82691565 C5.03279258,8.06442585 4.53029165,8.18365034 3.87622115,8.18365034 C3.28393915,8.18365034 2.79065529,8.09822177 2.3960282,7.92892925 C2.00071837,7.75963673 1.69860334,7.60661633 1.488659,7.47049388 C1.35313395,7.38068435 1.23262931,7.31215374 1.12782783,7.26709252 C1.02302635,7.22234422 0.908325046,7.19918776 0.785089425,7.19918776 C0.575827829,7.19918776 0.396265677,7.28148707 0.248451206,7.44608571 C0.100978108,7.60974558 0.0262174397,7.78717415 0.0262174397,7.97962313 C0.0262174397,8.07068435 0.0542100186,8.16362313 0.109853803,8.25937823 C0.165838961,8.35607211 0.261082004,8.45433061 0.396265677,8.55665714 C0.50789462,8.63614014 0.65912282,8.72344626 0.850291651,8.81982721 C1.04111911,8.91589524 1.28178701,9.00570476 1.57195399,9.09144626 C1.86177959,9.17624898 2.19461818,9.24728299 2.5711525,9.3032966 C2.94734545,9.35962313 3.36996512,9.38778639 3.83935288,9.38778639 C5.01162746,9.38778639 5.91251058,9.15309252 6.54097811,8.68370476 C7.1711525,8.21431701 7.48521558,7.56687483 7.48521558,6.74137823 C7.48521558,5.9950517 7.24659592,5.41520136 6.77038071,5.00307891 C6.29382412,4.58939184 5.57898924,4.32090204 4.62621744,4.19635782" id="Fill-5" fill="#EC1D24" mask="url(#mask-4)"></path>
                    </g>
                    <g transform="translate(22.530612, 104.204082)">
                        <mask id="mask-6" fill="white">
                            <use xlink:href="#path-5"></use>
                        </mask>
                        <g id="Clip-8"></g>
                        <path d="M6.68633469,0.15616045 C6.46071565,0.15616045 6.2823483,0.206012667 6.15217143,0.306040816 C6.02262041,0.404774103 5.95721905,0.589939479 5.95721905,0.857976073 L5.95721905,4.57941168 C5.95721905,4.97725827 5.90965442,5.38125545 5.81296054,5.79010837 C5.71689252,6.19993244 5.57044354,6.56864462 5.37173605,6.89592118 C5.17365442,7.22352146 4.91642993,7.48896833 4.59974966,7.69388037 C4.28306939,7.8987924 3.90474286,8.00108656 3.46289252,8.00108656 C2.72845714,8.00108656 2.22464762,7.8204532 1.9533415,7.45821534 C1.68203537,7.09533005 1.54622585,6.56864462 1.54622585,5.87815904 L1.54622585,0.770572836 C1.54622585,0.361072484 1.29745034,0.15616045 0.79989932,0.15616045 C0.336144218,0.15616045 0.103953741,0.361072484 0.103953741,0.770572836 L0.103953741,6.2465475 C0.103953741,6.7848867 0.177804082,7.25006615 0.324565986,7.64143842 C0.471953741,8.03410556 0.675355102,8.35846868 0.935708844,8.61582266 C1.19543673,8.87382407 1.51211701,9.06578747 1.88543673,9.19495004 C2.25906939,9.32378888 2.66587211,9.38788459 3.1070966,9.38788459 C3.65002177,9.38788459 4.10783129,9.30048135 4.48115102,9.12535116 C4.85447075,8.94892611 5.15425306,8.75663899 5.38018503,8.54492892 C5.65211701,8.29955243 5.86678367,8.01889092 6.02512381,7.70326812 L6.02512381,8.54492892 C6.02512381,8.80357776 6.08489252,8.97870795 6.20349116,9.07161436 C6.3220898,9.16581562 6.49451156,9.2127544 6.72044354,9.2127544 C6.94731429,9.2127544 7.1166068,9.16581562 7.22957279,9.07161436 C7.3428517,8.97870795 7.39949116,8.80357776 7.39949116,8.54492892 L7.39949116,0.857976073 C7.39949116,0.589939479 7.33721905,0.404774103 7.21267483,0.306040816 C7.08844354,0.206012667 6.91320544,0.15616045 6.68633469,0.15616045" id="Fill-7" fill="#EC1D24" mask="url(#mask-6)"></path>
                    </g>
                    <path d="M18.8463947,110.370735 C18.7261944,110.772274 18.5537187,111.118244 18.3312983,111.407076 C18.107546,111.695908 17.8298534,111.918496 17.4982206,112.077354 C17.1659218,112.23527 16.7880068,112.314384 16.3661405,112.314384 C15.9302897,112.314384 15.5440507,112.232444 15.2057585,112.069191 C14.8684653,111.904997 14.5841134,111.675501 14.3547007,111.38196 C14.1249551,111.086222 13.9534782,110.738682 13.8396043,110.336515 C13.7237326,109.935918 13.6664627,109.497019 13.6664627,109.021703 C13.6664627,108.014245 13.908528,107.224667 14.3909939,106.653597 C14.8741257,106.081584 15.550044,105.795892 16.4194149,105.795892 C16.8552657,105.795892 17.2348455,105.875635 17.5614839,106.033236 C17.8864574,106.19178 18.1584896,106.415625 18.3762485,106.703828 C18.5926756,106.99266 18.7564942,107.335491 18.8647078,107.731692 C18.9739202,108.12758 19.0285264,108.568049 19.0285264,109.056237 C19.0285264,109.53124 18.9679268,109.970452 18.8463947,110.370735 M19.6118806,105.745033 C19.267928,105.346947 18.8483925,105.038651 18.3546058,104.817318 C17.8598202,104.595357 17.2981088,104.485475 16.6711362,104.485475 C16.2855631,104.485475 15.9356172,104.530684 15.6212985,104.621728 C15.3073128,104.711831 15.0262905,104.825166 14.7798967,104.961734 C14.5321709,105.097987 14.3174087,105.253705 14.1372748,105.430457 C13.955476,105.60564 13.8172957,105.778625 13.7210689,105.949099 L13.7210689,102.067765 C13.7210689,101.807817 13.6528111,101.628553 13.5149637,101.532485 C13.3791141,101.435475 13.1919879,101.387755 12.9539182,101.387755 C12.7158484,101.387755 12.531053,101.435475 12.4005308,101.532485 C12.2696757,101.628553 12.2040816,101.807817 12.2040816,102.067765 L12.2040816,112.790957 C12.2040816,113.041801 12.2636823,113.211646 12.3828837,113.301749 C12.5017521,113.393108 12.6798882,113.438316 12.917292,113.438316 C13.1553618,113.438316 13.3368276,113.393108 13.4610234,113.301749 C13.5858852,113.211646 13.6484826,113.041801 13.6484826,112.790957 L13.6484826,112.009227 C13.9025346,112.451265 14.2844452,112.825177 14.7975438,113.131904 C15.3106424,113.438316 15.9356172,113.591837 16.6711362,113.591837 C17.2981088,113.591837 17.8598202,113.478188 18.3546058,113.25089 C18.8483925,113.023906 19.267928,112.706191 19.6118806,112.298059 C19.9558331,111.890241 20.2158786,111.403937 20.3903521,110.842912 C20.5658245,110.28126 20.6530612,109.665609 20.6530612,108.995959 C20.6530612,108.326309 20.5658245,107.716937 20.3903521,107.166273 C20.2158786,106.616237 19.9558331,106.142176 19.6118806,105.745033" id="Fill-9" fill="#EC1D24"></path>
                    <path d="M41.3058019,101.387755 C41.0384961,101.387755 40.8157413,101.47025 40.6372169,101.635555 C40.4564489,101.800546 40.3673469,102.031028 40.3673469,102.326058 C40.3673469,102.622663 40.4564489,102.853145 40.6372169,103.018136 C40.8157413,103.182811 41.0384961,103.265306 41.3058019,103.265306 C41.5711847,103.265306 41.7945806,103.182811 41.975028,103.018136 C42.1535524,102.853145 42.244898,102.622663 42.244898,102.326058 C42.244898,102.031028 42.1535524,101.800546 41.975028,101.635555 C41.7945806,101.47025 41.5711847,101.387755 41.3058019,101.387755" id="Fill-11" fill="#EC1D24"></path>
                    <path d="M49.4798632,104.204082 C48.9094149,104.204082 48.434954,104.293291 48.0568025,104.471381 C47.6786511,104.649801 47.3723291,104.846325 47.1400912,105.060626 C46.8601818,105.309821 46.6392177,105.58963 46.4762325,105.899395 L46.4762325,105.060626 C46.4762325,104.798923 46.4143883,104.620832 46.2923104,104.525039 C46.1705547,104.429904 45.9924305,104.382172 45.7601927,104.382172 C45.5269886,104.382172 45.3520855,104.429904 45.2361276,104.525039 C45.1198476,104.620832 45.0612245,104.798923 45.0612245,105.060626 L45.0612245,112.878159 C45.0612245,113.151385 45.1253234,113.339021 45.2538434,113.440082 C45.381397,113.541471 45.562098,113.591837 45.7949801,113.591837 C46.02754,113.591837 46.211462,113.541471 46.3454578,113.440082 C46.4788093,113.339021 46.5454851,113.151385 46.5454851,112.878159 L46.5454851,109.077037 C46.5454851,108.671808 46.5950893,108.264274 46.6949419,107.853449 C46.7935061,107.443282 46.9445734,107.07163 47.148466,106.738492 C47.3523585,106.405026 47.617129,106.134105 47.9434215,105.92573 C48.269392,105.717683 48.6588171,105.61399 49.1129854,105.61399 C49.8580146,105.61399 50.373705,105.798005 50.6587681,106.167024 C50.9438312,106.536042 51.0865238,107.07163 51.0865238,107.773127 L51.0865238,112.967369 C51.0865238,113.383461 51.3425974,113.591837 51.8547446,113.591837 C52.3321044,113.591837 52.5714286,113.383461 52.5714286,112.967369 L52.5714286,107.398842 C52.5714286,106.316145 52.2857213,105.5126 51.7149509,104.989851 C51.1445027,104.465785 50.3994734,104.204082 49.4798632,104.204082" id="Fill-13" fill="#EC1D24"></path>
                    <g transform="translate(71.346939, 104.204082)">
                        <mask id="mask-8" fill="white">
                            <use xlink:href="#path-7"></use>
                        </mask>
                        <g id="Clip-16"></g>
                        <path d="M4.65021596,4.19635782 L3.49876512,4.02706531 C3.11540334,3.98137823 2.80850909,3.91409932 2.58013061,3.8230381 C2.35141076,3.73260272 2.17799332,3.62808571 2.05987829,3.50886122 C1.94176327,3.39026259 1.86461299,3.26321497 1.82774471,3.12803129 C1.79121781,2.99159592 1.7724423,2.85046667 1.7724423,2.70370476 C1.7724423,2.35291565 1.92981521,2.06471156 2.24524378,1.83846667 C2.5613551,1.61159592 3.05395622,1.49862993 3.72202301,1.49862993 C4.25490612,1.49862993 4.68435325,1.56716054 5.01241262,1.70203129 C5.34013061,1.83846667 5.62244601,1.96801769 5.85765195,2.0925619 C6.01775584,2.18362313 6.15771874,2.25465714 6.27515102,2.30472517 C6.39360742,2.35541905 6.5199154,2.38107891 6.65646456,2.38107891 C6.87835696,2.38107891 7.04904341,2.31035782 7.1664757,2.16891565 C7.28390798,2.02778639 7.34330686,1.86725578 7.34330686,1.68575918 C7.34330686,1.50394966 7.22587458,1.32370476 6.99169276,1.14220816 C6.90566679,1.0743034 6.78174842,0.992629932 6.62096178,0.896561905 C6.46119926,0.799868027 6.257741,0.707242177 6.01092839,0.616806803 C5.7637744,0.525745578 5.45892839,0.450330612 5.09502486,0.387432653 C4.73077996,0.325160544 4.30201558,0.294493878 3.80804898,0.294493878 C2.69790427,0.294493878 1.81852764,0.514480272 1.1712846,0.956017687 C0.52301744,1.39724218 0.199054545,2.01996327 0.199054545,2.8223034 C0.199054545,3.55767755 0.45508423,4.12845306 0.967143599,4.53619456 C1.47920297,4.9433102 2.1366872,5.20366395 2.93788942,5.31600408 L4.06749239,5.48592245 C4.48669833,5.54224898 4.82021967,5.61860272 5.06703228,5.7152966 C5.31350353,5.8110517 5.5016,5.92182721 5.63166308,6.04574558 C5.76104341,6.16997687 5.8443384,6.30077959 5.88154805,6.43565034 C5.91841633,6.57145986 5.93650909,6.71321497 5.93650909,6.86060272 C5.93650909,7.26709252 5.76104341,7.58909252 5.40977069,7.82691565 C5.05747384,8.06442585 4.55497291,8.18365034 3.90090241,8.18365034 C3.30862041,8.18365034 2.81533655,8.09822177 2.42002672,7.92892925 C2.02539963,7.75963673 1.7232846,7.60661633 1.51334026,7.47049388 C1.37713247,7.38068435 1.25731058,7.31215374 1.15250909,7.26709252 C1.04770761,7.22234422 0.933689054,7.19918776 0.809770686,7.19918776 C0.600509091,7.19918776 0.421629685,7.28148707 0.273132468,7.44608571 C0.124976623,7.60974558 0.0515814471,7.78717415 0.0515814471,7.97962313 C0.0515814471,8.07068435 0.0788912801,8.16362313 0.134193692,8.25937823 C0.189837477,8.35607211 0.285080519,8.45433061 0.421629685,8.55665714 C0.532234508,8.63614014 0.683804082,8.72344626 0.874972913,8.81982721 C1.06580037,8.91589524 1.30646827,9.00570476 1.59663525,9.09144626 C1.88646085,9.17624898 2.21998219,9.24728299 2.59583377,9.3032966 C2.97270946,9.35962313 3.39532913,9.38778639 3.86403414,9.38778639 C5.03562597,9.38778639 5.93650909,9.15309252 6.56634212,8.68370476 C7.19515102,8.21431701 7.50989685,7.56687483 7.50989685,6.74137823 C7.50989685,5.9950517 7.27195993,5.41520136 6.79506197,5.00307891 C6.31850538,4.58939184 5.6036705,4.32090204 4.65021596,4.19635782" id="Fill-15" fill="#EC1D24" mask="url(#mask-8)"></path>
                    </g>
                    <path d="M55.1962283,108.004541 C55.2322912,107.666299 55.3143426,107.341948 55.4397357,107.032135 C55.5664522,106.723614 55.7365104,106.45483 55.9528879,106.22772 C56.1692654,105.999317 56.4329548,105.817435 56.7452796,105.683689 C57.0566117,105.549943 57.4225346,105.482424 57.8423864,105.482424 C58.2632307,105.482424 58.628161,105.552528 58.9401549,105.692735 C59.2524796,105.833265 59.5135222,106.016439 59.7236135,106.244842 C59.9340357,106.472598 60.0958225,106.740736 60.2099667,107.05055 C60.3237799,107.35907 60.3982217,107.677606 60.4342846,108.004541 L55.1962283,108.004541 Z M60.9007866,105.490823 C60.5537224,105.088293 60.1236142,104.773311 59.6091386,104.545554 C59.0953247,104.317152 58.5027679,104.204082 57.8334533,104.204082 C57.1753878,104.204082 56.5811767,104.317152 56.0485043,104.545554 C55.5161626,104.773311 55.0619022,105.094431 54.6850612,105.508915 C54.3082202,105.923722 54.0180626,106.416386 53.8152501,106.988522 C53.6124375,107.560982 53.5102041,108.19773 53.5102041,108.897475 C53.5102041,109.586235 53.6124375,110.220399 53.8152501,110.79835 C54.0180626,111.375979 54.3115288,111.873166 54.6939942,112.287004 C55.0767905,112.701488 55.539984,113.022608 56.084898,113.25101 C56.6288195,113.47812 57.2356029,113.591837 57.9052483,113.591837 C58.4193931,113.591837 58.868029,113.533686 59.2504945,113.417062 C59.6329599,113.300438 59.9588496,113.153769 60.2281635,112.978995 C60.4968157,112.80422 60.7184869,112.620077 60.8918536,112.426888 C61.0655511,112.235314 61.2051709,112.056663 61.3130288,111.892549 C61.4450389,111.683207 61.5108786,111.502618 61.5108786,111.350457 C61.5108786,111.175037 61.4301506,111.035152 61.2686946,110.929189 C61.1069077,110.824841 60.9428049,110.772506 60.7753935,110.772506 C60.6198929,110.772506 60.5027711,110.800935 60.4253516,110.859732 C60.3476013,110.917882 60.2668733,111.005431 60.1828367,111.122055 C60.1117035,111.216065 60.0187339,111.326551 59.9049207,111.454805 C59.7914383,111.584029 59.6445398,111.709698 59.4655486,111.832137 C59.2858957,111.954577 59.0675331,112.059248 58.8111224,112.147442 C58.5537192,112.235314 58.2519817,112.278604 57.9052483,112.278604 C57.0205488,112.278604 56.3353533,112.02145 55.8509853,111.508433 C55.3669482,110.994124 55.1244333,110.264012 55.1244333,109.318743 L61.2233678,109.318743 C61.7136911,109.318743 61.9591837,109.108755 61.9591837,108.68781 C61.9591837,108.057523 61.8688609,107.467618 61.6898698,106.919388 C61.5108786,106.369542 61.2471892,105.894 60.9007866,105.490823 L60.9007866,105.490823 Z" id="Fill-17" fill="#EC1D24"></path>
                    <path d="M12.7544796,87.3100751 C12.1728594,87.7078883 10.9770854,88.0454558 9.67773527,88.0454558 C7.29714253,88.0454558 6.22320339,86.2909974 6.26470027,84.2471043 C6.30486924,82.5516166 7.40536638,80.633634 10.3782025,80.633634 L12.7544796,80.633634 L12.7544796,87.3100751 Z M18.7755102,76.3571416 C18.7755102,70.4674017 14.396096,68.5306122 10.3055,68.5306122 C7.47607705,68.5306122 4.93414446,69.2994628 2.31917737,70.5490045 L1.65157564,70.8763716 L3.24339577,74.2880665 L4.14338,73.8803716 C5.98982497,73.0847451 7.96474425,72.5530524 9.73881867,72.621586 C11.8837092,72.7066951 12.7634429,73.6524578 12.7634429,75.626861 L12.7634429,76.7836433 L9.25048344,76.7836433 C3.6095642,76.7836433 0.0972686757,79.6534451 0,84.1119498 C0,88.3492347 3.67496328,92 8.79401781,92 C12.921795,92 16.4171598,90.7131634 18.7755102,88.4461379 L18.7755102,76.3571416 Z" id="Fill-19" fill="#EC1D24"></path>
                    <path d="M25.34653,67.5918367 C27.4511832,67.5918367 29.1005616,65.9464484 29.1005616,63.8577277 C29.1283545,62.8639489 28.7637377,61.9233964 28.0715612,61.208312 C27.3757452,60.4813261 26.4244989,60.0816327 25.3994689,60.0816327 C23.3030875,60.0816327 21.5918367,61.7637174 21.5918367,63.8312798 C21.5918367,65.9414895 23.2438621,67.5918367 25.34653,67.5918367" id="Fill-21" fill="#EC1D24"></path>
                    <polygon id="Fill-23" fill="#EC1D24" points="28.1632653 68.5306122 22.5306122 69.4930761 22.5306122 92 28.1632653 92"></polygon>
                    <path d="M91.1418633,88.0728278 C88.7842891,87.8877107 88.2918844,86.8183645 88.2918844,85.0334951 L88.2918844,61.9591837 L82.6122449,62.960588 L82.6122449,84.6540709 C82.6122449,89.7979608 85.3133278,92 89.8322762,92 C90.7996246,92 92,91.7646651 92,91.7646651 L92,88.0823462 C92,88.0823462 91.4685458,88.0977726 91.1418633,88.0728278" id="Fill-25" fill="#EC1D24"></path>
                    <path d="M36.4924502,47.877551 C38.0200842,47.877551 39.8266292,47.5065156 41.8653275,46.7735499 C44.916018,45.6793044 47.3320472,44.1606932 49.6656782,42.693136 L50.2980507,42.2973865 C52.7667231,40.7495088 55.1758857,38.9483123 57.6563292,36.7907138 C63.1452833,32.0160311 66.4372824,27.3356519 68.3239366,21.6143573 C69.0887346,19.2980688 70.1713537,14.7773551 68.8441562,10.5353245 C67.8723821,7.44542225 65.9922674,4.90508164 63.2544934,2.98129067 C62.940269,2.72146833 59.5266346,0 53.0855251,0 C47.1966789,0 40.7392206,2.2610072 33.8933142,6.72318767 L33.6755479,6.86626881 L33.6421963,6.88577988 C33.4450294,7.00642329 33.2494975,7.12771708 33.0304233,7.27079822 C32.8741285,7.38818979 32.7067166,7.50200433 32.5023563,7.62004627 C31.1042049,8.56568254 29.767852,9.5864364 28.5237066,10.6777553 C25.6332346,13.4574316 22.3346959,18.1091946 22.5397102,22.0592096 C22.625378,23.7391123 23.3283774,25.1039113 24.626801,26.1201125 C25.7967228,27.0332304 27.2612504,27.496293 28.9726453,27.496293 C32.478814,27.496293 36.3237303,25.5965656 38.9529481,23.9885287 C39.1151284,23.8753646 39.2805785,23.7657774 39.4499523,23.6558651 C39.9077194,23.3553947 40.3638516,23.0503717 40.8248884,22.7450235 L41.2738271,22.4445531 C45.0105142,19.9529902 48.876357,17.3762289 53.2323376,15.8735518 C54.3604064,15.484306 55.3482023,15.2969998 56.2549081,15.2969998 C56.7058086,15.2969998 57.145265,15.3425256 57.562814,15.4410565 C58.8887036,15.7415269 59.8575348,16.4940036 60.438572,17.6734475 C61.4469675,19.7185322 61.2076207,22.9489142 59.8333386,25.9028893 C57.9581285,29.9296479 54.7357754,33.8972229 50.2633912,37.6983034 C47.987308,39.6298988 45.8828874,41.1254219 44.0070234,42.1393469 L43.8379766,42.2320245 C42.9649494,42.7093952 41.9787884,43.246925 40.9399841,43.6394226 L40.7987303,43.6927529 C40.4877757,43.8075429 40.2278294,43.9054235 39.9865207,43.989321 C35.6132104,45.1541316 38.2741449,41.3237844 38.2741449,41.3237844 C39.2390525,40.1797857 40.218347,39.2708952 41.2578052,38.3093249 C41.8512675,37.76269 42.4630405,37.1936172 43.0767754,36.5754417 L43.2121436,36.4388642 C43.9739988,35.6798838 45.0213044,34.6402693 44.957544,33.144421 C44.8705683,31.165999 42.8485458,29.9296479 40.9520822,29.876968 C40.9033628,29.8750169 40.85824,29.8750169 40.8101745,29.8750169 C38.9836839,29.8750169 37.2516895,30.9432477 36.1239477,31.8388056 C34.9903202,32.7405419 33.7873738,34.0903824 32.9833387,35.3625038 C31.8202834,37.1991454 29.3712296,41.8782238 31.7565229,45.6210964 C32.7093324,47.1198713 34.3039966,47.877551 36.4924502,47.877551" id="Fill-27" fill="#EC1D24"></path>
                    <path d="M69.6634462,72.7867338 C72.2563976,72.7867338 72.6402721,75.5429754 72.6402721,77.2581767 L66.3253073,77.2581767 C66.4243823,75.0552981 67.3598721,72.7867338 69.6634462,72.7867338 M70.3327742,92 C71.7145917,92 73.1536307,91.80102 74.4697252,91.3992149 C76.9936838,90.6350164 78.8571429,89.3094442 78.8571429,89.3094442 L77.2075288,85.9921495 C76.9132468,86.2109954 74.3964817,87.927158 70.9272239,87.927158 C69.3282917,87.927158 68.2469688,87.4144881 67.541346,86.6672717 C66.4901053,85.5541371 66.0257937,83.2685906 66.1497191,80.8436619 L78.7283127,80.8436619 L78.7283127,80.2752391 C78.6191014,72.2048534 75.8123051,68.5306122 69.6634462,68.5306122 C62.8056946,68.5306122 60.133614,74.7118093 60.0826052,80.5254861 C60.0391168,84.1965231 61.4555942,87.8970386 64.0452758,90.0041119 C65.6177226,91.2870684 67.7999871,92 70.3327742,92" id="Fill-29" fill="#EC1D24"></path>
                    <path d="M46.9387755,69.2326366 C46.2955408,68.9209508 44.7599499,68.5306122 42.977544,68.5306122 C40.3957081,68.5306122 36.4334881,69.2784631 32.8620857,73.0222678 L32.8571429,92 L38.8535267,92 L38.8535267,74.1370564 C39.6374689,73.3859554 41.2986093,72.7245575 42.8720957,72.6605303 C44.3338728,72.6046283 45.28126,72.9055888 45.28126,72.9055888 L46.9387755,69.2326366 Z" id="Fill-31" fill="#EC1D24"></path>
                    <path d="M58.2040816,72.7336814 L58.2040816,68.4174967 L54.5291864,68.4174967 L54.5291864,61.9591837 L48.8163265,62.9245897 L48.8163265,84.7882555 C48.8163265,89.6857245 51.5317387,92 56.0830368,92 C57.1755732,92 58.2040816,91.7853922 58.2040816,91.7853922 L58.2040816,88.1459463 C58.1431769,88.1383758 57.7221538,88.1383758 57.3988904,88.1248805 C55.001432,88.0386424 54.5291864,86.6456665 54.5291864,85.0370952 L54.5291864,72.7336814 L58.2040816,72.7336814 Z" id="Fill-33" fill="#EC1D24"></path>
                </g>
            </g>
        </g>
    </g>
</svg>