<?xml version="1.0" encoding="UTF-8"?>
<svg width="258px" height="140px" viewBox="0 0 258 140" version="1.1" xmlns="http://www.w3.org/2000/svg" xmlns:xlink="http://www.w3.org/1999/xlink">
    <title>3</title>
    <defs>
        <polygon id="path-1" points="0 0.00799633867 22.3910957 0.00799633867 22.3910957 24.3974151 0 24.3974151"></polygon>
        <polygon id="path-3" points="0.210423799 0.1417373 12.2046389 0.1417373 12.2046389 33.9771167 0.210423799 33.9771167"></polygon>
        <polygon id="path-5" points="0.235818764 0.050819222 21.3276705 0.050819222 21.3276705 24.9393501 0.235818764 24.9393501"></polygon>
        <polygon id="path-7" points="0.145925858 0.217336384 73.3153538 0.217336384 73.3153538 70.5501144 0.145925858 70.5501144"></polygon>
    </defs>
    <g id="首页*" stroke="none" stroke-width="1" fill="none" fill-rule="evenodd">
        <g id="国内版logo展示" transform="translate(-752.000000, -95.000000)">
            <g id="3" transform="translate(752.000000, 95.000000)">
                <rect id="矩形备份-4" fill="#FFFFFF" x="0" y="0" width="258" height="140" rx="8"></rect>
                <g id="编组" transform="translate(65.000000, 14.000000)">
                    <g transform="translate(0.000000, 85.897080)">
                        <mask id="mask-2" fill="white">
                            <use xlink:href="#path-1"></use>
                        </mask>
                        <g id="Clip-2"></g>
                        <path d="M13.6929538,12.902605 C11.8450087,13.1017812 10.2448622,13.4017172 8.4461254,13.8522069 C6.04693089,14.4514929 4.99744805,15.6011497 4.99744805,17.6497355 C4.99744805,20.098724 6.84656476,21.6487835 9.79554416,21.6487835 C10.4469675,21.6487835 11.0942902,21.5981108 11.6950407,21.4478499 C11.8450087,21.4478499 12.3444137,21.3485547 13.2940156,21.0981199 C13.3938966,21.0981199 13.4946563,21.0483259 13.6929538,20.9988247 L13.6929538,12.902605 Z M2.24852357,6.25509931 L2.24852357,1.70714508 C5.99713684,0.55748833 8.64588741,0.00799633867 10.9454938,0.00799633867 C15.8437638,0.00799633867 18.1914069,1.95699405 18.1914069,5.90566224 L18.1914069,19.149708 C18.1914069,20.39866 18.3425465,20.5987149 19.59267,20.9988247 L22.3910957,21.7987515 L22.3910957,22.8482343 L18.7915716,24.0470993 C18.3425465,24.1976531 17.3929446,24.347914 16.6926059,24.3974151 L16.492551,24.3974151 C14.9943359,24.3974151 14.144908,23.6472824 13.845265,21.9979277 L13.2445144,22.2984494 L11.5453657,23.0972046 C10.3453291,23.6472824 9.59519634,23.9472183 9.29643204,24.0470993 C8.64588741,24.2969483 7.7967524,24.3974151 6.84656476,24.3974151 C2.79918719,24.3974151 -0.000117162471,21.8986325 -0.000117162471,18.3497812 C-0.000117162471,15.3510078 1.84929245,13.4017172 5.29767689,12.6521703 C7.29705446,12.2022664 10.2448622,11.8027423 13.6929538,11.5028064 L13.6929538,6.10513135 C13.6929538,3.00647689 12.4943817,2.00649519 8.697146,2.00649519 C8.14648238,2.00649519 7.94642746,2.00649519 7.3462627,2.10666911 L5.24758993,6.25509931 L2.24852357,6.25509931 Z" id="Fill-1" fill="#231F20" mask="url(#mask-2)"></path>
                    </g>
                    <path d="M24.7384165,110.044236 L24.7384165,108.794991 L28.9360549,107.045463 L28.9360549,89.8026618 L24.7384165,88.6037968 L24.7384165,87.4037602 L33.4353867,85.4547625 L33.4353867,88.3038609 L34.083881,88.003632 L36.6834233,87.004822 C39.7325767,85.8548723 40.231103,85.7049043 41.7307826,85.7049043 C44.030389,85.7049043 45.4293089,86.5054169 46.7793135,88.6037968 C47.0795423,88.5036229 47.3285126,88.4031561 47.4778947,88.3530691 C47.9283844,88.2042728 49.0276613,87.8041629 50.8773638,87.0549089 C53.4760275,86.0552201 55.0257941,85.6548174 56.374627,85.6548174 C58.2738307,85.6548174 60.0221876,86.4040714 61.272897,87.703989 C62.7711121,89.2036686 63.271103,90.7033483 63.271103,93.6511561 L63.271103,107.045463 L67.4687414,108.794991 L67.4687414,110.044236 L54.8257391,110.044236 L54.8257391,108.794991 L58.7744073,107.045463 L58.7744073,94.6010508 C58.7744073,90.5527945 56.9238261,88.9034398 52.2756979,88.9034398 C50.4268741,88.9034398 48.7286041,89.1532888 47.3777208,89.6034856 C47.9283844,90.8524375 48.0780595,91.853005 48.0780595,94.2513208 L48.0780595,107.045463 L52.0768146,108.794991 L52.0768146,110.044236 L39.881373,110.044236 L39.881373,108.794991 L43.6305721,107.045463 L43.6305721,94.6010508 C43.6305721,90.4532064 41.9323021,88.9034398 37.4329703,88.9034398 C35.9842563,88.9034398 35.1345355,89.0033208 33.4353867,89.402259 L33.4353867,107.045463 L37.3814188,108.794991 L37.3814188,110.044236 L24.7384165,110.044236 Z" id="Fill-3" fill="#231F20"></path>
                    <path d="M70.7181254,109.144633 L70.7181254,103.597576 L72.8176769,103.597576 L75.1175762,108.095736 C76.1163863,108.24629 76.5162032,108.295205 77.31613,108.295205 C80.4147844,108.295205 82.1631414,106.995288 82.1631414,104.746647 C82.1631414,103.197173 81.6139423,102.447919 79.6655304,101.298263 L75.1175762,98.749686 C72.3171002,97.1003314 70.9688531,95.0514526 70.9688531,92.4027021 C70.9688531,88.3040659 73.8665739,85.6550224 78.5141162,85.6550224 C80.3149034,85.6550224 81.9138783,85.9546654 84.961567,86.7545922 L85.3619698,86.9045602 L85.3619698,91.9030041 L83.2624183,91.9030041 L81.2636265,87.8538691 C80.4639927,87.6541071 80.1637638,87.604313 79.1655396,87.604313 C76.3158554,87.6541071 74.6673794,88.8037638 74.6673794,90.8031414 C74.6673794,92.2014755 75.5165144,93.2017501 77.7648622,94.450995 L81.6640293,96.6006334 C84.8613931,98.3498691 86.1115167,100.24878 86.1115167,103.247553 C86.1115167,107.445485 82.8133931,110.54326 78.2654389,110.54326 C76.5662902,110.54326 73.7177776,109.993768 70.7181254,109.144633" id="Fill-5" fill="#231F20"></path>
                    <g transform="translate(90.800915, 76.816989)">
                        <mask id="mask-4" fill="white">
                            <use xlink:href="#path-3"></use>
                        </mask>
                        <g id="Clip-8"></g>
                        <path d="M9.10539863,0.1417373 C10.4053162,0.1417373 11.1548632,0.891577117 11.1548632,2.29137574 C11.1548632,4.39004851 10.1059661,5.63958627 8.35731625,5.63958627 C7.05681281,5.63958627 6.3072659,4.88945355 6.3072659,3.54062059 C6.3072659,1.49086316 7.4071286,0.1417373 9.10539863,0.1417373 L9.10539863,0.1417373 Z M4.9086389,11.9367762 L1.05985172,16.0852064 L0.210423799,15.3845748 C2.10962746,11.4364924 4.95872586,8.83782883 7.50583799,8.83782883 C8.90592952,8.83782883 9.50580137,9.48749474 9.50580137,10.8372064 C9.50580137,11.1362636 9.4551286,11.4364924 9.40709199,11.7868082 L6.90713776,29.6286023 L6.90713776,29.829243 C6.90713776,30.1783872 7.00672586,30.3793208 7.2076595,30.628584 L7.45721556,30.8787259 L11.3546252,26.6807945 L12.2046389,27.4297556 C10.3564009,31.2788357 7.4071286,33.9773803 4.95872586,33.9773803 C3.60842838,33.9773803 2.90926133,33.3271286 2.90926133,32.0280897 C2.90926133,31.6780668 2.9599341,31.2788357 3.00943524,30.8787259 L5.50792494,13.1857281 L5.50792494,12.936465 C5.50792494,12.6863231 5.4584238,12.4865611 5.20798902,12.2865062 L4.9086389,11.9367762 Z" id="Fill-7" fill="#F48024" mask="url(#mask-4)"></path>
                    </g>
                    <g transform="translate(106.617849, 85.604174)">
                        <mask id="mask-6" fill="white">
                            <use xlink:href="#path-5"></use>
                        </mask>
                        <g id="Clip-10"></g>
                        <path d="M12.8808714,11.5456293 L17.2281849,20.8412998 C17.4282398,21.2914966 17.4774481,21.2914966 17.8265922,21.4411716 L20.4267204,17.8431121 L21.3276998,18.4426911 C20.1270773,22.1915973 17.9279378,24.9393501 16.0788211,24.9393501 C15.0290453,24.9393501 14.7794892,24.6903799 13.8298874,22.6910023 L9.68321465,13.8440641 L9.23038169,14.3944348 C8.68176842,14.9934279 7.9319286,15.7948192 6.98203387,16.7930435 C5.58252815,18.293016 5.33238627,18.5929519 4.58430389,19.5923478 C5.33238627,20.7923844 5.68270206,21.6916064 5.68270206,22.4915332 C5.68270206,23.9903341 4.58430389,24.9393501 2.83506819,24.9393501 C1.13533364,24.9393501 0.235818764,24.1906819 0.235818764,22.7911762 C0.235818764,21.8412815 0.835690618,20.5422426 1.88488055,19.2924119 C3.78408421,17.0431854 6.98203387,13.8440641 8.93161739,12.195881 L5.18300412,4.29942334 C4.98324211,3.79826087 4.93403387,3.74934554 4.53363112,3.64946453 L1.88488055,7.19743707 L0.935278719,6.59727231 L1.13533364,6.14795423 C2.88369062,1.84955606 4.33386911,0.050819222 6.13260595,0.050819222 C7.28255561,0.050819222 7.63199268,0.401135011 8.63256018,2.50010069 L12.1301529,9.94665446 C13.3808622,8.74720366 15.3292741,6.49797712 16.2785831,5.29911213 L16.0287341,4.84920824 C15.529622,3.79826087 15.3793611,3.24906178 15.3793611,2.50010069 C15.3793611,0.901125858 16.3784641,0.050819222 18.2278737,0.050819222 C19.7782261,0.050819222 20.6267753,0.79978032 20.6267753,2.04990389 C20.6267753,3.19956064 20.0274892,4.39871854 18.6273977,5.89898398 C17.2281849,7.3977849 15.1793062,9.39686957 13.2798096,11.1461053 L12.8808714,11.5456293 Z" id="Fill-9" fill="#F48024" mask="url(#mask-6)"></path>
                    </g>
                    <path d="M57.7432897,57.1054572 C56.1958664,58.7958188 54.0804979,61.0509034 51.4036284,63.8680751 C48.9490746,66.4986654 47.749038,67.8202581 46.6825666,69.122519 C51.8321501,71.8893108 57.7160494,73.4607524 63.9710609,73.4607524 C65.1051936,73.4607524 66.2264384,73.4018783 67.3333309,73.2999469 L59.0124522,55.5562764 L57.7432897,57.1054572 Z" id="Fill-11" fill="#F48024"></path>
                    <g transform="translate(27.240275, 0.075570)">
                        <mask id="mask-8" fill="white">
                            <use xlink:href="#path-7"></use>
                        </mask>
                        <g id="Clip-14"></g>
                        <path d="M29.6606169,50.8307918 L19.0934407,28.5728513 C18.530768,27.1633867 18.3892943,27.0236705 17.2642416,26.741016 L9.79659863,36.7434691 L7.11914325,35.0522288 L7.68269474,33.7851167 C12.6125986,21.6690526 16.6986398,16.5982609 21.7694316,16.5982609 C25.0110243,16.5982609 25.9978252,17.584476 28.8138252,23.5008879 L38.6742188,44.4920092 C42.1970014,41.1115789 47.6919213,34.7710389 50.3676192,31.3903158 L49.6640586,30.1226178 C48.2545941,27.1633867 47.8319304,25.6144989 47.8319304,23.5008879 C47.8319304,18.9939405 50.6502737,16.5982609 55.8640037,16.5982609 C60.2303561,16.5982609 62.6231066,18.7121648 62.6231066,22.2334828 C62.6231066,25.4730252 60.9342096,28.854627 56.9881776,33.0803844 C53.0444888,37.3073135 47.2669144,42.9428284 41.9146398,47.8730252 L40.7881227,48.9998352 L50.8690746,70.5501144 C64.054832,65.0212174 73.3153538,51.9939222 73.3153538,36.8011716 C73.3153538,16.5956247 56.9345757,0.217189931 36.7307863,0.217189931 C16.5255323,0.217189931 0.145925858,16.5956247 0.145925858,36.8011716 C0.145925858,48.572778 5.71172906,59.0368513 14.3474819,65.7294645 C19.4074362,60.2904897 25.5274178,54.3260412 29.6606169,50.8307918" id="Fill-13" fill="#F48024" mask="url(#mask-8)"></path>
                    </g>
                </g>
            </g>
        </g>
    </g>
</svg>