<?xml version="1.0" encoding="UTF-8"?>
<svg width="258px" height="140px" viewBox="0 0 258 140" version="1.1" xmlns="http://www.w3.org/2000/svg" xmlns:xlink="http://www.w3.org/1999/xlink">
    <title>4</title>
    <g id="首页*" stroke="none" stroke-width="1" fill="none" fill-rule="evenodd">
        <g id="国内版logo展示" transform="translate(-1074.000000, -95.000000)">
            <g id="4" transform="translate(1074.000000, 95.000000)">
                <rect id="矩形" fill="#FFFFFF" x="0" y="0" width="258" height="140" rx="8"></rect>
                <g id="AWS-Badge" transform="translate(65.000000, 8.000000)">
                    <polygon id="Stroke-1" stroke="#DCDCDC" points="1.82857143 122.514286 126.171429 122.514286 126.171429 1.82857143 1.82857143 1.82857143"></polygon>
                    <polygon id="Stroke-2" stroke="#E0E0E0" points="1.82857143 122.514286 127.085714 122.514286 127.085714 0.914285714 1.82857143 0.914285714"></polygon>
                    <polygon id="Stroke-3" stroke="#E8E8E8" points="0.914285714 122.514286 127.085714 122.514286 127.085714 0.914285714 0.914285714 0.914285714"></polygon>
                    <polygon id="Stroke-4" stroke="#F4F4F4" points="0.914285714 122.514286 128 122.514286 128 0.914285714 0.914285714 0.914285714"></polygon>
                    <path d="M0.531120332,122.514286 L127.46888,122.514286 L127.46888,0.53383131 L0.531120332,0.53383131 L0.531120332,122.514286 Z M0.265560166,122.514286 L127.73444,122.514286 L127.73444,0.266915655 L0.265560166,0.266915655 L0.265560166,122.514286 Z M0,122.514286 L128,122.514286 L128,0 L0,0 L0,122.514286 Z" id="Stroke-5" stroke="#FFFFFF"></path>
                    <line x1="1.82857143" y1="120.685714" x2="126.171429" y2="120.685714" id="Stroke-6" stroke="#DCDCDC"></line>
                    <line x1="1.82857143" y1="121.6" x2="126.171429" y2="121.6" id="Stroke-7" stroke="#DDDDDD"></line>
                    <line x1="1.82857143" y1="121.6" x2="126.171429" y2="121.6" id="Stroke-8" stroke="#DFDFDF"></line>
                    <line x1="1.82857143" y1="121.6" x2="126.171429" y2="121.6" id="Stroke-9" stroke="#E2E2E2"></line>
                    <line x1="1.82857143" y1="122.514286" x2="126.171429" y2="122.514286" id="Stroke-10" stroke="#E6E6E6"></line>
                    <line x1="1.82857143" y1="122.514286" x2="126.171429" y2="122.514286" id="Stroke-11" stroke="#EBEBEB"></line>
                    <line x1="1.82857143" y1="122.514286" x2="126.171429" y2="122.514286" id="Stroke-12" stroke="#F1F1F1"></line>
                    <polygon id="Fill-13" fill="#242F3D" points="1.82857143 3.65714286 126.171429 3.65714286 126.171429 0 1.82857143 0"></polygon>
                    <polygon id="Fill-14" fill="#FFFFFF" points="1.82857143 120.685714 126.171429 120.685714 126.171429 3.65714286 1.82857143 3.65714286"></polygon>
                    <path d="M38.8707214,27.6907093 C39.160396,27.8825175 39.5949081,28.035964 40.1380481,28.151049 C40.6811881,28.3044955 41.2605375,28.3428571 41.8398868,28.3428571 C42.4192362,28.3428571 42.9261669,28.2661339 43.3968883,28.1126873 C43.8676096,27.9592408 44.2659123,27.7290709 44.6280057,27.4605395 C44.9538897,27.192008 45.2435644,26.8467532 45.424611,26.4247752 C45.6056577,26.0027972 45.7142857,25.5808192 45.7142857,25.0437562 C45.7142857,24.42997 45.533239,23.8929071 45.207355,23.3942058 C44.881471,22.9338661 44.3021216,22.5502498 43.5055163,22.2817183 L41.9485149,21.7446553 C41.3691655,21.5528472 40.9346535,21.3226773 40.7173975,21.0925075 C40.5001414,20.8623377 40.3915134,20.5938062 40.3915134,20.2485514 C40.3915134,19.7882118 40.5725601,19.4045954 40.8984441,19.2127872 C41.2605375,18.9826174 41.7312588,18.8675325 42.3830269,18.8675325 C43.1796322,18.8675325 43.8676096,19.020979 44.5193777,19.3278721 C44.7004243,19.4045954 44.8452617,19.4813187 44.9538897,19.4813187 C45.1349364,19.4813187 45.207355,19.3662338 45.207355,19.0977023 L45.207355,18.6373626 C45.207355,18.4839161 45.1711457,18.3304695 45.098727,18.2537463 C45.0263083,18.1386613 44.9176803,18.0235764 44.772843,17.9468531 C44.664215,17.8701299 44.4831683,17.7934066 44.3021216,17.755045 C44.121075,17.6783217 43.903819,17.63996 43.6865629,17.5632368 C43.4693069,17.5248751 43.2158416,17.4481518 42.9623762,17.4481518 C42.7089109,17.3714286 42.4554455,17.3714286 42.2019802,17.3714286 C41.6950495,17.3714286 41.2605375,17.4481518 40.8260255,17.5632368 C40.3915134,17.7166833 39.9932107,17.9084915 39.6673267,18.177023 C39.3414427,18.4455544 39.0879774,18.7524476 38.8707214,19.1360639 C38.6534653,19.5196803 38.5810467,19.9416583 38.5810467,20.4403596 C38.5810467,21.0541459 38.7620934,21.6295704 39.1241867,22.1282717 C39.4862801,22.6653347 40.0656294,23.048951 40.8984441,23.3174825 L42.4916549,23.8545455 C43.0347949,24.0463536 43.3968883,24.2381618 43.6141443,24.4683317 C43.8314003,24.6985015 43.903819,24.967033 43.903819,25.2739261 C43.903819,25.7342657 43.7227723,26.1178821 43.3244696,26.3864136 C42.9261669,26.6549451 42.4192362,26.77003 41.6950495,26.77003 C41.2605375,26.77003 40.8260255,26.7316683 40.3915134,26.6165834 C39.9570014,26.5398601 39.5586987,26.3864136 39.160396,26.1946054 C39.051768,26.1562438 38.94314,26.1178821 38.8707214,26.0795205 C38.7983027,26.0411588 38.725884,26.0411588 38.6534653,26.0411588 C38.4724187,26.0411588 38.4,26.1562438 38.4,26.4247752 L38.4,27.0001998 C38.4,27.1152847 38.4362093,27.2303696 38.4724187,27.3454545 C38.5810467,27.4989011 38.6896747,27.5756244 38.8707214,27.6907093" id="Fill-15" fill="#252F3E"></path>
                    <path d="M19.8808511,21.9970134 C19.4528875,21.9205575 19.024924,21.9205575 18.6358663,21.9205575 C17.4297872,21.9205575 16.4571429,22.2263813 15.7179331,22.8380289 C14.9787234,23.4496765 14.6285714,24.2524639 14.6285714,25.2463912 C14.6285714,26.2020906 14.9009119,26.9284221 15.4844985,27.5018417 C16.0680851,28.0752613 16.8462006,28.3428571 17.8577508,28.3428571 C19.2583587,28.3428571 20.4255319,27.8076655 21.3592705,26.7372822 C21.4759878,27.004878 21.5927052,27.2342459 21.7094225,27.4253858 C21.8261398,27.6165256 21.9817629,27.8076655 22.137386,27.9605774 C22.2541033,28.0752613 22.3708207,28.1134893 22.487538,28.1134893 C22.5653495,28.1134893 22.6820669,28.0752613 22.7987842,27.9988054 L23.5379939,27.5018417 C23.693617,27.3871578 23.7714286,27.2724739 23.7714286,27.1577899 C23.7714286,27.081334 23.7325228,27.004878 23.693617,26.8901941 C23.5379939,26.5843703 23.3823708,26.3167745 23.3045593,26.0491787 C23.2267477,25.7815829 23.1878419,25.4375311 23.1878419,25.0170234 L23.1878419,21.194226 C23.1878419,19.9327028 22.8765957,18.9770035 22.2151976,18.3271279 C21.5537994,17.6772524 20.5422492,17.3714286 19.1027356,17.3714286 C18.4413374,17.3714286 17.818845,17.4478845 17.2352584,17.6007964 C16.6905775,17.7537083 16.1848024,17.9066202 15.7568389,18.1359881 C15.6012158,18.212444 15.4844985,18.2889 15.4455927,18.3653559 C15.3677812,18.4418118 15.3677812,18.5947237 15.3677812,18.7858636 L15.3677812,19.3592832 C15.3677812,19.5886511 15.4455927,19.741563 15.6012158,19.741563 C15.6401216,19.741563 15.7179331,19.741563 15.7957447,19.703335 C15.8735562,19.665107 16.0291793,19.626879 16.2237082,19.5504231 C16.6516717,19.3975112 17.0796353,19.2445993 17.5075988,19.1681434 C17.9355623,19.0534594 18.3635258,19.0152315 18.7914894,19.0152315 C19.725228,19.0152315 20.3477204,19.2063713 20.7367781,19.5504231 C21.1258359,19.8944749 21.281459,20.5443504 21.281459,21.4235938 L21.281459,22.2646093 C20.7756839,22.1499253 20.3477204,22.0734694 19.8808511,21.9970134 Z M21.2425532,24.061324 C21.2425532,24.4436038 21.2036474,24.7876556 21.1258359,25.0552514 C21.0480243,25.3228472 20.931307,25.590443 20.7367781,25.7815829 C20.4255319,26.1256346 20.0364742,26.3932305 19.6085106,26.5079144 C19.1805471,26.6608263 18.7525836,26.7372822 18.3635258,26.7372822 C17.818845,26.7372822 17.3908815,26.5843703 17.118541,26.3167745 C16.8462006,26.0491787 16.6905775,25.628671 16.6905775,25.0934793 C16.6905775,24.5200597 16.8851064,24.061324 17.2741641,23.7555002 C17.6632219,23.4496765 18.2468085,23.2967646 19.024924,23.2967646 C19.375076,23.2967646 19.7641337,23.3349925 20.1531915,23.3732205 C20.5422492,23.4114485 20.8924012,23.4879044 21.2425532,23.5643604 L21.2425532,24.061324 L21.2425532,24.061324 Z" id="Fill-16" fill="#252F3E"></path>
                    <g id="编组" transform="translate(13.714286, 18.285714)">
                        <path d="M13.3510508,9.54253061 C13.4248136,9.76195918 13.4985763,9.9082449 13.572339,9.98138776 C13.6461017,10.0545306 13.7936271,10.091102 14.0149153,10.091102 L14.9738305,10.091102 C15.1951186,10.091102 15.3426441,10.0545306 15.4164068,9.98138776 C15.4901695,9.9082449 15.5639322,9.76195918 15.6376949,9.54253061 L17.3711186,2.33795918 L19.1414237,9.54253061 C19.1783051,9.76195918 19.2520678,9.9082449 19.3627119,9.98138776 C19.4364746,10.0545306 19.6208814,10.091102 19.8052881,10.091102 L20.7642034,10.091102 C20.9486102,10.091102 21.0961356,10.0545306 21.2067797,9.98138776 C21.2805424,9.9082449 21.3911864,9.76195918 21.4280678,9.54253061 L24.1572881,0.911673469 C24.1941695,0.801959184 24.2310508,0.692244898 24.2310508,0.655673469 C24.2310508,0.582530612 24.2679322,0.545959184 24.2679322,0.472816327 C24.2679322,0.289959184 24.1941695,0.216816327 24.0097627,0.216816327 L22.9770847,0.216816327 C22.7557966,0.216816327 22.6082712,0.253387755 22.5345085,0.326530612 C22.4607458,0.399673469 22.3869831,0.545959184 22.3132203,0.765387755 L20.3585085,8.26253061 L18.551322,0.728816327 C18.5144407,0.509387755 18.440678,0.363102041 18.3300339,0.289959184 C18.2562712,0.216816327 18.0718644,0.180244898 17.8874576,0.180244898 L16.9654237,0.180244898 C16.7441356,0.180244898 16.5966102,0.216816327 16.5228475,0.289959184 C16.4490847,0.363102041 16.375322,0.509387755 16.3015593,0.728816327 L14.5312542,8.1162449 L12.6503051,0.728816327 C12.5765424,0.509387755 12.5027797,0.363102041 12.4290169,0.289959184 C12.3552542,0.216816327 12.2077288,0.180244898 11.9864407,0.180244898 L10.88,0.180244898 C10.6955932,0.180244898 10.6218305,0.253387755 10.6218305,0.436244898 C10.6218305,0.509387755 10.6587119,0.655673469 10.7324746,0.875102041 L13.3510508,9.54253061" id="Fill-17" fill="#252F3E"></path>
                        <path d="M30.0583051,14.955102 C25.9275932,16.7105306 21.3911864,17.5516735 17.2973559,17.5516735 C11.2119322,17.5516735 5.31091525,15.9059592 0.553220339,13.1265306 C0.147525424,12.8705306 -0.18440678,13.3093878 0.18440678,13.6385306 C4.61016949,17.5882449 10.4374237,19.9653878 16.9285424,19.9653878 C21.5387119,19.9653878 26.9233898,18.539102 30.6484068,15.7962449 C31.2016271,15.3573878 30.6852881,14.699102 30.0583051,14.955102" id="Fill-19" fill="#FF9900"></path>
                    </g>
                    <path d="M41.3594872,31.2107554 C41.0252194,31.4363653 41.0995011,31.7747801 41.4337689,31.7371785 C42.6222765,31.5867719 45.3335596,31.2483571 45.77925,31.8875851 C46.2620812,32.4892114 45.2592779,35.0461233 44.8135875,36.2117743 C44.665024,36.5501892 44.962151,36.7005957 45.2964187,36.4373842 C47.3020254,34.7453102 47.8219975,31.1731538 47.413448,30.6843324 C47.0048985,30.1203077 43.4765164,29.7066896 41.3594872,31.2107554" id="Fill-20" fill="#FF9900"></path>
                    <path d="M56.8199214,25.6 C56.7528178,25.6 56.6857143,25.5636364 56.6857143,25.4545455 L56.6857143,19.4545455 C56.6857143,19.3818182 56.7192661,19.3090909 56.8199214,19.3090909 L56.9876802,19.3090909 C57.0883355,19.3090909 57.1218873,19.3454545 57.1218873,19.4545455 L57.1554391,19.8181818 C57.3903014,19.6 57.6587156,19.4545455 57.893578,19.3454545 C58.1284404,19.2363636 58.3633028,19.2 58.6317169,19.2 C59.1685452,19.2 59.5711664,19.4181818 59.8731324,19.8181818 C60.1750983,20.2181818 60.3428571,20.8 60.3428571,21.4909091 C60.3428571,22.2181818 60.1750983,22.8 59.8731324,23.2363636 C59.5376147,23.6727273 59.1349934,23.8909091 58.5646134,23.8909091 C58.0613368,23.8909091 57.6251638,23.6727273 57.1889908,23.2727273 L57.1889908,25.4545455 C57.1889908,25.5272727 57.1554391,25.6 57.0547837,25.6 L56.8199214,25.6 Z M58.4975098,23.4181818 C58.9336828,23.4181818 59.2692005,23.2727273 59.5040629,22.9454545 C59.7389253,22.6181818 59.8395806,22.1454545 59.8395806,21.5272727 C59.8395806,20.2909091 59.4034076,19.6727273 58.5310616,19.6727273 C58.0948886,19.6727273 57.6251638,19.8545455 57.1889908,20.2545455 L57.1889908,22.8363636 C57.4238532,23.0545455 57.6251638,23.2 57.8264744,23.3090909 C58.0277851,23.3454545 58.2626474,23.4181818 58.4975098,23.4181818 L58.4975098,23.4181818 Z" id="Fill-21" fill="#252F3E"></path>
                    <path d="M62.6815038,23.7714286 C62.2580451,23.7714286 61.9115789,23.6651163 61.6421053,23.4170543 C61.3726316,23.2044297 61.2571429,22.8854928 61.2571429,22.4956811 C61.2571429,22.0704319 61.4111278,21.751495 61.7190977,21.503433 C62.0270677,21.255371 62.4505263,21.1490587 62.9894737,21.1490587 C63.4129323,21.1490587 63.836391,21.2199336 64.3368421,21.3616833 L64.3368421,20.6529347 C64.3368421,20.2985604 64.2598496,20.0504983 64.0673684,19.9087486 C63.8748872,19.7669989 63.6054135,19.696124 63.1819549,19.696124 C62.7584962,19.696124 62.2965414,19.7669989 61.8345865,19.9087486 C61.7960902,19.9087486 61.7190977,19.944186 61.6806015,19.944186 C61.603609,19.944186 61.603609,19.9087486 61.603609,19.8378738 L61.603609,19.6606866 C61.603609,19.6252492 61.603609,19.5898117 61.6421053,19.5543743 C61.6806015,19.5189369 61.6806015,19.5189369 61.7190977,19.4834994 C62.2195489,19.3063123 62.72,19.2 63.2974436,19.2 C63.836391,19.2 64.2598496,19.3063123 64.5293233,19.5189369 C64.798797,19.7315615 64.9142857,20.0504983 64.9142857,20.4757475 L64.9142857,23.5233666 C64.9142857,23.5942414 64.8757895,23.6651163 64.7603008,23.6651163 L64.5678195,23.6651163 C64.4908271,23.6651163 64.4138346,23.6296788 64.4138346,23.5233666 L64.3753383,23.1689922 C63.836391,23.5942414 63.2589474,23.7714286 62.6815038,23.7714286 Z M62.7584962,23.3461794 C62.9894737,23.3461794 63.2589474,23.310742 63.5284211,23.2044297 C63.7978947,23.0981174 64.0673684,22.9918051 64.3753383,22.8146179 L64.3753383,21.751495 C63.9518797,21.6451827 63.5669173,21.6097453 63.1434586,21.6097453 C62.2580451,21.6097453 61.8345865,21.9286822 61.8345865,22.5311185 C61.8345865,22.7791805 61.9115789,22.9918051 62.0655639,23.1335548 C62.2195489,23.2753045 62.4505263,23.3461794 62.7584962,23.3461794 L62.7584962,23.3461794 Z" id="Fill-22" fill="#252F3E"></path>
                    <path d="M66.8608295,23.7714286 C66.8018433,23.7714286 66.7428571,23.7342625 66.7428571,23.6227642 L66.7428571,19.3486643 C66.7428571,19.2743322 66.7723502,19.2 66.8608295,19.2 L67.0082949,19.2 C67.0967742,19.2 67.1262673,19.2371661 67.1262673,19.3486643 L67.1557604,19.8689895 C67.3327189,19.6088269 67.5096774,19.4229965 67.6866359,19.3486643 C67.8635945,19.2371661 68.0700461,19.2 68.2764977,19.2 C68.364977,19.2 68.4239631,19.2 68.4534562,19.2 C68.5124424,19.2 68.5714286,19.2371661 68.5714286,19.3486643 L68.5714286,19.5716609 C68.5714286,19.6088269 68.5714286,19.6088269 68.5419355,19.645993 C68.5419355,19.6831591 68.5124424,19.6831591 68.4829493,19.6831591 C68.4534562,19.6831591 68.39447,19.6831591 68.364977,19.6831591 C68.3354839,19.6831591 68.2764977,19.6831591 68.2175115,19.6831591 C68.0110599,19.6831591 67.8046083,19.7203252 67.6276498,19.8318235 C67.4506912,19.9433217 67.3032258,20.0919861 67.1262673,20.3149826 L67.1262673,23.6227642 C67.1262673,23.6970964 67.0967742,23.7714286 67.0082949,23.7714286 L66.8608295,23.7714286" id="Fill-23" fill="#252F3E"></path>
                    <path d="M71.3736549,23.7714286 C71.0174397,23.7714286 70.7680891,23.6506739 70.5899814,23.449416 C70.4118738,23.2481581 70.3050093,22.9663971 70.3050093,22.5638814 L70.3050093,19.303504 L69.6282004,19.303504 C69.5569573,19.303504 69.4857143,19.2632525 69.4857143,19.1424978 L69.4857143,19.0619946 C69.4857143,19.021743 69.4857143,18.9814915 69.5213358,18.9412399 C69.5213358,18.9009883 69.5569573,18.9009883 69.6282004,18.9009883 L70.3406308,18.8204852 L70.4118738,17.5324349 C70.4118738,17.4921833 70.4474954,17.4519317 70.4474954,17.4116801 C70.4831169,17.3714286 70.4831169,17.3714286 70.5543599,17.3714286 L70.696846,17.3714286 C70.7680891,17.3714286 70.8393321,17.4116801 70.8393321,17.5324349 L70.8393321,18.8204852 L72.0860853,18.8204852 C72.1573284,18.8204852 72.2285714,18.8607367 72.2285714,18.9814915 L72.2285714,19.1827493 C72.2285714,19.2632525 72.1929499,19.3437556 72.0860853,19.3437556 L70.8393321,19.3437556 L70.8393321,22.604133 C70.8393321,22.885894 70.8749536,23.0469003 70.9818182,23.167655 C71.0886827,23.2884097 71.2667904,23.3286613 71.4805195,23.3286613 C71.6586271,23.3286613 71.8011132,23.3286613 71.9079777,23.2884097 C71.9792208,23.2884097 72.0148423,23.2481581 72.0504638,23.2481581 C72.0860853,23.2481581 72.1217069,23.2481581 72.1217069,23.2481581 C72.1929499,23.2481581 72.2285714,23.2884097 72.2285714,23.3689128 L72.2285714,23.5299191 C72.2285714,23.6506739 72.1929499,23.6909254 72.1217069,23.731177 C71.9079777,23.731177 71.6586271,23.7714286 71.3736549,23.7714286" id="Fill-24" fill="#252F3E"></path>
                    <path d="M73.2891429,23.7357143 C73.216,23.7357143 73.1428571,23.7 73.1428571,23.5928571 L73.1428571,19.4857143 C73.1428571,19.4142857 73.1794286,19.3428571 73.2891429,19.3428571 L73.472,19.3428571 C73.5817143,19.3428571 73.6182857,19.3785714 73.6182857,19.4857143 L73.6548571,19.8428571 C73.9474286,19.6285714 74.24,19.4857143 74.5691429,19.3785714 C74.8982857,19.2714286 75.1908571,19.2 75.4834286,19.2 C75.9222857,19.2 76.2514286,19.3071429 76.4708571,19.5214286 C76.6902857,19.7357143 76.8,20.0571429 76.8,20.5214286 L76.8,23.5571429 C76.8,23.6285714 76.7634286,23.7 76.6537143,23.7 L76.3977143,23.7 C76.3245714,23.7 76.2514286,23.6642857 76.2514286,23.5571429 L76.2514286,20.7714286 C76.2514286,20.3785714 76.1782857,20.1285714 76.032,19.95 C75.8857143,19.7714286 75.6297143,19.7 75.3371429,19.7 C74.752,19.7 74.1668571,19.8785714 73.6182857,20.2714286 L73.6182857,23.6285714 C73.6182857,23.7 73.5817143,23.7714286 73.472,23.7714286 L73.2891429,23.7714286" id="Fill-25" fill="#252F3E"></path>
                    <path d="M79.7938375,23.7714286 C79.112605,23.7714286 78.5747899,23.5942414 78.2521008,23.2044297 C77.8935574,22.8146179 77.7142857,22.247619 77.7142857,21.4679956 C77.7142857,20.759247 77.8935574,20.1922481 78.2521008,19.8024363 C78.6106443,19.4126246 79.112605,19.2 79.7221289,19.2 C80.259944,19.2 80.6543417,19.3417497 80.9411765,19.6606866 C81.2280112,19.944186 81.3714286,20.3694352 81.3714286,20.9364341 C81.3714286,21.1490587 81.3714286,21.3262458 81.3355742,21.4679956 C81.3355742,21.5388704 81.2638655,21.6097453 81.1921569,21.6097453 L78.2521008,21.6097453 C78.2521008,22.2121816 78.3955182,22.6728682 78.6464986,22.9563677 C78.897479,23.2398671 79.3277311,23.3816168 79.8655462,23.3816168 C80.2957983,23.3816168 80.6901961,23.310742 81.0487395,23.1689922 C81.1204482,23.1335548 81.1921569,23.1335548 81.1921569,23.1335548 C81.2280112,23.1335548 81.2280112,23.1335548 81.2638655,23.1689922 C81.2638655,23.2044297 81.2997199,23.2044297 81.2997199,23.2398671 L81.2997199,23.3816168 C81.2997199,23.4879291 81.2638655,23.5233666 81.1921569,23.558804 C80.7260504,23.6651163 80.2957983,23.7714286 79.7938375,23.7714286 Z M80.8694678,21.1844961 C80.8694678,21.1136213 80.8694678,21.007309 80.8694678,20.9009967 C80.8694678,20.4757475 80.7619048,20.1922481 80.5826331,19.9796235 C80.367507,19.7669989 80.0806723,19.6606866 79.6862745,19.6606866 C78.7540616,19.6606866 78.2879552,20.1568106 78.2162465,21.1844961 L80.8694678,21.1844961 L80.8694678,21.1844961 Z" id="Fill-26" fill="#252F3E"></path>
                    <path d="M82.4036866,23.7714286 C82.3447005,23.7714286 82.2857143,23.7342625 82.2857143,23.6227642 L82.2857143,19.3486643 C82.2857143,19.2743322 82.3152074,19.2 82.4036866,19.2 L82.5511521,19.2 C82.6396313,19.2 82.6691244,19.2371661 82.6691244,19.3486643 L82.6986175,19.8689895 C82.875576,19.6088269 83.0525346,19.4229965 83.2294931,19.3486643 C83.4064516,19.2371661 83.6129032,19.2 83.8193548,19.2 C83.9078341,19.2 83.9668203,19.2 83.9963134,19.2 C84.0552995,19.2 84.1142857,19.2371661 84.1142857,19.3486643 L84.1142857,19.5716609 C84.1142857,19.6088269 84.1142857,19.6088269 84.0847926,19.645993 C84.0847926,19.6831591 84.0552995,19.6831591 84.0258065,19.6831591 C83.9963134,19.6831591 83.9373272,19.6831591 83.9078341,19.6831591 C83.878341,19.6831591 83.8193548,19.6831591 83.7603687,19.6831591 C83.5539171,19.6831591 83.3474654,19.7203252 83.1705069,19.8318235 C82.9935484,19.9433217 82.8460829,20.0919861 82.6691244,20.3149826 L82.6691244,23.6227642 C82.6691244,23.6970964 82.6396313,23.7714286 82.5511521,23.7714286 L82.4036866,23.7714286" id="Fill-27" fill="#252F3E"></path>
                    <path d="M55.9177143,33.7925759 C55.8445714,33.7925759 55.7714286,33.7565804 55.7714286,33.6485939 L55.7714286,29.5451069 C55.7714286,29.4731159 55.808,29.4011249 55.9177143,29.4011249 L56.1005714,29.4011249 C56.2102857,29.4011249 56.2468571,29.4371204 56.2468571,29.5451069 L56.2834286,29.9050619 C56.576,29.6890889 56.8685714,29.5451069 57.1977143,29.4371204 C57.5268571,29.3291339 57.8194286,29.2571429 58.112,29.2571429 C58.5508571,29.2571429 58.88,29.3651294 59.0994286,29.5811024 C59.3188571,29.7970754 59.4285714,30.1210349 59.4285714,30.5889764 L59.4285714,33.6485939 C59.4285714,33.7205849 59.392,33.7925759 59.2822857,33.7925759 L59.0262857,33.7925759 C58.9531429,33.7925759 58.88,33.7565804 58.88,33.6485939 L58.88,30.8049494 C58.88,30.4089989 58.8068571,30.1570304 58.6605714,29.9770529 C58.5142857,29.7970754 58.2582857,29.7250844 57.9657143,29.7250844 C57.3805714,29.7250844 56.7954286,29.9050619 56.2468571,30.3010124 L56.2468571,33.6845894 C56.2468571,33.7565804 56.2102857,33.8285714 56.1005714,33.8285714 L55.9177143,33.8285714" id="Fill-28" fill="#252F3E"></path>
                    <path d="M63.3366947,33.8285714 C62.6554622,33.8285714 62.1176471,33.6513843 61.794958,33.2615725 C61.4364146,32.8717608 61.2571429,32.3047619 61.2571429,31.5251384 C61.2571429,30.8163898 61.4364146,30.2493909 61.794958,29.8595792 C62.1535014,29.4697674 62.6554622,29.2571429 63.264986,29.2571429 C63.8028011,29.2571429 64.1971989,29.3988926 64.4840336,29.7178295 C64.7708683,30.0013289 64.9142857,30.4265781 64.9142857,30.993577 C64.9142857,31.2062016 64.9142857,31.3833887 64.8784314,31.5251384 C64.8784314,31.5960133 64.8067227,31.6668882 64.735014,31.6668882 L61.794958,31.6668882 C61.794958,32.2693245 61.9383754,32.7300111 62.1893557,33.0135105 C62.4403361,33.29701 62.8705882,33.4387597 63.4084034,33.4387597 C63.8386555,33.4387597 64.2330532,33.3678848 64.5915966,33.2261351 C64.6633053,33.1906977 64.735014,33.1906977 64.735014,33.1906977 C64.7708683,33.1906977 64.7708683,33.1906977 64.8067227,33.2261351 C64.8067227,33.2615725 64.842577,33.2615725 64.842577,33.29701 L64.842577,33.4387597 C64.842577,33.545072 64.8067227,33.5805094 64.735014,33.6159468 C64.3047619,33.7222591 63.8386555,33.8285714 63.3366947,33.8285714 Z M64.4123249,31.2062016 C64.4123249,31.1353267 64.4123249,31.0290144 64.4123249,30.9227021 C64.4123249,30.4974529 64.3047619,30.2139535 64.1254902,30.0013289 C63.9103641,29.7887043 63.6235294,29.682392 63.2291317,29.682392 C62.2969188,29.682392 61.8308123,30.1785161 61.7591036,31.2062016 L64.4123249,31.2062016 L64.4123249,31.2062016 Z" id="Fill-29" fill="#252F3E"></path>
                    <path d="M67.7165121,33.8285714 C67.3602968,33.8285714 67.1109462,33.7085714 66.9328386,33.5085714 C66.754731,33.3085714 66.6478664,33.0285714 66.6478664,32.6285714 L66.6478664,29.3485714 L65.9710575,29.3485714 C65.8998145,29.3485714 65.8285714,29.3085714 65.8285714,29.1885714 L65.8285714,29.1085714 C65.8285714,29.0685714 65.8285714,29.0285714 65.8641929,28.9885714 C65.8641929,28.9485714 65.8998145,28.9485714 65.9710575,28.9485714 L66.6834879,28.8685714 L66.754731,27.5885714 C66.754731,27.5485714 66.7903525,27.5085714 66.7903525,27.4685714 C66.825974,27.4285714 66.825974,27.4285714 66.8972171,27.4285714 L67.0397032,27.4285714 C67.1109462,27.4285714 67.1821892,27.4685714 67.1821892,27.5885714 L67.1821892,28.8685714 L68.4289425,28.8685714 C68.5001855,28.8685714 68.5714286,28.9085714 68.5714286,29.0285714 L68.5714286,29.2285714 C68.5714286,29.3085714 68.5358071,29.3885714 68.4289425,29.3885714 L67.1821892,29.3885714 L67.1821892,32.6285714 C67.1821892,32.9085714 67.2178108,33.0685714 67.3246753,33.1885714 C67.4315399,33.3085714 67.6096475,33.3485714 67.8233766,33.3485714 C68.0014842,33.3485714 68.1439703,33.3485714 68.2508349,33.3085714 C68.3220779,33.3085714 68.3576994,33.2685714 68.393321,33.2685714 C68.4289425,33.2685714 68.464564,33.2685714 68.464564,33.2685714 C68.5358071,33.2685714 68.5714286,33.3085714 68.5714286,33.3885714 L68.5714286,33.5485714 C68.5714286,33.6685714 68.5358071,33.7085714 68.464564,33.7485714 C68.2508349,33.7885714 68.0014842,33.8285714 67.7165121,33.8285714" id="Fill-30" fill="#252F3E"></path>
                    <path d="M70.1991742,33.8285714 C70.1251858,33.8285714 70.0511974,33.7914053 70.0142031,33.7170732 L68.6084228,29.5173055 C68.5714286,29.4429733 68.5714286,29.4058072 68.5714286,29.3686411 C68.5714286,29.331475 68.6084228,29.2943089 68.6824112,29.2943089 L68.978365,29.2943089 C69.0523534,29.2943089 69.0893476,29.331475 69.1263419,29.4058072 L70.3471511,33.2339141 L71.4199835,29.4058072 C71.4569777,29.331475 71.4939719,29.2943089 71.6049546,29.2943089 L71.9379026,29.2943089 C72.011891,29.2943089 72.0858794,29.331475 72.1228737,29.4058072 L73.195706,33.2339141 L74.4535095,29.3686411 C74.4905037,29.2943089 74.5274979,29.2571429 74.6014864,29.2571429 L74.8604459,29.2571429 C74.9344344,29.2571429 74.9714286,29.2943089 74.9714286,29.331475 C74.9714286,29.3686411 74.9714286,29.4058072 74.9344344,29.4801394 L73.4546656,33.6799071 C73.4176713,33.7542393 73.3806771,33.7914053 73.2696945,33.7914053 L72.9737407,33.7914053 C72.8997523,33.7914053 72.8257638,33.7542393 72.7887696,33.6799071 L71.7159372,29.8518002 L70.6431049,33.6799071 C70.6061107,33.7542393 70.5691164,33.7914053 70.4581338,33.7914053 L70.1991742,33.7914053" id="Fill-31" fill="#252F3E"></path>
                    <path d="M77.7142857,33.8285714 C77.1368421,33.8285714 76.6877193,33.6175824 76.3669173,33.2307692 C76.0461153,32.843956 75.8857143,32.2813187 75.8857143,31.5428571 C75.8857143,30.8395604 76.0461153,30.2769231 76.3669173,29.8549451 C76.6877193,29.4681319 77.1368421,29.2571429 77.7142857,29.2571429 C78.2917293,29.2571429 78.7408521,29.4681319 79.0616541,29.8549451 C79.3824561,30.2417582 79.5428571,30.8043956 79.5428571,31.5428571 C79.5428571,32.2461538 79.3824561,32.8087912 79.0616541,33.2307692 C78.7408521,33.6175824 78.2917293,33.8285714 77.7142857,33.8285714 Z M77.7142857,33.3714286 C78.6125313,33.3714286 79.0616541,32.7736264 79.0616541,31.5428571 C79.0616541,30.3120879 78.6125313,29.7142857 77.7142857,29.7142857 C76.8160401,29.7142857 76.3669173,30.3120879 76.3669173,31.5428571 C76.3669173,32.7736264 76.8160401,33.3714286 77.7142857,33.3714286 L77.7142857,33.3714286 Z" id="Fill-32" fill="#252F3E"></path>
                    <path d="M81.4894009,33.7914053 C81.4304147,33.7914053 81.3714286,33.7542393 81.3714286,33.642741 L81.3714286,29.4058072 C81.3714286,29.331475 81.4009217,29.2571429 81.4894009,29.2571429 L81.6368664,29.2571429 C81.7253456,29.2571429 81.7548387,29.2943089 81.7548387,29.4058072 L81.7843318,29.9261324 C81.9612903,29.6659698 82.1382488,29.4801394 82.3152074,29.4058072 C82.4921659,29.2943089 82.6986175,29.2571429 82.9050691,29.2571429 C82.9935484,29.2571429 83.0525346,29.2571429 83.0820276,29.2571429 C83.1410138,29.2571429 83.2,29.2943089 83.2,29.4058072 L83.2,29.6288037 C83.2,29.6659698 83.2,29.6659698 83.1705069,29.7031359 C83.1410138,29.740302 83.1410138,29.740302 83.1115207,29.740302 C83.0820276,29.740302 83.0230415,29.740302 82.9935484,29.740302 C82.9640553,29.740302 82.9050691,29.740302 82.8460829,29.740302 C82.6396313,29.740302 82.4331797,29.7774681 82.2562212,29.8889663 C82.0792627,30.0004646 81.9317972,30.1491289 81.7548387,30.3721254 L81.7548387,33.6799071 C81.7548387,33.7542393 81.7253456,33.8285714 81.6368664,33.8285714 L81.4894009,33.8285714" id="Fill-33" fill="#252F3E"></path>
                    <path d="M84.2682707,33.8285714 C84.1912782,33.8285714 84.1142857,33.7930159 84.1142857,33.6863492 L84.1142857,27.5707937 C84.1142857,27.4996825 84.152782,27.4285714 84.2682707,27.4285714 L84.5377444,27.4285714 C84.6147368,27.4285714 84.6917293,27.464127 84.6917293,27.5707937 L84.6917293,31.4107937 L86.9245113,29.5619048 C87.0015038,29.4907937 87.0784962,29.4907937 87.1554887,29.4907937 L87.5019549,29.4907937 C87.5789474,29.4907937 87.6174436,29.5263492 87.6174436,29.5619048 C87.6174436,29.5974603 87.5789474,29.6330159 87.5019549,29.704127 L85.2306767,31.5530159 L87.6944361,33.6507937 C87.7329323,33.6863492 87.7714286,33.7219048 87.7714286,33.7574603 C87.7714286,33.8285714 87.7329323,33.8285714 87.6559398,33.8285714 L87.2709774,33.8285714 C87.193985,33.8285714 87.1169925,33.7930159 87.0784962,33.7574603 L84.6917293,31.6952381 L84.6917293,33.6863492 C84.6917293,33.7574603 84.6532331,33.8285714 84.5377444,33.8285714 L84.2682707,33.8285714" id="Fill-34" fill="#252F3E"></path>
                    <path d="M16.0508437,63.1217425 C15.5462351,62.937414 15.183215,62.7110967 14.9612511,62.4430546 C14.7395534,62.1747484 14.6285714,61.8356686 14.6285714,61.4258151 C14.6285714,60.8950125 14.8260501,60.471955 15.2212736,60.1569065 C15.6162309,59.8421221 16.1463893,59.6844658 16.8117487,59.6844658 C17.3663923,59.6844658 17.9111886,59.786401 18.4461376,59.9900074 L18.4461376,60.9512618 C17.8944215,60.7835704 17.3828932,60.6995927 16.9115526,60.6995927 C16.2435318,60.6995927 15.9095214,60.9127059 15.9095214,61.3391966 C15.9095214,61.4987014 15.9670084,61.6286292 16.0819825,61.7289799 C16.1969566,61.8295947 16.4141299,61.9360193 16.732704,62.0487819 L17.3650616,62.2798526 C17.8917601,62.4697268 18.2672889,62.6931392 18.4919143,62.950354 C18.7165396,63.2075687 18.8285861,63.5411029 18.8285861,63.9512205 C18.8285861,64.5314062 18.6185987,64.9895865 18.1986239,65.3252333 C17.778649,65.660616 17.2027139,65.8285714 16.4708186,65.8285714 C16.1519783,65.8285714 15.8339365,65.7989944 15.516427,65.7398403 C15.1989175,65.6806861 14.9266524,65.6001415 14.6993657,65.4984703 L14.6993657,64.5329907 C14.9820103,64.6182888 15.2856804,64.6861576 15.6101096,64.7371252 C15.9342727,64.7880928 16.2267647,64.8134445 16.4875856,64.8134445 C16.8229267,64.8134445 17.0813523,64.75297 17.2631285,64.632021 C17.4446386,64.5108079 17.5353936,64.3375708 17.5353936,64.1120457 C17.5353936,63.9388087 17.4800357,63.8012226 17.3690538,63.6992873 C17.2580718,63.5976162 17.0350433,63.4848537 16.6997022,63.3609997 L16.0508437,63.1217425 Z M20.7293849,63.8231413 C20.751741,64.1973439 20.8645859,64.4669704 21.068452,64.632021 C21.272052,64.7970715 21.5930214,64.8794648 22.031094,64.8794648 C22.4108812,64.8794648 22.8532121,64.8092193 23.3575545,64.6689923 L23.3575545,65.4902838 C23.1608743,65.591955 22.9245386,65.6711792 22.6485476,65.7274285 C22.3728226,65.7839418 22.0880488,65.8119343 21.7939599,65.8119343 C21.0705812,65.8119343 20.5201959,65.6173067 20.1430702,65.2280515 C19.7662106,64.8387963 19.5775147,64.2702302 19.5775147,63.521825 C19.5775147,62.8011483 19.7646138,62.2407687 20.139078,61.8404221 C20.5132762,61.4403395 21.0330549,61.2401662 21.6984143,61.2401662 C22.2613084,61.2401662 22.6943243,61.3935972 22.9979943,61.7001951 C23.3013982,62.0070571 23.4533663,62.4449032 23.4533663,63.0145256 C23.4533663,63.1381155 23.4451158,63.2791347 23.4283488,63.4373191 C23.4118479,63.5955036 23.3908225,63.7241109 23.3660711,63.8231413 L20.7293849,63.8231413 Z M21.6568959,62.0942038 C21.3769127,62.0942038 21.1565456,62.1768611 20.9955287,62.3419116 C20.8347778,62.5069622 20.7434905,62.7475399 20.7211344,63.0639088 L22.3887913,63.0639088 L22.3887913,62.9194565 C22.3887913,62.369376 22.1447374,62.0942038 21.6568959,62.0942038 Z M26.3226622,65.6014619 C26.0841974,65.6952106 25.8289655,65.7419529 25.5574989,65.7419529 C24.789408,65.7419529 24.4053625,65.3167827 24.4053625,64.4669704 L24.4053625,59.4285714 L25.6487862,59.4285714 L25.6487862,64.3679401 C25.6487862,64.5245401 25.6759329,64.635454 25.72996,64.6998898 C25.7839872,64.7645896 25.8734115,64.7970715 25.998233,64.7970715 C26.0786084,64.7970715 26.1866627,64.7886209 26.3226622,64.7722479 L26.3226622,65.6014619 Z M28.1047608,63.8231413 C28.1271169,64.1973439 28.2399619,64.4669704 28.443828,64.632021 C28.6476941,64.7970715 28.9683973,64.8794648 29.40647,64.8794648 C29.7862571,64.8794648 30.2285881,64.8092193 30.7329305,64.6689923 L30.7329305,65.4902838 C30.5362503,65.591955 30.2999146,65.6711792 30.0239235,65.7274285 C29.7481986,65.7839418 29.4634247,65.8119343 29.1693359,65.8119343 C28.4459571,65.8119343 27.8955718,65.6173067 27.5184461,65.2280515 C27.1415866,64.8387963 26.9528906,64.2702302 26.9528906,63.521825 C26.9528906,62.8011483 27.1399897,62.2407687 27.514454,61.8404221 C27.8886521,61.4403395 28.4084309,61.2401662 29.0737903,61.2401662 C29.6366843,61.2401662 30.0697002,61.3935972 30.3733703,61.7001951 C30.6770403,62.0070571 30.8287422,62.4449032 30.8287422,63.0145256 C30.8287422,63.1381155 30.8204918,63.2791347 30.8037247,63.4373191 C30.7872238,63.5955036 30.7661985,63.7241109 30.7414471,63.8231413 L28.1047608,63.8231413 Z M29.0322719,62.0942038 C28.7522886,62.0942038 28.5319216,62.1768611 28.3709046,62.3419116 C28.2101538,62.5069622 28.1188665,62.7475399 28.0965104,63.0639088 L29.7641672,63.0639088 L29.7641672,62.9194565 C29.7641672,62.369376 29.5201134,62.0942038 29.0322719,62.0942038 Z M34.9246948,65.4984703 C34.7721944,65.5893142 34.5877567,65.6587674 34.371648,65.7068301 C34.1552731,65.7548929 33.9309139,65.7789242 33.6980381,65.7789242 C33.0047336,65.7789242 32.4753737,65.5872015 32.109426,65.203492 C31.7434784,64.8197825 31.5603714,64.2673253 31.5603714,63.5466486 C31.5603714,62.8315176 31.753858,62.2737788 32.1405649,61.8734322 C32.5272717,61.4733496 33.0630191,61.2731763 33.747807,61.2731763 C34.1637897,61.2731763 34.547569,61.3624357 34.8996772,61.5412184 L34.8996772,62.3625099 C34.5643361,62.2661204 34.2580046,62.2180577 33.9806828,62.2180577 C33.5814672,62.2180577 33.2884429,62.3184084 33.1010777,62.519374 C32.9139786,62.7200755 32.8205622,63.0364443 32.8205622,63.4682166 L32.8205622,63.5878452 C32.8205622,64.0169766 32.9126479,64.3314969 33.0970855,64.530878 C33.2815232,64.7302591 33.5676277,64.8300816 33.9556653,64.8300816 C34.2329871,64.8300816 34.5560856,64.779114 34.9246948,64.6771788 L34.9246948,65.4984703 Z M38.4,65.5726771 C38.0923378,65.6909853 37.7484801,65.7501394 37.3686929,65.7501394 C36.8861743,65.7501394 36.5300739,65.6381691 36.2998596,65.4139645 C36.0699114,65.1897598 35.9546711,64.840909 35.9546711,64.3679401 L35.9546711,62.2798526 L35.2978283,62.2798526 L35.2978283,61.5166589 L35.9879391,61.3846185 L36.1753043,60.2002157 L37.1980948,60.2002157 L37.1980948,61.3640202 L38.3749825,61.3640202 L38.3749825,62.2798526 L37.1980948,62.2798526 L37.1980948,64.3058811 C37.1980948,64.4875687 37.2438715,64.6148557 37.335425,64.687742 C37.4269784,64.7606284 37.5808095,64.7970715 37.7969182,64.7970715 C37.9717747,64.7970715 38.1727132,64.7804344 38.4,64.7474243 L38.4,65.5726771 L38.4,65.5726771 Z" id="Fill-35" fill="#535B64"></path>
                    <path d="M19.0532751,83.8171825 C18.8706818,83.8171825 18.7793851,83.7267799 18.7793851,83.5462414 L18.7793851,72.212585 L14.902196,72.212585 C14.7196027,72.212585 14.6285714,72.1211157 14.6285714,71.9376438 L14.6285714,71.5210986 C14.6285714,71.3405601 14.7196027,71.2501576 14.902196,71.2501576 L23.726656,71.2501576 C23.90633,71.2501576 23.9962997,71.3405601 23.9962997,71.5210986 L23.9962997,71.9376438 C23.9962997,72.1211157 23.90633,72.212585 23.726656,72.212585 L19.8452206,72.212585 L19.8452206,83.5462414 C19.8452206,83.7267799 19.7552509,83.8171825 19.575577,83.8171825 L19.0532751,83.8171825 Z M29.5709698,84.0881236 C28.1418054,84.0881236 27.0656194,83.6803786 26.3426772,82.8651554 C25.6197349,82.0496655 25.2582638,80.8378976 25.2582638,79.2295851 C25.2582638,77.7074083 25.6226543,76.5260413 26.3509045,75.6857507 C27.0794201,74.8454601 28.0988111,74.4251814 29.4093429,74.4251814 C30.5041067,74.4251814 31.3430276,74.739057 31.9263708,75.3668083 C32.5097141,75.9948262 32.8013857,76.8948518 32.8013857,78.0668852 C32.8013857,78.5503657 32.7780307,78.9143761 32.7310554,79.1586497 C32.6949614,79.3391882 32.5927834,79.4295908 32.4239908,79.4295908 L26.3073793,79.4295908 C26.318526,80.6989603 26.59507,81.635787 27.1367459,82.2400709 C27.6786871,82.8443548 28.514954,83.14623 29.6458119,83.14623 C30.5110071,83.14623 31.3348003,82.9950257 32.1171915,82.6920838 C32.2748375,82.6310154 32.3825888,82.6003478 32.4407108,82.6003478 C32.4903401,82.6003478 32.5333344,82.6219484 32.5691631,82.6651497 C32.6052571,82.7080842 32.6230387,82.7600857 32.6230387,82.8214208 L32.6230387,83.0920952 C32.6230387,83.2865007 32.5566894,83.4129043 32.4239908,83.471306 C31.5587956,83.8825177 30.6078771,84.0881236 29.5709698,84.0881236 Z M31.7936722,78.5962337 C31.8048189,78.4266288 31.8103922,78.2266231 31.8103922,77.9962166 C31.8103922,77.1265918 31.5996668,76.4684397 31.1779505,76.0212269 C30.7562342,75.5740142 30.1378585,75.3502745 29.3222926,75.3502745 C27.4201902,75.3502745 26.415396,76.432172 26.3073793,78.5962337 L31.7936722,78.5962337 Z M38.8654485,84.0171882 C37.4721127,84.0171882 36.4139737,83.6150434 35.6910314,82.8110205 C34.9680892,82.0067309 34.6066181,80.8253639 34.6066181,79.2669195 C34.6066181,77.7196753 34.9736626,76.537775 35.7077515,75.7212184 C36.441575,74.9043951 37.5066143,74.4961168 38.9028695,74.4961168 C39.5634433,74.4961168 40.1953543,74.6113201 40.7978062,74.8419933 C40.9416515,74.8891946 41.0135742,75.0155983 41.0135742,75.2212041 L41.0135742,75.4753447 C41.0135742,75.6334825 40.9416515,75.7126848 40.7978062,75.7126848 C40.7619775,75.7126848 40.7171254,75.7065513 40.6632497,75.6940176 C40.6093741,75.6814839 40.5215276,75.6628167 40.3997102,75.6377493 C39.9188103,75.5182792 39.437645,75.4585442 38.9567451,75.4585442 C37.815006,75.4585442 36.9882934,75.7516192 36.4768728,76.3377693 C35.9654522,76.9239193 35.7098746,77.8642128 35.7098746,79.1586497 L35.7098746,79.3754559 C35.7098746,80.6309583 35.9683716,81.5581848 36.4851001,82.1566018 C37.0020941,82.7552856 37.813679,83.0547608 38.9193241,83.0547608 C39.3893427,83.0547608 39.913237,82.9768919 40.4910069,82.8214208 C40.6237055,82.7851531 40.7171254,82.7608857 40.771001,82.748352 C40.8248767,82.7358183 40.8697288,82.7296848 40.9058229,82.7296848 C41.0494028,82.7296848 41.1213255,82.8075537 41.1213255,82.9630248 L41.1213255,83.2171654 C41.1213255,83.4115709 41.0563031,83.5393079 40.9265238,83.6003763 C40.2630306,83.8782509 39.575917,84.0171882 38.8654485,84.0171882 Z M43.4881385,83.8171825 C43.3058106,83.8171825 43.2145139,83.7267799 43.2145139,83.5462414 L43.2145139,70.6709411 C43.2145139,70.4904026 43.3058106,70.4 43.4881385,70.4 L43.9732848,70.4 C44.1558781,70.4 44.2471748,70.4904026 44.2471748,70.6709411 L44.2471748,75.7294853 C44.835826,75.3182735 45.4518131,74.9982644 46.0946053,74.7689246 C46.7371322,74.5398514 47.365593,74.4251814 47.9791915,74.4251814 C48.8584528,74.4251814 49.5293771,74.6579881 49.9924954,75.123068 C50.4556137,75.5884146 50.6870401,76.2740341 50.6870401,77.1793933 L50.6870401,83.5462414 C50.6870401,83.7267799 50.5973358,83.8171825 50.4176619,83.8171825 L49.9282692,83.8171825 C49.7485953,83.8171825 49.6586256,83.7267799 49.6586256,83.5462414 L49.6586256,77.6170057 C49.6586256,76.83085 49.5086761,76.259367 49.2087772,75.9022902 C48.9088782,75.54548 48.4271822,75.3668083 47.7636889,75.3668083 C46.5609084,75.3668083 45.3889139,75.7529526 44.2471748,76.5252413 L44.2471748,83.5462414 C44.2471748,83.7267799 44.1558781,83.8171825 43.9732848,83.8171825 L43.4881385,83.8171825 Z M53.7388436,83.8171825 C53.5565156,83.8171825 53.465219,83.7267799 53.465219,83.5462414 L53.465219,74.9670635 C53.465219,74.7862584 53.5565156,74.6961225 53.7388436,74.6961225 L54.0997839,74.6961225 C54.2903392,74.6961225 54.3927825,74.7862584 54.4065832,74.9670635 L54.4771789,75.7460191 C55.0658301,75.3238737 55.6852673,74.9982644 56.3349599,74.7689246 C56.9843871,74.5398514 57.616298,74.4251814 58.2298966,74.4251814 C59.1091578,74.4251814 59.7800822,74.6579881 60.2432005,75.123068 C60.7063187,75.5884146 60.9377452,76.2740341 60.9377452,77.1793933 L60.9377452,83.5462414 C60.9377452,83.7267799 60.8480409,83.8171825 60.6683669,83.8171825 L60.1789743,83.8171825 C59.9993003,83.8171825 59.9093307,83.7267799 59.9093307,83.5462414 L59.9093307,77.6170057 C59.9093307,76.83085 59.7593812,76.259367 59.4594823,75.9022902 C59.1595833,75.54548 58.6778872,75.3668083 58.014394,75.3668083 C56.8116135,75.3668083 55.639619,75.7529526 54.4978798,76.5252413 L54.4978798,83.5462414 C54.4978798,83.7267799 54.4065832,83.8171825 54.2239898,83.8171825 L53.7388436,83.8171825 Z M67.4357325,84.0881236 C66.1114,84.0881236 65.0824547,83.6622448 64.3483658,82.8110205 C63.6142769,81.9595295 63.2472324,80.771229 63.2472324,79.2461189 C63.2472324,77.7239421 63.6142769,76.5399084 64.3483658,75.6940176 C65.0824547,74.8481268 66.1114,74.4251814 67.4357325,74.4251814 C68.7597996,74.4251814 69.7890103,74.8481268 70.5230992,75.6940176 C71.2569227,76.5399084 71.6239672,77.7239421 71.6239672,79.2461189 C71.6239672,80.771229 71.2569227,81.9595295 70.5230992,82.8110205 C69.7890103,83.6622448 68.7597996,84.0881236 67.4357325,84.0881236 Z M67.4357325,83.14623 C69.5172435,83.14623 70.5581317,81.846193 70.5581317,79.2461189 C70.5581317,76.6599118 69.5172435,75.3668083 67.4357325,75.3668083 C65.3539561,75.3668083 64.313068,76.6599118 64.313068,79.2461189 C64.313068,81.846193 65.3539561,83.14623 67.4357325,83.14623 Z M75.5008909,83.8713174 C75.019991,83.8713174 74.643923,83.7297133 74.3729524,83.4462386 C74.1019817,83.1630305 73.9666291,82.7670192 73.9666291,82.2587381 L73.9666291,70.6709411 C73.9666291,70.4904026 74.0579258,70.4 74.2402537,70.4 L74.7254,70.4 C74.9079933,70.4 74.99929,70.4904026 74.99929,70.6709411 L74.99929,82.2379375 C74.99929,82.5046118 75.0502463,82.6920838 75.1526896,82.8003535 C75.2548676,82.9088899 75.4374609,82.9630248 75.6999388,82.9630248 C75.7718615,82.9630248 75.8533385,82.9574247 75.9446351,82.9462243 C76.0359318,82.9352907 76.1105084,82.9296905 76.1686305,82.9296905 C76.3371577,82.9296905 76.4215541,83.014493 76.4215541,83.1838311 L76.4215541,83.5254409 C76.4215541,83.6726451 76.3440581,83.764381 76.1893314,83.800382 C75.9958568,83.84785 75.7662882,83.8713174 75.5008909,83.8713174 Z M82.1981916,84.0881236 C80.8738591,84.0881236 79.8449138,83.6622448 79.1108249,82.8110205 C78.3767359,81.9595295 78.0096915,80.771229 78.0096915,79.2461189 C78.0096915,77.7239421 78.3767359,76.5399084 79.1108249,75.6940176 C79.8449138,74.8481268 80.8738591,74.4251814 82.1981916,74.4251814 C83.5222587,74.4251814 84.5514694,74.8481268 85.2855583,75.6940176 C86.0193818,76.5399084 86.3864263,77.7239421 86.3864263,79.2461189 C86.3864263,80.771229 86.0193818,81.9595295 85.2855583,82.8110205 C84.5514694,83.6622448 83.5222587,84.0881236 82.1981916,84.0881236 Z M82.1981916,83.14623 C84.2797025,83.14623 85.3205907,81.846193 85.3205907,79.2461189 C85.3205907,76.6599118 84.2797025,75.3668083 82.1981916,75.3668083 C80.1164152,75.3668083 79.075527,76.6599118 79.075527,79.2461189 C79.075527,81.846193 80.1164152,83.14623 82.1981916,83.14623 Z M91.9263294,87.7714286 C91.4204821,87.7714286 90.9268432,87.7199604 90.4459433,87.6172908 C89.964778,87.5146213 89.5433271,87.3714172 89.1810598,87.1882119 C89.0483611,87.1298103 88.9820118,87.0034067 88.9820118,86.8090011 L88.9820118,86.5548606 C88.9820118,86.3991228 89.0483611,86.3215206 89.1810598,86.3215206 C89.2171538,86.3215206 89.2564326,86.3268541 89.2994269,86.3380544 C89.3421559,86.3492547 89.4175287,86.372722 89.52528,86.4089897 C90.3795939,86.6865976 91.1619852,86.8255349 91.8724537,86.8255349 C92.9892455,86.8255349 93.8095886,86.547927 94.3334828,85.9921778 C94.8573771,85.4366953 95.1193242,84.560137 95.1193242,83.3630362 L95.1193242,82.4755443 C94.6742529,82.8504883 94.1808794,83.1470301 93.6389381,83.3651696 C93.0972622,83.5830425 92.5802683,83.6921123 92.0879563,83.6921123 C90.9324165,83.6921123 90.0056491,83.2777005 89.3076543,82.4483435 C88.6096594,81.6192532 88.2606619,80.5226886 88.2606619,79.1586497 C88.2606619,77.6948746 88.60674,76.5399084 89.2994269,75.6940176 C89.9918485,74.8481268 90.9337435,74.4251814 92.1253773,74.4251814 C93.2559698,74.4251814 94.2597024,74.8294596 95.1360442,75.6377493 L95.2106209,74.9670635 C95.2355682,74.7862584 95.3377462,74.6961225 95.5174201,74.6961225 L95.8783605,74.6961225 C96.0580344,74.6961225 96.1477387,74.7862584 96.1477387,74.9670635 L96.1477387,83.4003706 C96.1477387,84.8254779 95.7870638,85.9103088 95.0654485,86.6548634 C94.3438333,87.3991513 93.2976372,87.7714286 91.9263294,87.7714286 Z M92.3244253,82.7462186 C93.2257145,82.7462186 94.157259,82.3600743 95.1193242,81.5880523 L95.1193242,76.5460419 C94.6272776,76.1350968 94.1524819,75.8356216 93.6949369,75.6481496 C93.237392,75.4606776 92.7501226,75.3668083 92.2331286,75.3668083 C91.2710634,75.3668083 90.5462634,75.6814839 90.0581978,76.3108352 C89.5701322,76.9399198 89.3262321,77.869813 89.3262321,79.100248 C89.3262321,80.2864152 89.5820751,81.1907076 90.0934957,81.8128587 C90.6049162,82.4352764 91.3485595,82.7462186 92.3244253,82.7462186 Z M99.2895119,87.7714286 C98.9991672,87.7714286 98.7226233,87.728494 98.4601453,87.6423582 C98.277552,87.5951569 98.1862553,87.4743534 98.1862553,87.2796812 L98.1862553,87.0255406 C98.1862553,86.8700695 98.259505,86.7922007 98.4060043,86.7922007 C98.4779269,86.7922007 98.5437455,86.7978008 98.6031945,86.8090011 C98.6626435,86.8199348 98.7406703,86.8290017 98.8372749,86.8359352 C98.9341449,86.8428688 99.0599432,86.8463355 99.2146698,86.8463355 C99.6127658,86.8463355 99.9293847,86.7436659 100.164261,86.5380601 C100.399403,86.3324542 100.624726,85.9631104 100.840228,85.4297618 L101.454092,83.9089185 L97.900157,75.1294682 C97.8505277,75.0099981 97.8255804,74.9321292 97.8255804,74.8961282 C97.8255804,74.762791 97.8988301,74.6961225 98.0453294,74.6961225 L98.6217723,74.6961225 C98.7764989,74.6961225 98.8789423,74.7753247 98.9285716,74.9337293 L101.943485,82.7296848 L104.991307,74.9337293 C105.038283,74.7753247 105.140461,74.6961225 105.298107,74.6961225 L105.841375,74.6961225 C105.98522,74.6961225 106.057143,74.762791 106.057143,74.8961282 C106.057143,74.9321292 106.032196,75.0099981 105.982301,75.1294682 L101.72347,85.7380373 C101.424898,86.4769917 101.089171,87.0004733 100.716022,87.3090154 C100.342608,87.6172908 99.8672818,87.7714286 99.2895119,87.7714286 L99.2895119,87.7714286 Z" id="Fill-36" fill="#535B64"></path>
                    <path d="M15.8093371,103.044146 C15.6317712,103.044146 15.5428571,102.954011 15.5428571,102.774006 L15.5428571,90.7844255 C15.5428571,90.6044209 15.6317712,90.5142857 15.8093371,90.5142857 L19.8049632,90.5142857 C20.9361918,90.5142857 21.8371354,90.8514287 22.5077942,91.5259805 C23.178453,92.2002665 23.5139135,93.1053412 23.5139135,94.2409387 C23.5139135,95.3597854 23.178453,96.2571494 22.5077942,96.9330307 C21.8371354,97.608646 20.9361918,97.9465867 19.8049632,97.9465867 L16.5592055,97.9465867 L16.5592055,102.774006 C16.5592055,102.954011 16.4705537,103.044146 16.2929878,103.044146 L15.8093371,103.044146 Z M19.7682435,96.9870054 C21.5276409,96.9870054 22.4073396,96.0715612 22.4073396,94.2409387 C22.4073396,92.3962242 21.5276409,91.4738669 19.7682435,91.4738669 L16.5592055,91.4738669 L16.5592055,96.9870054 L19.7682435,96.9870054 Z M27.867032,103.24356 C27.0473962,103.24356 26.3964087,103.005327 25.9143317,102.529125 C25.4319924,102.052658 25.1909539,101.416926 25.1909539,100.622194 C25.1909539,99.7413147 25.4881211,99.0481508 26.0821931,98.5427022 C26.6765274,98.0372537 27.4859341,97.7846623 28.5104133,97.7846623 C29.3056567,97.7846623 30.1551928,97.9231887 31.0595461,98.1999757 L31.0595461,96.6793758 C31.0595461,95.9455314 30.8874882,95.4185461 30.54311,95.0986857 C30.1989941,94.7788253 29.6280031,94.6187621 28.8301368,94.6187621 C28.0215169,94.6187621 27.1538833,94.7697852 26.2277604,95.0718313 C26.1186505,95.1077258 26.028425,95.125806 25.9573462,95.125806 C25.8398432,95.125806 25.7810917,95.046838 25.7810917,94.8889019 L25.7810917,94.6022772 C25.7810917,94.505229 25.7989269,94.4299834 25.8343352,94.3757427 C25.8700058,94.3217679 25.9287573,94.2768332 26.0105897,94.2409387 C26.9503513,93.8668376 27.9436187,93.67992 28.9898674,93.67992 C30.0363784,93.67992 30.8122128,93.902998 31.3176331,94.3488882 C31.8230533,94.7947784 32.0758945,95.4690644 32.0758945,96.372012 L32.0758945,102.774006 C32.0758945,102.954011 31.9869804,103.044146 31.8094145,103.044146 L31.4325132,103.044146 C31.2549473,103.044146 31.1605253,102.954011 31.1497716,102.774006 L31.07607,101.997354 C30.0542137,102.827981 28.9846218,103.24356 27.867032,103.24356 Z M28.010501,102.304718 C28.4613663,102.304718 28.9484266,102.211126 29.4714198,102.024209 C29.9946753,101.837291 30.5239633,101.574862 31.0595461,101.236921 L31.0595461,98.9768935 C30.2616799,98.7580696 29.4884683,98.6487906 28.7399113,98.6487906 C27.0762474,98.6487906 26.2442842,99.2996786 26.2442842,100.601455 C26.2442842,101.157953 26.392999,101.580977 26.690953,101.870527 C26.9886447,102.15981 27.428494,102.304718 28.010501,102.304718 Z M35.0913674,103.044146 C34.9111786,103.044146 34.8209531,102.954011 34.8209531,102.774006 L34.8209531,94.2199337 C34.8209531,94.0399291 34.9111786,93.9500598 35.0913674,93.9500598 L35.4273525,93.9500598 C35.6188194,93.9500598 35.7197985,94.0399291 35.7308144,94.2199337 L35.8207776,95.2712455 C36.274528,94.7642016 36.717787,94.4055219 37.150817,94.1952063 C37.583847,93.9846249 38.0735302,93.8793342 38.6198666,93.8793342 C38.8113335,93.8793342 38.9668676,93.8849178 39.0872557,93.896085 C39.2648216,93.9069863 39.3534734,94.0040346 39.3534734,94.186698 L39.3534734,94.6355129 C39.3534734,94.6852336 39.3359005,94.7309659 39.3002299,94.7727099 C39.2648216,94.8141881 39.2168238,94.8349272 39.1567609,94.8349272 C39.0612897,94.8349272 38.9715887,94.8322683 38.8884449,94.8266847 C38.8050387,94.8211011 38.6801918,94.8181764 38.5133795,94.8181764 C37.9670431,94.8181764 37.4826056,94.9208082 37.0605915,95.125806 C36.6385774,95.3308039 36.2320381,95.6615656 35.841498,96.118623 L35.841498,102.774006 C35.841498,102.954011 35.7512725,103.044146 35.5708215,103.044146 L35.0913674,103.044146 Z M43.7225912,103.152095 C43.0204584,103.152095 42.4848756,102.962519 42.116105,102.5831 C41.7473345,102.203681 41.562687,101.652501 41.562687,100.929558 L41.562687,94.8556662 L40.1571099,94.8556662 C39.9769212,94.8556662 39.8866957,94.7642016 39.8866957,94.5815382 L39.8866957,94.402863 C39.8866957,94.3058148 39.904531,94.233228 39.9399392,94.1848368 C39.9753475,94.1361797 40.0477377,94.1064005 40.1571099,94.0954992 L41.5996689,93.9665447 L41.7266141,91.5820824 C41.73763,91.4850341 41.7635961,91.4159039 41.8045123,91.3741598 C41.8456908,91.3326817 41.9083765,91.3119426 41.9930941,91.3119426 L42.3128176,91.3119426 C42.4903835,91.3119426 42.5790353,91.4020778 42.5790353,91.5820824 L42.5790353,93.9500598 L45.1690844,93.9500598 C45.3469126,93.9500598 45.4355644,94.0399291 45.4355644,94.2199337 L45.4355644,94.5815382 C45.4355644,94.7642016 45.3469126,94.8556662 45.1690844,94.8556662 L42.5790353,94.8556662 L42.5790353,100.875583 C42.5790353,101.368535 42.6836864,101.717377 42.8927263,101.922374 C43.1017662,102.127372 43.4492918,102.229738 43.9355653,102.229738 C44.2799435,102.229738 44.5831432,102.199427 44.8454266,102.138539 C44.9765684,102.116205 45.0812195,102.096264 45.1588554,102.078183 C45.2367535,102.060103 45.2934068,102.051329 45.3290773,102.051329 C45.460219,102.051329 45.5257899,102.123118 45.5257899,102.267228 L45.5257899,102.537368 C45.5257899,102.742366 45.460219,102.869725 45.3290773,102.919446 C44.8645733,103.074723 44.3289905,103.152095 43.7225912,103.152095 Z M47.6830713,103.044146 C47.5028826,103.044146 47.4126571,102.954011 47.4126571,102.774006 L47.4126571,94.2199337 C47.4126571,94.0399291 47.5028826,93.9500598 47.6830713,93.9500598 L48.0397768,93.9500598 C48.2280963,93.9500598 48.3293377,94.0399291 48.3429765,94.2199337 L48.4127439,94.9968515 C48.9944886,94.5759546 49.6066581,94.2513082 50.248728,94.0226466 C50.8905356,93.7942508 51.5150325,93.67992 52.1214319,93.67992 C52.9903769,93.67992 53.6534295,93.9120381 54.1111141,94.3757427 C54.5687987,94.8397131 54.7975099,95.5233051 54.7975099,96.4259868 L54.7975099,102.774006 C54.7975099,102.954011 54.7088581,103.044146 54.5312922,103.044146 L54.0476415,103.044146 C53.8700756,103.044146 53.7811615,102.954011 53.7811615,102.774006 L53.7811615,96.8623051 C53.7811615,96.0784742 53.6329714,95.5086813 53.3365911,95.1526605 C53.0402108,94.7969055 52.5641663,94.6187621 51.9084577,94.6187621 C50.7197891,94.6187621 49.5615454,95.0037645 48.433202,95.7737693 L48.433202,102.774006 C48.433202,102.954011 48.3429765,103.044146 48.1625254,103.044146 L47.6830713,103.044146 Z M61.3420066,103.314286 C59.9296102,103.314286 58.8660508,102.907747 58.1515907,102.094934 C57.4371306,101.281856 57.0799005,100.073672 57.0799005,98.4701155 C57.0799005,96.9524403 57.4400157,95.774567 58.1599838,94.9367614 C58.8796896,94.0989557 59.8873826,93.67992 61.182276,93.67992 C62.2641952,93.67992 63.0935355,93.9928674 63.6697722,94.6187621 C64.2462713,95.2449228 64.5345208,96.1422868 64.5345208,97.3108541 C64.5345208,97.7929048 64.5114398,98.1558387 64.4650157,98.3993899 C64.4293451,98.5793945 64.328366,98.6695297 64.1615537,98.6695297 L58.1169693,98.6695297 C58.1277229,99.9351453 58.4010223,100.869201 58.9366051,101.471698 C59.4719256,102.074195 60.2983807,102.375178 61.4159705,102.375178 C62.2710146,102.375178 63.0851424,102.224421 63.858354,101.922374 C64.0141504,101.861487 64.1206375,101.831176 64.1780776,101.831176 C64.2271246,101.831176 64.2696145,101.852447 64.3050228,101.89552 C64.3406933,101.938328 64.3582663,101.990175 64.3582663,102.051329 L64.3582663,102.321203 C64.3582663,102.515034 64.2926954,102.641063 64.1615537,102.699292 C63.3065097,103.109288 62.366748,103.314286 61.3420066,103.314286 Z M63.5386305,97.8386371 C63.5496464,97.6695338 63.5551544,97.4701196 63.5551544,97.2403944 C63.5551544,96.3733414 63.3469013,95.7171357 62.9301329,95.2712455 C62.5136268,94.8253553 61.9022441,94.6022772 61.096247,94.6022772 C59.2164615,94.6022772 58.2234564,95.6809752 58.1169693,97.8386371 L63.5386305,97.8386371 Z M67.0521796,103.044146 C66.8719909,103.044146 66.7817654,102.954011 66.7817654,102.774006 L66.7817654,94.2199337 C66.7817654,94.0399291 66.8719909,93.9500598 67.0521796,93.9500598 L67.388427,93.9500598 C67.5796316,93.9500598 67.6806108,94.0399291 67.6916267,94.2199337 L67.7818522,95.2712455 C68.2353403,94.7642016 68.6785993,94.4055219 69.1116293,94.1952063 C69.5446593,93.9846249 70.0343425,93.8793342 70.5806789,93.8793342 C70.7721458,93.8793342 70.9276799,93.8849178 71.048068,93.896085 C71.2256339,93.9069863 71.3142857,94.0040346 71.3142857,94.186698 L71.3142857,94.6355129 C71.3142857,94.6852336 71.2967127,94.7309659 71.2610422,94.7727099 C71.2256339,94.8141881 71.1778983,94.8349272 71.1175731,94.8349272 C71.0221019,94.8349272 70.9326633,94.8322683 70.8492572,94.8266847 C70.765851,94.8211011 70.6410041,94.8181764 70.4741918,94.8181764 C69.9278554,94.8181764 69.4436801,94.9208082 69.0214038,95.125806 C68.5993897,95.3308039 68.1928504,95.6615656 67.8023103,96.118623 L67.8023103,102.774006 C67.8023103,102.954011 67.7120848,103.044146 67.5316338,103.044146 L67.0521796,103.044146 L67.0521796,103.044146 Z" id="Fill-37" fill="#535B64"></path>
                </g>
            </g>
        </g>
    </g>
</svg>