<?xml version="1.0" encoding="UTF-8"?>
<svg width="258px" height="140px" viewBox="0 0 258 140" version="1.1" xmlns="http://www.w3.org/2000/svg" xmlns:xlink="http://www.w3.org/1999/xlink">
    <title>6</title>
    <defs>
        <polygon id="path-1" points="0.286234213 0.358328 41.6353072 0.358328 41.6353072 21.3924072 0.286234213 21.3924072"></polygon>
    </defs>
    <g id="首页*" stroke="none" stroke-width="1" fill="none" fill-rule="evenodd">
        <g id="国内版logo展示" transform="translate(-430.000000, -275.000000)">
            <g id="6" transform="translate(430.000000, 275.000000)">
                <rect id="矩形备份-14" fill="#FFFFFF" x="0" y="0" width="258" height="140" rx="8"></rect>
                <g id="编组" transform="translate(35.000000, 40.000000)">
                    <g transform="translate(42.864000, 0.017672)">
                        <mask id="mask-2" fill="white">
                            <use xlink:href="#path-1"></use>
                        </mask>
                        <g id="Clip-2"></g>
                        <path d="M11.6410352,11.4893192 C11.5049232,11.6562632 11.4184432,11.8702072 11.4184432,12.1037032 C11.4184432,12.6346152 11.8512192,13.0647592 12.3798752,13.0647592 L30.4729952,13.0655112 C30.7403312,13.0655112 30.9554032,13.2802072 30.9554032,13.5464152 C30.9554032,13.6648552 30.9106592,13.7723912 30.8407232,13.8581192 L25.6673392,20.0241432 C24.9612112,20.8611192 23.9061552,21.3924072 22.7236352,21.3924072 L15.1731792,21.3924072 C9.4320352,21.3924072 5.2753552,21.3924072 2.4839312,19.1961912 C-0.7853888,16.6232232 -0.2243968,11.9672152 2.9595712,7.9846232 C6.5830832,3.4493112 10.4009872,0.3582152 17.7175712,0.3582152 L41.1532752,0.3582152 C41.4217392,0.3582152 41.6353072,0.5725352 41.6353072,0.8383672 C41.6353072,0.9485352 41.5984592,1.0500552 41.5360432,1.1323992 L36.5476512,7.0645512 C35.8407712,7.9067912 34.7830832,8.4440952 33.5956752,8.4440952 L15.5454192,8.4440952 C14.6460272,8.4440952 13.8455232,8.8535592 13.3176192,9.4968952 L11.6410352,11.4893192 Z" id="Fill-1" fill="#EF6523" mask="url(#mask-2)"></path>
                    </g>
                    <path d="M93.5862872,0.3760752 C91.9491832,0.3760752 90.4876712,1.1205552 89.5228552,2.2914192 L89.5142072,2.2869072 L64.6997112,31.8299792 C64.6414312,31.9100672 64.6060872,32.0093312 64.6042072,32.1172432 C64.6042072,32.3823232 64.8200312,32.5951392 65.0884952,32.5951392 L74.1782952,32.5951392 C75.3514152,32.5951392 76.3993272,32.0721232 77.1062072,31.2468032 L93.8006072,11.3718192 C95.2068472,9.6880912 97.3248552,8.6183712 99.6940312,8.6183712 L101.148775,8.6183712 C101.417615,8.6183712 101.631183,8.8326912 101.631183,9.0985232 C101.631183,9.2192192 101.584559,9.3297632 101.513119,9.4143632 L90.1425032,22.9526192 C90.0800872,23.0327072 90.0447432,23.1338512 90.0447432,23.2413872 C90.0447432,23.5079712 90.2590632,23.7237952 90.5248952,23.7237952 L100.064767,23.7237952 C100.952503,23.7237952 101.747743,23.3203472 102.275647,22.6901712 L111.812887,11.3357232 C113.221383,9.6734272 115.328111,8.6183712 117.678863,8.6183712 L119.137367,8.6183712 C119.403199,8.6183712 119.616391,8.8326912 119.616391,9.0985232 C119.616391,9.2109472 119.579167,9.3132192 119.515623,9.3940592 L108.132223,22.9435952 C108.068679,23.0255632 108.029199,23.1304672 108.029199,23.2413872 C108.029199,23.5079712 108.245023,23.7237952 108.510103,23.7237952 L115.807511,23.7237952 C118.175935,23.7237952 120.293191,22.6521952 121.704695,20.9699712 L131.295703,9.5617552 C131.824359,8.9819632 132.583503,8.6183712 133.428375,8.6183712 L151.964423,8.6183712 C154.348263,8.6183712 156.476423,7.5351152 157.889055,5.8348432 L161.805095,1.1709392 C161.878791,1.0867152 161.920903,0.9769232 161.920903,0.8566032 C161.920903,0.5900192 161.709215,0.3760752 161.443007,0.3760752 L94.3627272,0.3760752 L93.5862872,0.3760752 Z" id="Fill-3" fill="#EF6523"></path>
                    <path d="M86.7646696,59.4117224 L86.7646696,50.8400504 C86.7646696,46.7856424 84.5755976,44.4303784 80.0993176,44.4303784 C78.3892696,44.4303784 76.8484216,44.7740424 75.9193256,45.1169544 C73.9517176,45.8400024 74.2716936,46.8070744 75.1722136,48.2520424 C75.2620776,48.3990584 75.2891496,48.4686184 75.5233976,48.3783784 C76.8040536,47.8628824 78.0211656,47.5365144 79.6090136,47.5365144 C82.0206776,47.5365144 83.3310376,48.6848184 83.3415656,50.7795144 C83.3445736,50.9276584 83.3592376,51.1566424 83.1546936,51.0934744 C82.0421096,50.7535704 80.8919256,50.5166904 79.1487896,50.5166904 C75.6185256,50.5166904 73.0038216,52.1131864 73.0038216,55.4024344 C73.0038216,58.5202264 75.5324216,60.1358984 78.3994216,60.1358984 C80.6103016,60.1358984 82.1556616,59.2624504 83.1971816,58.1024904 C83.2720056,58.0152584 83.3171256,58.0784264 83.3197576,58.1551304 C83.3551016,59.0812184 84.1142456,59.8230664 85.0523656,59.8230664 L86.3661096,59.8230664 C86.7530136,59.8230664 86.7646696,59.6651464 86.7646696,59.4117224 M79.3781496,57.5253304 C77.7433016,57.5253304 76.4464776,56.7349784 76.4464776,55.2287224 C76.4464776,53.6792264 77.7433016,52.7922424 79.9252296,52.7922424 C81.1769336,52.7922424 82.3305016,53.0095704 83.2035736,53.3193944 C83.4588776,53.4085064 83.4002216,53.8619624 83.4002216,54.3379784 C83.4002216,56.2371544 81.6743816,57.5253304 79.3781496,57.5253304" id="Fill-5" fill="#595656"></path>
                    <path d="M12.1786024,55.6208904 C11.1442264,56.6327064 10.2158824,56.9647144 8.6351784,56.9647144 C5.9339944,56.9647144 3.6208424,54.9136344 3.7686104,52.1515384 C3.9306664,49.1600824 5.9016584,47.4349944 8.4603384,47.4349944 C10.4343384,47.4349944 11.7274024,48.1606744 12.4778984,48.8675544 C12.5993464,48.9784744 12.7068824,48.9784744 12.8001304,48.8983864 C12.9967784,48.7310664 13.3663864,48.3828904 13.5476184,48.1994024 C14.1390664,47.5978024 14.3033784,46.5265784 13.2471944,45.7663064 C11.7274024,44.7146344 9.6902344,44.1397304 7.4598024,44.4217304 C3.4084024,44.9319624 0.2578984,47.7745224 0.0123704,52.2105704 C-0.2455656,56.9015464 3.6140744,60.1776344 8.4603384,60.1776344 C10.5666904,60.1776344 12.0582824,59.5812984 13.2866744,58.6473144 C14.4812264,57.7362664 14.0695064,56.5770584 12.5218904,55.5870504 C12.4312744,55.5238824 12.2677144,55.5340344 12.1786024,55.6208904" id="Fill-7" fill="#595656"></path>
                    <path d="M97.4905584,44.3434472 C95.4387264,44.3434472 94.1061824,45.2755512 93.1564064,46.4689752 C93.0740624,46.5607192 92.9838224,46.6291512 92.8804224,46.6253912 C92.7649904,46.6227592 92.7559664,46.5133432 92.7559664,46.3749752 L92.7559664,42.1547512 C92.7559664,40.7710712 92.1491024,39.6716472 90.2788784,39.6716472 L89.5430464,39.6716472 C89.3945264,39.6716472 89.2749584,39.7900872 89.2749584,39.9397352 L89.2749584,58.8013992 C89.2749584,59.5455032 89.8558784,59.8229912 90.4586064,59.8229912 L92.4863744,59.8229912 C92.6333904,59.8229912 92.7559664,59.7034232 92.7559664,59.5575352 L92.7559664,51.2629752 C92.7559664,48.9129752 94.4175104,47.5041032 96.4313664,47.5041032 C98.4978624,47.5041032 99.4130464,48.8554472 99.4130464,51.2073272 L99.4085344,58.8013992 C99.4085344,59.5455032 99.9954704,59.8229912 100.594062,59.8229912 L102.62183,59.8229912 C102.770726,59.8229912 102.887286,59.7034232 102.887286,59.5575352 L102.887286,50.1725752 C102.887286,46.6430632 100.905014,44.3434472 97.4905584,44.3434472" id="Fill-9" fill="#595656"></path>
                    <path d="M59.0629448,51.1823232 L51.5324168,51.1823232 C51.4015688,51.1823232 51.2714728,51.0808032 51.2767368,50.9552192 C51.2767368,50.9010752 51.2940328,50.8439232 51.3056888,50.7886512 C51.7520008,48.6424432 53.4135448,47.1895792 55.4180008,47.1895792 C57.6119608,47.1895792 59.4081128,48.7379472 59.3238888,50.8856592 C59.3197528,50.9127312 59.3163688,50.9420592 59.3137368,50.9702592 C59.2986968,51.0935872 59.1889048,51.1823232 59.0629448,51.1823232 M55.3303928,44.3436352 C51.0000008,44.3436352 47.6667608,47.9043552 47.6667608,52.2682112 C47.6667608,57.2084752 50.6499448,60.1709792 55.5714088,60.1709792 C57.5980488,60.1709792 59.1968008,59.5723872 60.4744488,58.5842592 C61.8051128,57.3825632 61.6001928,56.4241392 59.9029288,55.6390512 C59.7623048,55.5713712 59.6043848,55.5724992 59.5325688,55.6473232 C58.3778728,56.7700592 57.2607768,57.3269152 55.6255528,57.3269152 C53.4985208,57.3269152 51.6493528,56.0342272 51.3056888,53.8342512 C51.2662088,53.5793232 51.4151048,53.4774272 51.5561048,53.4774272 L60.7820168,53.4774272 C62.0551528,53.4774272 62.4480728,53.2582192 62.5056008,52.9250832 C63.2098488,48.7086192 60.8064568,44.3436352 55.3303928,44.3436352" id="Fill-11" fill="#595656"></path>
                    <path d="M42.727136,51.1823232 L35.199992,51.1823232 C35.06764,51.1823232 34.9398,51.0808032 34.9431183,50.9552192 C34.9431183,50.9010752 34.9586,50.8439232 34.968752,50.7886512 C35.415816,48.6424432 37.07736,47.1895792 39.084072,47.1895792 C41.279536,47.1895792 43.073808,48.7379472 42.988832,50.8856592 C42.985448,50.9127312 42.985448,50.9420592 42.980936,50.9702592 C42.964392,51.0935872 42.854976,51.1823232 42.727136,51.1823232 M38.994584,44.3436352 C34.666448,44.3436352 31.338472,47.9043552 31.338472,52.2682112 C31.338472,57.2084752 34.314512,60.1709792 39.236728,60.1709792 C41.267128,60.1709792 42.862496,59.5723872 44.13676,58.5842592 C45.467048,57.3825632 45.270776,56.4241392 43.569,55.6390512 C43.424616,55.5713712 43.27008,55.5724992 43.195256,55.6473232 C42.0462,56.7700592 40.929104,57.3269152 39.292752,57.3269152 C37.163088,57.3269152 35.317304,56.0342272 34.974392,53.8342512 C34.933408,53.5793232 35.080048,53.4774272 35.219168,53.4774272 L44.447712,53.4774272 C45.71972,53.4774272 46.117152,53.2582192 46.1728,52.9250832 C46.874416,48.7086192 44.473656,44.3436352 38.994584,44.3436352" id="Fill-13" fill="#595656"></path>
                    <path d="M68.028928,47.6573232 L69.407344,47.6573232 C70.272896,47.6573232 71.039184,47.2644032 71.547536,46.6473872 L72.964304,44.9636592 C72.994384,44.9320752 73.003784,44.8925952 73.003784,44.8486032 C73.003784,44.7527232 72.929712,44.6748912 72.83308,44.6748912 L68.030056,44.6748912 L68.030056,43.8943152 C68.030056,42.5106352 67.429208,41.4119632 65.554848,41.4119632 L64.81488,41.4119632 C64.671248,41.4119632 64.553184,41.5288992 64.553184,41.6815552 L64.553184,55.6288992 C64.553184,58.9636432 66.357608,60.0833712 68.914032,60.0833712 C69.96044,60.0833712 70.798168,59.8964992 71.540016,59.5637392 C71.876912,59.4118352 72.046864,59.1655552 72.046864,58.6838992 L72.046864,56.7350912 C72.046864,56.5982272 71.914512,56.5301712 71.806224,56.5771712 C71.202368,56.8445072 70.577456,56.9828752 69.891256,56.9828752 C68.710616,56.9828752 68.022912,56.4316592 68.022912,55.0848272 L68.028928,47.6573232 Z" id="Fill-15" fill="#595656"></path>
                    <path d="M24.3795016,44.3434472 C22.3295496,44.3434472 20.9970056,45.2755512 20.0487336,46.4689752 C19.9637576,46.5607192 19.8765256,46.6291512 19.7704936,46.6253912 C19.6573176,46.6227592 19.6434056,46.5133432 19.6434056,46.3749752 L19.6434056,42.1547512 C19.6434056,40.7710712 19.0399256,39.6716472 17.1719576,39.6716472 L16.4342456,39.6716472 C16.2864776,39.6716472 16.1646536,39.7900872 16.1646536,39.9397352 L16.1646536,58.8013992 C16.1646536,59.5455032 16.7478296,59.8229912 17.3501816,59.8229912 L19.3734376,59.8229912 C19.5212056,59.8229912 19.6434056,59.7034232 19.6434056,59.5575352 L19.6434056,51.2629752 C19.6434056,48.9129752 21.3098376,47.5041032 23.3218136,47.5041032 C25.3898136,47.5041032 26.3057496,48.8554472 26.3057496,51.2073272 L26.3001096,58.8013992 C26.3001096,59.5455032 26.8851656,59.8229912 27.4822536,59.8229912 L29.5137816,59.8229912 C29.6596696,59.8229912 29.7799896,59.7034232 29.7799896,59.5575352 L29.7799896,50.1725752 C29.7799896,46.6430632 27.7928296,44.3434472 24.3795016,44.3434472" id="Fill-17" fill="#595656"></path>
                    <path d="M137.597726,58.3667056 C134.36563,58.3667056 131.82951,55.6899616 131.82951,52.2721216 C131.82951,48.7523856 134.230646,46.2000976 137.539446,46.2000976 C140.792974,46.2000976 143.343382,48.8930096 143.343382,52.3307776 C143.343382,55.7738096 140.873814,58.3667056 137.597726,58.3667056 M137.597726,44.4265056 C133.184238,44.4265056 129.721654,47.8981136 129.721654,52.3307776 C129.721654,56.7311056 133.15679,60.1775216 137.539446,60.1775216 C141.971734,60.1775216 145.442966,56.7062896 145.442966,52.2721216 C145.442966,47.8710416 141.999182,44.4265056 137.597726,44.4265056" id="Fill-19" fill="#595656"></path>
                    <path d="M155.119928,58.336588 C152.358584,58.336588 150.015728,56.250916 149.550616,53.3685 C149.523544,53.212084 149.462632,52.792092 149.462632,52.272084 C149.462632,48.490652 152.337904,46.231644 155.119928,46.231644 C158.308032,46.231644 160.624944,48.78506 160.624944,52.303668 C160.624944,55.861004 158.359168,58.336588 155.119928,58.336588 M155.527512,44.426468 C153.181648,44.426468 151.296008,45.522508 149.766064,47.780764 L149.546856,48.097356 L149.546856,41.198508 C149.546856,39.905068 149.03136,39.280156 147.971792,39.280156 L147.670616,39.280156 C147.581128,39.280156 147.509688,39.350092 147.509688,39.437324 L147.509688,58.622348 C147.509688,59.560468 147.724384,59.819156 148.507592,59.819156 L149.394952,59.819156 C149.509256,59.819156 149.546856,59.73418 149.546856,59.663492 L149.546856,56.630676 L149.766064,56.941628 C151.232464,59.06866 153.175632,60.14778 155.527512,60.14778 C159.021304,60.14778 162.726408,57.386436 162.726408,52.272084 C162.726408,47.174276 159.021304,44.426468 155.527512,44.426468" id="Fill-21" fill="#595656"></path>
                    <path d="M170.668092,59.8193064 L171.547556,59.8193064 C171.66186,59.8193064 171.7051,59.7339544 171.7051,59.6636424 L171.7051,41.1986584 C171.7051,39.8882984 171.20314,39.2803064 170.129284,39.2803064 L169.82698,39.2803064 C169.737116,39.2803064 169.665676,39.3502424 169.665676,39.4374744 L169.665676,58.6221224 C169.665676,59.5606184 169.879996,59.8193064 170.668092,59.8193064" id="Fill-23" fill="#595656"></path>
                    <path d="M175.846176,51.4327392 C176.153744,48.3047952 178.24844,46.1198592 180.931952,46.1198592 C183.693672,46.1198592 185.65564,48.2066592 185.929368,51.4327392 L185.93952,51.5628352 L175.834144,51.5628352 L175.846176,51.4327392 Z M186.624216,56.7174192 L186.173768,56.3087072 C184.761136,57.7495392 183.225176,58.4214512 181.345176,58.4214512 C178.365752,58.4214512 176.153744,56.3011872 175.846176,53.1424112 L175.834144,53.0115632 L187.978944,53.0115632 C188,52.7934832 188,52.5945792 188,52.4156032 C188,47.6434112 185.182256,44.4342512 180.99324,44.4342512 C176.876416,44.4342512 173.771408,47.8159952 173.771408,52.3031792 C173.771408,56.7877312 176.999744,60.1702272 181.284264,60.1702272 C183.39212,60.1702272 185.085624,59.5498272 186.614064,58.2202912 C186.852448,58.0142432 186.97728,57.7600672 186.979536,57.4840832 C186.98292,57.2047152 186.84756,56.9163232 186.624216,56.7174192 L186.624216,56.7174192 Z" id="Fill-25" fill="#595656"></path>
                    <path d="M165.97471,39.1341552 C165.334382,39.1341552 164.816254,39.6579232 164.816254,40.3016352 C164.816254,40.9423392 165.334382,41.4619712 165.97471,41.4619712 C166.619174,41.4619712 167.14031,40.9423392 167.14031,40.3016352 C167.14031,39.6579232 166.619174,39.1341552 165.97471,39.1341552" id="Fill-27" fill="#595656"></path>
                    <path d="M165.939478,59.8193064 L166.819694,59.8193064 C166.938134,59.8193064 166.980998,59.7339544 166.980998,59.6636424 L166.984382,45.5858264 C166.984382,45.0222024 166.529046,44.5616024 165.960534,44.5616024 L165.095734,44.5616024 C165.010006,44.5616024 164.941574,44.6322904 164.941574,44.7183944 L164.941574,58.6221224 C164.941574,59.5606184 165.154014,59.8193064 165.939478,59.8193064" id="Fill-29" fill="#595656"></path>
                    <path d="M126.56081,59.7976488 L127.437266,59.7976488 C127.53841,59.7976488 127.606466,59.7310968 127.606466,59.6423608 L127.606466,50.4047928 C127.606466,46.6019288 125.928002,44.2447848 122.290202,44.2447848 C119.536378,44.2447848 118.563666,45.2434408 117.172842,47.3020408 L117.056658,47.4765048 L116.961154,47.2877528 C115.977914,45.3235288 114.890146,44.2447848 112.276194,44.2447848 C109.13509,44.2447848 107.893162,46.8076008 107.50137,47.4599608 L107.50137,45.5731928 C107.50137,45.0238568 107.050546,44.5583688 106.522642,44.5583688 L105.543914,44.5583688 C105.463826,44.5583688 105.401786,44.6290568 105.401786,44.7095208 L105.401786,58.6019688 C105.401786,59.5393368 105.624002,59.7976488 106.438418,59.7976488 L107.329914,59.7976488 C107.433314,59.7976488 107.488586,59.7393688 107.488586,59.6423608 L107.50137,50.8702808 C107.62357,48.1126968 109.78181,46.1198968 111.724226,46.1198968 C114.375026,46.1198968 115.519194,47.9465048 115.519194,50.8864488 L115.519194,58.6478408 C115.53273,59.5393368 115.763218,59.7976488 116.555826,59.7976488 L117.407466,59.7976488 C117.50861,59.7976488 117.575162,59.7341048 117.575162,59.6423608 L117.575162,51.0639208 C117.575162,48.1533048 119.24573,46.1172648 121.689354,46.1172648 C124.712018,46.1172648 125.52493,47.8776968 125.52493,50.9462328 L125.52493,58.7245448 C125.547866,59.5551288 125.778354,59.7976488 126.56081,59.7976488" id="Fill-31" fill="#595656"></path>
                </g>
            </g>
        </g>
    </g>
</svg>