<?xml version="1.0" encoding="UTF-8"?>
<svg width="160px" height="160px" viewBox="0 0 160 160" version="1.1" xmlns="http://www.w3.org/2000/svg" xmlns:xlink="http://www.w3.org/1999/xlink">
    <title>编组 37</title>
    <defs>
        <linearGradient x1="50%" y1="0%" x2="50%" y2="100%" id="linearGradient-1">
            <stop stop-color="#E9C7FF" offset="0%"></stop>
            <stop stop-color="#CF96FF" offset="100%"></stop>
        </linearGradient>
        <linearGradient x1="50%" y1="0%" x2="50%" y2="100%" id="linearGradient-2">
            <stop stop-color="#C74EFA" offset="0%"></stop>
            <stop stop-color="#9626F4" offset="100%"></stop>
        </linearGradient>
        <linearGradient x1="50%" y1="0%" x2="50%" y2="100%" id="linearGradient-3">
            <stop stop-color="#E9C7FF" offset="0%"></stop>
            <stop stop-color="#CF96FF" offset="100%"></stop>
        </linearGradient>
        <linearGradient x1="50%" y1="0%" x2="50%" y2="100%" id="linearGradient-4">
            <stop stop-color="#C74EFA" offset="0%"></stop>
            <stop stop-color="#9626F4" offset="100%"></stop>
        </linearGradient>
    </defs>
    <g id="首页✅" stroke="none" stroke-width="1" fill="none" fill-rule="evenodd">
        <g id="手机版首页" transform="translate(-408.000000, -2744.000000)">
            <g id="编组-37" transform="translate(408.000000, 2744.000000)">
                <g id="Icon/Product+bg/Bare-Metal-Cloud-Center备份">
                    <g id="Icon/product/CloudWan-bg">
                        <polygon id="矩形备份-14" points="0 0 160 0 160 160 0 160"></polygon>
                        <path d="M53,20 L140,20 L140,20 L140,107 C140,125.225397 125.225397,140 107,140 L20,140 L20,140 L20,53 C20,34.7746033 34.7746033,20 53,20 Z" id="矩形备份-3" fill="#F4E6FF"></path>
                    </g>
                    <g id="编组-7" transform="translate(12.500000, 13.333333)">
                        <g id="编组" transform="translate(18.518519, 14.814815)">
                            <path d="M90.7224312,75.6612891 C91.7479306,74.9506856 92.3605933,73.7768269 92.3605933,72.5225785 C92.3605933,71.2683302 91.7479306,70.0944714 90.7224312,69.3838679 L72.0048003,56.3076801 L50.8907215,41.6461775 C49.5991948,40.7537847 47.8960901,40.7537847 46.6045635,41.6461775 L25.5538269,56.3076801 L6.82563897,69.3838679 C5.80898334,70.100533 5.2034137,71.2722001 5.2034137,72.5225785 C5.2034137,73.7729569 5.80898334,74.944624 6.82563897,75.6612891 L25.5538269,88.7268372 L46.6679057,103.398979 C47.9594324,104.291372 49.6625371,104.291372 50.9540637,103.398979 L72.0048003,88.7268372 L90.7224312,75.6612891 Z" id="路径-3" fill="url(#linearGradient-1)"></path>
                            <path d="M0,36.002653 L0,46.8220379 L0,46.8220379 C-0.0100041329,48.1901938 0.660993141,49.4743398 1.79143407,50.2502454 L22.6550583,64.5742325 L46.057186,80.5693513 C47.5028138,81.5480017 49.4011872,81.5480017 50.846815,80.5693513 L74.2489427,64.5551338 L95.1221462,50.2311468 C96.2525871,49.4552411 96.9235844,48.1710952 96.9135802,46.8029392 L96.9135802,46.8029392 L96.9135802,35.7734692 L0,36.002653 Z" id="路径-4" fill="url(#linearGradient-2)"></path>
                            <path d="M95.1030384,38.6259615 C96.2383055,37.8248022 96.9135802,36.5213069 96.9135802,35.1310391 C96.9135802,33.7407713 96.2383055,32.437276 95.1030384,31.6361166 L74.237249,17.0619543 L50.8422729,0.761904281 C49.4068762,-0.253968094 47.4875436,-0.253968094 46.0521468,0.761904281 L22.6475905,17.0619543 L1.81054187,31.6457049 C0.675274717,32.4468642 0,33.7503595 0,35.1406273 C0,36.5308951 0.675274717,37.8343904 1.81054187,38.6355498 L22.666751,53.1905356 L46.0713073,69.4905856 C47.5094048,70.4979182 49.423336,70.4979182 50.8614334,69.4905856 L74.2564095,53.1905356 L95.1030384,38.6259615 Z" id="路径-5" fill="url(#linearGradient-3)"></path>
                            <ellipse id="椭圆形" fill="#FFFFFF" fill-rule="nonzero" cx="49.1072168" cy="35.1230425" rx="9.43118734" ry="7.15469384"></ellipse>
                            <ellipse id="椭圆形-2" fill="url(#linearGradient-4)" cx="49.1072168" cy="35.1230425" rx="4.87820035" ry="3.90256028"></ellipse>
                        </g>
                        <rect id="矩形备份-6" x="0" y="0" width="133.333333" height="133.333333"></rect>
                    </g>
                </g>
                <rect id="矩形" x="0" y="0" width="160" height="160"></rect>
            </g>
        </g>
    </g>
</svg>