<?xml version="1.0" encoding="UTF-8"?>
<svg width="184px" height="105px" viewBox="0 0 184 105" version="1.1" xmlns="http://www.w3.org/2000/svg" xmlns:xlink="http://www.w3.org/1999/xlink">
    <title>Equinix-logo</title>
    <defs>
        <polygon id="path-1" points="0 50.5291193 104.968828 50.5291193 104.968828 0.131049716 0 0.131049716"></polygon>
    </defs>
    <g id="首页*" stroke="none" stroke-width="1" fill="none" fill-rule="evenodd">
        <g id="国际版客户证言logo" transform="translate(-106.000000, -444.000000)">
            <g id="Equinix-logo" transform="translate(106.000000, 444.000000)">
                <rect id="矩形备份" fill="#FFFFFF" x="0" y="0" width="184" height="105" rx="4"></rect>
                <g id="编组" transform="translate(40.000000, 27.000000)">
                    <polygon id="Fill-1" fill="#E50113" points="53.0006621 0 48.600331 1.54728104 48.600331 24.8299541 45.667108 23.7988786 45.667108 2.5830311 36.8677701 5.68260164 36.8677701 20.7016453 33.9358712 19.6668969 33.9358712 6.71367713 31 7.7480916 31 21.7697834 39.8009931 24.8676845 39.8009931 7.78214915 42.7358712 6.74973806 42.7358712 25.9000956 51.5342161 29 51.5342161 3.64983363 53.0006621 3.13362808 54.466446 3.64983363 54.466446 29 63.2687632 25.9000956 63.2687632 6.74973806 66.2 7.78214915 66.2 24.8676845 75 21.7697834 75 7.7480916 72.0657839 6.71367713 72.0657839 19.6668969 69.1348781 20.7016453 69.1348781 5.68260164 60.3312368 2.5830311 60.3312368 23.7988786 57.3990069 24.8299541 57.3990069 1.54728104"></polygon>
                    <polygon id="Fill-2" fill="#231916" points="0 39 0 50 10 50 10 48.5815585 1.63684446 48.5815585 1.63684446 45.0017467 7.05361129 45.0017467 7.05361129 43.5560016 1.63684446 43.5560016 1.63684446 40.4400147 9.71494316 40.4400147 9.71494316 39"></polygon>
                    <g>
                        <path d="M42.3924375,45.4924419 C42.3924375,47.3929888 41.1255469,48.6493709 39.2457188,48.6493709 C37.419375,48.6493709 36.2788125,47.3770151 36.2788125,45.4924419 L36.2788125,39.120883 L34.7303906,39.120883 L34.7303906,45.5641607 C34.7303906,48.4632281 36.8376094,50.0443006 39.2335781,50.0443006 C42.774375,50.0443006 43.9264219,47.6430264 43.9264219,45.5641607 L43.9264219,39.120883 L42.3924375,39.120883 L42.3924375,45.4924419 Z" id="Fill-3" fill="#231916"></path>
                        <mask id="mask-2" fill="white">
                            <use xlink:href="#path-1"></use>
                        </mask>
                        <g id="Clip-6"></g>
                        <polygon id="Fill-5" fill="#231916" mask="url(#mask-2)" points="52.54725 49.7288033 54.0832031 49.7288033 54.0832031 39.0922607 52.54725 39.0922607"></polygon>
                        <polygon id="Fill-7" fill="#231916" mask="url(#mask-2)" points="72.4320844 47.4280332 64.83435 39.0939884 63.3154594 39.0939884 63.3154594 49.730205 64.8520688 49.730205 64.8520688 41.3263975 72.4629281 49.730205 73.9624594 49.730205 73.9624594 39.0939884 72.4320844 39.0939884"></polygon>
                        <polygon id="Fill-8" fill="#231916" mask="url(#mask-2)" points="83.2846875 49.7288033 84.8193281 49.7288033 84.8193281 39.0922607 83.2846875 39.0922607"></polygon>
                        <polygon id="Fill-9" fill="#231916" mask="url(#mask-2)" points="99.7603359 43.9579866 104.219883 39.0807857 102.324633 39.0807857 98.7861328 42.904047 95.3431172 39.0807857 93.3376172 39.0807857 97.6383516 43.9612466 92.2607109 49.7271081 94.2225703 49.7271081 98.6338828 44.9936706 102.840117 49.7271081 104.968992 49.7271081"></polygon>
                        <path d="M21.2357578,38.6627957 C18.0450703,38.6833334 15.5867578,41.0816736 15.5867578,44.4289832 L15.5867578,44.4700585 C15.5867578,47.7958526 18.1057734,50.1374697 21.2718516,50.1169321 C22.0865859,50.1104122 23.0470078,49.8991679 23.7701953,49.5301423 L24.6416953,50.5289889 L26.4280078,50.525729 L24.9009141,48.7858973 C26.1510703,47.8382318 26.9395547,46.278023 26.9395547,44.3494406 L26.9395547,44.3080393 C26.9395547,41.002457 24.4120078,38.6389982 21.2357578,38.6627957 L21.2357578,38.6627957 Z M25.3419141,44.4051857 C25.3419141,45.9080195 24.8513672,46.8860024 23.9585391,47.7208739 L23.1277266,46.7650585 L21.3446953,46.7617986 L22.8041953,48.4263256 C22.4471953,48.5968206 21.8047266,48.7347162 21.3043359,48.7387078 C19.0117266,48.7526459 17.1893203,46.9143639 17.1893203,44.4159435 L17.1880078,44.3781281 C17.1880078,41.8337425 18.8958984,40.0352318 21.2013047,40.024148 C23.5063828,40.0052403 25.3419141,41.8337425 25.3419141,44.3618284 L25.3419141,44.4051857 Z" id="Fill-10" fill="#231916" mask="url(#mask-2)"></path>
                        <path d="M80.6896781,20.4265432 C82.1491781,20.4265432 83.3077875,19.2291661 83.3077875,17.8091348 L83.3077875,17.7931611 C83.3077875,16.3731298 82.1636156,15.1900964 80.6896781,15.1900964 C79.2285375,15.1900964 78.0696,16.3874736 78.0696,17.8091348 L78.0696,17.8234786 C78.0696,19.2435098 79.2137719,20.4265432 80.6896781,20.4265432 L80.6896781,20.4265432 Z M80.6896781,20.1419501 C79.3660219,20.1419501 78.3718031,19.0955084 78.3718031,17.8234786 L78.3718031,17.8091348 C78.3718031,16.537105 79.3791469,15.4759935 80.6896781,15.4759935 C82.0133344,15.4759935 83.007225,16.5224352 83.007225,17.7931611 L83.007225,17.8091348 C83.007225,19.0798607 81.9985688,20.1419501 80.6896781,20.1419501 L80.6896781,20.1419501 Z M79.6055531,19.1098521 L80.2686938,19.1098521 L80.2686938,18.257377 L80.6896781,18.257377 L81.2766938,19.1098521 L82.0740375,19.1098521 L81.3826781,18.1380631 C81.7446,18.0174452 81.9844594,17.7341561 81.9844594,17.3002577 C81.9844594,16.6880403 81.5172094,16.4018173 80.8832719,16.4018173 L79.6055531,16.4018173 L79.6055531,19.1098521 Z M80.2686938,17.7201384 L80.2686938,16.9710034 L80.8399594,16.9710034 C81.1247719,16.9710034 81.3075375,17.1062911 81.3075375,17.3449189 C81.3075375,17.570507 81.1424906,17.7201384 80.8399594,17.7201384 L80.2686938,17.7201384 Z" id="Fill-11" fill="#E50113" mask="url(#mask-2)"></path>
                    </g>
                </g>
            </g>
        </g>
    </g>
</svg>