<?xml version="1.0" encoding="UTF-8"?>
<svg width="200px" height="200px" viewBox="0 0 200 200" version="1.1" xmlns="http://www.w3.org/2000/svg" xmlns:xlink="http://www.w3.org/1999/xlink">
    <title>编组 3</title>
    <g id="首页*" stroke="none" stroke-width="1" fill="none" fill-rule="evenodd">
        <g id="首页备份-2" transform="translate(-619.000000, -2372.000000)">
            <g id="编组-61" transform="translate(0.000000, 2032.000000)">
                <g id="编组-60" transform="translate(199.000000, 340.000000)">
                    <g id="编组-59" transform="translate(420.000000, 0.000000)">
                        <g id="编组-3">
                            <g id="2">
                                <rect id="矩形备份-10" x="0" y="0" width="200" height="200"></rect>
                                <path d="M65.3194945,25 C62.2329442,25 59.3806112,26.665749 57.8378923,29.3692146 L23.1570391,90.1307854 C21.6143203,92.834251 21.6143203,96.165749 23.1570391,98.8692146 L57.8378923,159.630785 C59.3806112,162.334251 62.2329442,164 65.3194945,164 L134.680088,164 C137.766639,164 140.618972,162.334251 142.16169,159.630785 L176.842544,98.8692146 C178.385819,96.165749 178.385819,92.834251 176.842544,90.1307854 L142.16169,29.3692146 C140.618972,26.665749 137.766639,25 134.680088,25 L65.3194945,25 Z" id="Fill-1" fill="#FFFFFF" transform="translate(100.000000, 94.500000) rotate(90.000000) translate(-100.000000, -94.500000) "></path>
                            </g>
                        </g>
                    </g>
                </g>
            </g>
        </g>
    </g>
</svg>