<?xml version="1.0" encoding="UTF-8"?>
<svg width="184px" height="105px" viewBox="0 0 184 105" version="1.1" xmlns="http://www.w3.org/2000/svg" xmlns:xlink="http://www.w3.org/1999/xlink">
    <title>talkcloud-w</title>
    <defs>
        <path d="M12.0799466,0.177563862 C11.4038799,0.178050338 10.8584898,0.748200601 10.8584898,1.45140214 L10.8584898,1.45140214 C10.8584898,2.15192806 11.4058523,2.72037566 12.0799466,2.72037566 L12.0799466,2.72037566 L12.0930143,2.72037566 C15.3791621,2.72037566 18.4845817,4.03288881 20.8382407,6.41710932 L20.8382407,6.41710932 C23.1896807,8.79865421 24.536883,11.9911551 24.6300826,15.4013542 L24.6300826,15.4013542 C24.6480814,16.0902047 25.1929784,16.6365177 25.8505531,16.6365177 L25.8505531,16.6365177 C25.8626346,16.6365177 25.8734832,16.6365177 25.8863043,16.6353015 L25.8863043,16.6353015 C26.5616313,16.6160856 27.092721,16.0306114 27.0734893,15.328626 L27.0734893,15.328626 C26.9637702,11.2534138 25.3539819,7.43992581 22.5446805,4.59452573 L22.5446805,4.59452573 C19.7316807,1.74596356 16.0197242,0.177563862 12.0883296,0.177563862 L12.0883296,0.177563862 L12.0799466,0.177563862 Z M2.96833239,6.05127911 L2.96833239,12.045154 L2.96635991,12.045154 C1.32871029,12.045154 0,13.4260171 0,15.1308734 L0,15.1308734 C0,16.8347568 1.32871029,18.2153766 2.96833239,18.2153766 L2.96833239,18.2153766 L2.96833239,18.7862566 C2.96833239,24.6482964 7.55187746,29.4179536 13.1860135,29.4179536 L13.1860135,29.4179536 L15.558411,29.4179536 C17.1968003,29.4179536 18.5247709,28.037577 18.5247709,26.3312613 L18.5247709,26.3312613 C18.5247709,24.6276211 17.1968003,23.2452986 15.558411,23.2452986 L15.558411,23.2452986 L13.1860135,23.2452986 C10.8217524,23.2452986 8.89907973,21.2436918 8.89907973,18.7862566 L8.89907973,18.7862566 L8.89907973,18.2153766 L12.7434388,18.2153766 C14.3803487,18.2153766 15.7095521,16.8347568 15.7095521,15.1308734 L15.7095521,15.1308734 C15.7095521,13.4260171 14.3803487,12.045154 12.7434388,12.045154 L12.7434388,12.045154 L8.89907973,12.045154 L8.89907973,6.05127911 C8.89907973,4.34739576 7.57110911,2.96604621 5.93370606,2.96604621 L5.93370606,2.96604621 C4.29408397,2.96604621 2.96833239,4.34739576 2.96833239,6.05127911 L2.96833239,6.05127911 Z M12.0801931,3.68773385 C11.4048661,3.68773385 10.8584898,4.25666792 10.8584898,4.96084241 L10.8584898,4.96084241 C10.8592295,5.66234128 11.4056058,6.23078888 12.0809328,6.23078888 L12.0809328,6.23078888 L12.0883296,6.23078888 C17.0880675,6.23078888 21.1146342,10.2624615 21.2571457,15.4098676 L21.2571457,15.4098676 C21.2751445,16.1001775 21.8188087,16.6464904 22.4778628,16.6464904 L22.4778628,16.6464904 C22.4899442,16.6464904 22.5017791,16.6464904 22.5133674,16.645031 L22.5133674,16.645031 C23.188941,16.6265449 23.7197841,16.0398544 23.7005524,15.3366529 L23.7005524,15.3366529 C23.5195776,8.80254602 18.4214624,3.68773385 12.0883296,3.68773385 L12.0883296,3.68773385 L12.0801931,3.68773385 Z M12.0779741,7.18160687 C11.4028936,7.18282307 10.8567639,7.75127066 10.8584857,8.45495868 L10.8584857,8.45495868 C10.8584857,9.15572784 11.4048661,9.72660781 12.0799466,9.72660781 L12.0799466,9.72660781 L12.0875899,9.72660781 C15.2576082,9.72660781 17.8090081,12.2212585 17.8967833,15.4108405 L17.8967833,15.4108405 C17.9140425,16.1023666 18.4589395,16.6464904 19.1167608,16.6464904 L19.1167608,16.6464904 L19.152512,16.6464904 C19.8275925,16.6265449 20.3586821,16.0410706 20.3404367,15.3405447 L20.3404367,15.3405447 C20.2144446,10.7632889 16.5907565,7.18160687 12.0846312,7.18160687 L12.0846312,7.18160687 L12.0779741,7.18160687 Z M38.1758266,17.8191416 L38.1758266,27.5277498 C38.1758266,28.3712998 38.8338945,29.0562585 39.6445829,29.0562585 L39.6445829,29.0562585 C40.4560109,29.0562585 41.115065,28.3712998 41.115065,27.5277498 L41.115065,27.5277498 L41.115065,26.1262115 L43.4983112,28.6087002 C43.7769236,28.8983969 44.1462701,29.0562585 44.5397794,29.0562585 L44.5397794,29.0562585 C44.9295903,29.0562585 45.3004161,28.8983969 45.5807545,28.6087002 L45.5807545,28.6087002 C45.8576411,28.320463 46.0105081,27.9359035 46.0105081,27.5277498 L46.0105081,27.5277498 C46.0105081,27.1188665 45.8576411,26.7343069 45.5807545,26.4450967 L45.5807545,26.4450967 L43.2589017,24.0280391 L45.5807545,21.6102517 C45.859367,21.320555 46.0129737,20.9379414 46.0129737,20.5297878 L46.0129737,20.5297878 C46.0129737,20.1196882 45.859367,19.7348854 45.582727,19.4456752 L45.582727,19.4456752 C45.3203874,19.1730053 44.9384665,19.0153869 44.5397794,19.0153869 L44.5397794,19.0153869 C44.1413389,19.0153869 43.7631163,19.1730053 43.4983112,19.4456752 L43.4983112,19.4456752 L41.115065,21.9257316 L41.115065,17.8191416 C41.115065,16.9751052 40.4560109,16.2903897 39.6445829,16.2903897 L39.6445829,16.2903897 C38.8338945,16.2903897 38.1758266,16.9751052 38.1758266,17.8191416 L38.1758266,17.8191416 Z M32.7049132,17.8191416 L32.7049132,27.5277498 C32.7049132,28.3703268 33.3652001,29.0569882 34.1768747,29.0569882 L34.1768747,29.0569882 C34.987563,29.0569882 35.6463705,28.3703268 35.6463705,27.5277498 L35.6463705,27.5277498 L35.6463705,17.8191416 C35.6463705,16.9751052 34.987563,16.2903897 34.1768747,16.2903897 L34.1768747,16.2903897 C33.3652001,16.2903897 32.7049132,16.9751052 32.7049132,17.8191416 L32.7049132,17.8191416 Z M20.0946166,23.4634833 C20.0946166,26.3543689 22.3555692,28.7059955 25.1372559,28.7059955 L25.1372559,28.7059955 C25.8162813,28.7059955 26.4750889,28.5705118 27.0961728,28.2956527 L27.0961728,28.2956527 L27.3506224,28.1842496 L27.512119,28.4204339 C27.7890056,28.818858 28.2340459,29.0569882 28.7047284,29.0569882 L28.7047284,29.0569882 C29.5181289,29.0569882 30.1776761,28.3703268 30.1776761,27.5277498 L30.1776761,27.5277498 L30.1776761,23.4634833 C30.1776761,20.5696788 27.9152442,18.2153766 25.1372559,18.2153766 L25.1372559,18.2153766 C22.3555692,18.2153766 20.0946166,20.5696788 20.0946166,23.4634833 L20.0946166,23.4634833 Z M23.0363206,23.4634833 C23.0363206,22.256049 23.9784252,21.2770154 25.1372559,21.2770154 L25.1372559,21.2770154 C26.2943606,21.2770154 27.2381912,22.256049 27.2381912,23.4634833 L27.2381912,23.4634833 L27.2381912,25.3099042 L26.8560236,25.2702564 C26.8104101,25.2656349 26.7655362,25.263689 26.7189364,25.263689 L26.7189364,25.263689 C26.4943205,25.263689 26.2664994,25.3191473 26.0618548,25.42301 L26.0618548,25.42301 C25.7738731,25.5713852 25.4604957,25.6472755 25.1372559,25.6472755 L25.1372559,25.6472755 C23.9784252,25.6472755 23.0363206,24.6682419 23.0363206,23.4634833 L23.0363206,23.4634833 Z" id="path-1"></path>
        <path d="M0.564744357,6.68578444 C0.012212036,7.33886642 0.0914656571,8.31730284 0.741195815,8.87261238 L0.741195815,8.87261238 C1.393169,9.42412493 2.36664272,9.34628667 2.91917504,8.69083157 L2.91917504,8.69083157 C5.92208976,5.13898634 10.3034692,3.10095287 14.9388091,3.10095287 L14.9388091,3.10095287 C23.6290435,3.10095287 30.699563,10.1994225 30.699563,18.9137479 L30.699563,18.9137479 C30.699563,18.9336821 30.6983169,19.000604 30.6983169,19.0203009 L30.6983169,19.0203009 C30.6983169,19.5058408 30.9218719,19.9624286 31.3089187,20.2547967 L31.3089187,20.2547967 C31.6952178,20.5485887 32.1939175,20.643988 32.659221,20.5127546 L32.659221,20.5127546 C33.3827218,20.3077172 34.1114564,20.2066224 34.8254866,20.2066224 L34.8254866,20.2066224 C39.2260564,20.2066224 42.8069244,23.8004718 42.8069244,28.2187423 L42.8069244,28.2187423 C42.8069244,31.5351743 40.822344,34.4626523 37.7511415,35.6788751 L37.7511415,35.6788751 C36.9576084,35.9918893 36.5668233,36.893674 36.8798501,37.6924654 L36.8798501,37.6924654 C37.1201033,38.2995089 37.6988042,38.6709018 38.3163843,38.6709018 L38.3163843,38.6709018 C38.5047986,38.6709018 38.6986958,38.6388648 38.8836209,38.562925 L38.8836209,38.562925 C43.14288,36.8784861 45.8940773,32.8161832 45.8940773,28.2187423 L45.8940773,28.2187423 C45.8940773,22.0901659 40.9282647,17.1021099 34.8254866,17.1021099 L34.8254866,17.1021099 C34.4533934,17.1021099 34.0803032,17.1234679 33.7069638,17.1633363 L33.7069638,17.1633363 C32.817479,7.54959927 24.7410864,0 14.9388091,0 L14.9388091,0 C9.39429558,0 4.15433525,2.43766648 0.564744357,6.68578444 L0.564744357,6.68578444 Z" id="path-3"></path>
        <path d="M0.54575733,0 C0.244365332,0 0,0.290239773 0,0.647983523 L0,0.647983523 C0,1.00627386 0.244365332,1.29596705 0.54575733,1.29596705 L0.54575733,1.29596705 L2.60721065,1.29542045 L2.60721065,10.1772494 C2.60721065,10.5330801 2.85060532,10.8233199 3.15321065,10.8233199 L3.15321065,10.8233199 C3.45363198,10.8233199 3.69605598,10.5330801 3.69605598,10.1772494 L3.69605598,10.1772494 L3.69605598,1.29542045 L5.75920796,1.29596705 C6.06108529,1.29596705 6.30472263,1.00627386 6.30472263,0.647983523 L6.30472263,0.647983523 C6.30472263,0.290239773 6.06108529,0 5.75920796,0 L5.75920796,0 L0.54575733,0 Z M72.5767462,0.831911364 L72.5767462,6.74438523 C72.5767462,8.28003239 71.5240582,9.53172557 70.2284609,9.53172557 L70.2284609,9.53172557 C68.9360182,9.53172557 67.8823596,8.28003239 67.8823596,6.74438523 L67.8823596,6.74438523 C67.8823596,5.206825 68.9360182,3.95759148 70.2284609,3.95759148 L70.2284609,3.95759148 C70.5944022,3.95759148 70.9431142,4.05433807 71.2678022,4.24537159 L71.2678022,4.24537159 C71.5364342,4.4014233 71.8645195,4.27051477 71.9975009,3.94966591 L71.9975009,3.94966591 C72.1292689,3.62991023 72.0193409,3.24183068 71.7507089,3.08331932 L71.7507089,3.08331932 C71.2743542,2.80373807 70.7625702,2.66244432 70.2284609,2.66244432 L70.2284609,2.66244432 C68.3354182,2.66244432 66.7942422,4.49352386 66.7942422,6.74438523 L66.7942422,6.74438523 C66.7942422,8.99360682 68.3354182,10.8233199 70.2284609,10.8233199 L70.2284609,10.8233199 C72.1229595,10.8233199 73.6646209,8.99360682 73.6646209,6.74438523 L73.6646209,6.74438523 L73.6646209,0.831911364 C73.6646209,0.473621023 73.4212262,0.185567614 73.1203195,0.185567614 L73.1203195,0.185567614 C72.8184422,0.185567614 72.5767462,0.473621023 72.5767462,0.831911364 L72.5767462,0.831911364 Z M35.5261571,5.55227045 C35.5261571,8.45904091 37.5179651,10.8233199 39.9664717,10.8233199 L39.9664717,10.8233199 C41.6010744,10.8233199 43.0997837,9.76156705 43.8763171,8.04882443 L43.8763171,8.04882443 C44.0182771,7.73262159 43.9195117,7.3415358 43.6550051,7.17236591 L43.6550051,7.17236591 C43.3883144,7.00237614 43.0578024,7.11961989 42.9175411,7.43609602 L42.9175411,7.43609602 C42.3310157,8.72550398 41.1999464,9.53172557 39.9664717,9.53172557 L39.9664717,9.53172557 C38.1200211,9.53172557 36.6186424,7.74601307 36.6186424,5.55227045 L36.6186424,5.55227045 C36.6186424,3.35880114 38.1200211,1.57609489 39.9664717,1.57609489 L39.9664717,1.57609489 C41.2305224,1.57609489 42.3720264,2.40581989 42.9478744,3.74469432 L42.9478744,3.74469432 C43.0854664,4.06199034 43.4154931,4.18688636 43.6809704,4.02564205 L43.6809704,4.02564205 C43.9500877,3.86303125 44.0561331,3.47358523 43.9195117,3.15382955 L43.9195117,3.15382955 C43.1555971,1.38232841 41.6396584,0.280947727 39.9664717,0.280947727 L39.9664717,0.280947727 C37.5179651,0.280947727 35.5261571,2.64440682 35.5261571,5.55227045 L35.5261571,5.55227045 Z M46.827629,1.20659943 L46.827629,10.1772494 C46.827629,10.5330801 47.0727224,10.8233199 47.3731437,10.8233199 L47.3731437,10.8233199 C47.6733224,10.8233199 47.918173,10.5330801 47.918173,10.1772494 L47.918173,10.1772494 L47.918173,1.20659943 C47.918173,0.848035795 47.6733224,0.5591625 47.3731437,0.5591625 L47.3731437,0.5591625 C47.0727224,0.5591625 46.827629,0.848035795 46.827629,1.20659943 L46.827629,1.20659943 Z M20.6955839,1.20659943 L20.6955839,10.1772494 C20.6955839,10.5330801 20.9380079,10.8233199 21.2391572,10.8233199 L21.2391572,10.8233199 C21.5407919,10.8233199 21.7837012,10.5330801 21.7837012,10.1772494 L21.7837012,10.1772494 L21.7837012,1.20659943 C21.7837012,0.848035795 21.5407919,0.5591625 21.2391572,0.5591625 L21.2391572,0.5591625 C20.9380079,0.5591625 20.6955839,0.848035795 20.6955839,1.20659943 L20.6955839,1.20659943 Z M16.9301252,1.20659943 L16.9301252,10.1772494 C16.9301252,10.5330801 17.1759466,10.8233199 17.4763679,10.8233199 L17.4763679,10.8233199 C17.7787306,10.8233199 18.0218826,10.5330801 18.0218826,10.1772494 L18.0218826,10.1772494 L18.0218826,1.20659943 C18.0218826,0.848035795 17.7787306,0.5591625 17.4763679,0.5591625 L17.4763679,0.5591625 C17.1759466,0.5591625 16.9301252,0.848035795 16.9301252,1.20659943 L16.9301252,1.20659943 Z M6.98661596,6.42025682 C6.98661596,8.67057159 8.52851995,10.5011045 10.4232613,10.5011045 L10.4232613,10.5011045 C10.9576133,10.5011045 11.4684266,10.3595375 11.9438106,10.0818693 L11.9438106,10.0818693 C12.2134133,9.92226477 12.3238266,9.53309205 12.1913306,9.21442955 L12.1913306,9.21442955 C12.0581066,8.89303409 11.7307493,8.76212557 11.4611466,8.91899716 L11.4611466,8.91899716 C11.1364586,9.1089375 10.7877466,9.20759716 10.4232613,9.20759716 L10.4232613,9.20759716 C9.12984794,9.20759716 8.07643195,7.95699716 8.07643195,6.42025682 L8.07643195,6.42025682 C8.07643195,4.88351648 9.12984794,3.63373636 10.4232613,3.63373636 L10.4232613,3.63373636 C11.7178879,3.63373636 12.7708186,4.88351648 12.7708186,6.42025682 L12.7708186,6.42025682 L12.7708186,10.1783426 C12.7708186,10.5358131 13.0139706,10.8233199 13.3139066,10.8233199 L13.3139066,10.8233199 C13.6148132,10.8233199 13.8601492,10.5358131 13.8601492,10.1783426 L13.8601492,10.1783426 L13.8601492,6.42025682 C13.8601492,4.16994205 12.3172746,2.34022898 10.4232613,2.34022898 L10.4232613,2.34022898 C8.52851995,2.34022898 6.98661596,4.16994205 6.98661596,6.42025682 L6.98661596,6.42025682 Z M63.7536289,3.31124773 L63.7536289,7.65527898 C63.7536289,8.6880625 63.0450423,9.53172557 62.1748396,9.53172557 L62.1748396,9.53172557 C61.3031809,9.53172557 60.5950796,8.6880625 60.5950796,7.65527898 L60.5950796,7.65527898 L60.5950796,3.31124773 C60.5950796,2.9524108 60.3485303,2.66244432 60.049565,2.66244432 L60.049565,2.66244432 C59.7491436,2.66244432 59.5055063,2.9524108 59.5055063,3.31124773 L59.5055063,3.31124773 L59.5055063,7.78755398 L59.5084183,7.78755398 C59.5671436,9.47433352 60.7389809,10.8233199 62.1748396,10.8233199 L62.1748396,10.8233199 C63.6089996,10.8233199 64.7827783,9.47433352 64.8424743,7.78755398 L64.8424743,7.78755398 L64.8439303,3.31124773 C64.8439303,2.9524108 64.6005356,2.66244432 64.2991436,2.66244432 L64.2991436,2.66244432 C63.9972663,2.66244432 63.7536289,2.9524108 63.7536289,3.31124773 L63.7536289,3.31124773 Z M50.4642317,6.74438523 C50.4642317,8.99251364 52.0049223,10.8233199 53.9011197,10.8233199 L53.9011197,10.8233199 C55.795861,10.8233199 57.3382503,8.99251364 57.3382503,6.74438523 L57.3382503,6.74438523 C57.3382503,4.49297727 55.795861,2.66244432 53.9011197,2.66244432 L53.9011197,2.66244432 C52.0049223,2.66244432 50.4642317,4.49297727 50.4642317,6.74438523 L50.4642317,6.74438523 Z M51.5550183,6.74438523 C51.5550183,5.206825 52.6067357,3.95759148 53.9011197,3.95759148 L53.9011197,3.95759148 C55.1950183,3.95759148 56.2467356,5.206825 56.2467356,6.74438523 L56.2467356,6.74438523 C56.2467356,8.28003239 55.1950183,9.53172557 53.9011197,9.53172557 L53.9011197,9.53172557 C52.6067357,9.53172557 51.5550183,8.28003239 51.5550183,6.74438523 L51.5550183,6.74438523 Z M24.8172772,3.2530358 L22.1113012,6.46699034 C22.0144772,6.58150114 21.9615759,6.72880739 21.9525972,6.87911989 L21.9525972,6.87911989 L21.9525972,7.00729545 C21.9615759,7.15788125 22.0144772,7.3049142 22.1113012,7.41887841 L22.1113012,7.41887841 L24.8165492,10.6350193 C24.9228372,10.7604619 25.0643118,10.8233199 25.2038452,10.8233199 L25.2038452,10.8233199 C25.3426505,10.8233199 25.4809705,10.7604619 25.5882292,10.6350193 L25.5882292,10.6350193 C25.8015332,10.3816744 25.8015332,9.97227784 25.5882292,9.71811307 L25.5882292,9.71811307 L23.2501359,6.94115795 L25.5884718,4.1669358 C25.8015332,3.91468409 25.8015332,3.50446761 25.5884718,3.2530358 L25.5884718,3.2530358 C25.4821838,3.1265 25.3424078,3.06309545 25.2026318,3.06309545 L25.2026318,3.06309545 C25.0630985,3.06309545 24.9233225,3.1265 24.8172772,3.2530358 L24.8172772,3.2530358 Z M28.7766265,5.46180966 C28.4546078,5.46180966 28.1949545,5.77118011 28.1949545,6.15352045 L28.1949545,6.15352045 C28.1949545,6.53340114 28.4546078,6.84359148 28.7766265,6.84359148 L28.7766265,6.84359148 L32.5763011,6.84359148 C32.8978345,6.84359148 33.1574878,6.53340114 33.1574878,6.15352045 L33.1574878,6.15352045 C33.1574878,5.77118011 32.8978345,5.46180966 32.5763011,5.46180966 L32.5763011,5.46180966 L28.7766265,5.46180966 Z" id="path-5"></path>
    </defs>
    <g id="首页*" stroke="none" stroke-width="1" fill="none" fill-rule="evenodd">
        <g id="国际版客户证言logo备份" transform="translate(-106.000000, -1254.000000)">
            <g id="talkcloud-w" transform="translate(106.000000, 1254.000000)">
                <rect id="矩形备份" fill="#FFFFFF" x="0" y="0" width="184" height="105" rx="4"></rect>
                <g id="编组" transform="translate(55.000000, 23.000000)">
                    <g transform="translate(10.931818, 10.931818)">
                        <mask id="mask-2" fill="white">
                            <use xlink:href="#path-1"></use>
                        </mask>
                        <g id="Clip-3"></g>
                        <polygon id="Fill-2" fill="#FFA800" mask="url(#mask-2)" points="-3.6983957 33.0665261 49.7113694 33.0665261 49.7113694 -3.47100864 -3.6983957 -3.47100864"></polygon>
                    </g>
                    <g transform="translate(19.340909, 0.000000)">
                        <mask id="mask-4" fill="white">
                            <use xlink:href="#path-3"></use>
                        </mask>
                        <g id="Clip-5"></g>
                        <polygon id="Fill-4" fill="#417DFC" mask="url(#mask-4)" points="-3.5412412 42.2305784 49.6322064 42.2305784 49.6322064 -3.55967652 -3.5412412 -3.55967652"></polygon>
                    </g>
                    <g transform="translate(0.000000, 47.090909)">
                        <mask id="mask-6" fill="white">
                            <use xlink:href="#path-5"></use>
                        </mask>
                        <g id="Clip-7"></g>
                        <polygon id="Fill-6" fill="#417DFC" mask="url(#mask-6)" points="-3.63999998 14.9227517 77.3046208 14.9227517 77.3046208 -4.09943182 -3.63999998 -4.09943182"></polygon>
                    </g>
                </g>
            </g>
        </g>
    </g>
</svg>