<?xml version="1.0" encoding="UTF-8"?>
<svg width="1920px" height="644px" viewBox="0 0 1920 644" version="1.1" xmlns="http://www.w3.org/2000/svg" xmlns:xlink="http://www.w3.org/1999/xlink">
    <title>home-bg-dot</title>
    <defs>
        <polygon id="path-1" points="0 -2.39520903e-12 1920 -2.39520903e-12 1920 644 0 644"></polygon>
        <path d="M50.9307423,0.891412371 C23.0653041,0.891412371 0.476463918,23.4802526 0.476463918,51.3456907 L0.476463918,165.041747 L114.172521,165.041747 C142.037959,165.041747 164.626799,142.452057 164.626799,114.587469 L164.626799,0.891412371 C107.406387,0.891412371 69.507701,0.891412371 50.9307423,0.891412371 Z" id="path-3"></path>
        <linearGradient x1="41.2771325%" y1="64.8608422%" x2="64.7785098%" y2="76.9675798%" id="linearGradient-5">
            <stop stop-color="#B3E5FF" offset="0%"></stop>
            <stop stop-color="#D8F2FF" offset="100%"></stop>
        </linearGradient>
    </defs>
    <g id="首页" stroke="none" stroke-width="1" fill="none" fill-rule="evenodd">
        <g id="home-bg-dot">
            <mask id="mask-2" fill="white">
                <use xlink:href="#path-1"></use>
            </mask>
            <g id="蒙版"></g>
            <g id="line" mask="url(#mask-2)">
                <g transform="translate(443.000000, 439.000000)">
                    <mask id="mask-4" fill="white">
                        <use xlink:href="#path-3"></use>
                    </mask>
                    <g id="Clip-2" stroke="none" fill="none" transform="translate(82.551631, 82.966580) scale(-1, 1) translate(-82.551631, -82.966580) "></g>
                    <g id="编组-32" stroke="none" stroke-width="1" fill="none" fill-rule="evenodd" mask="url(#mask-4)">
                        <g transform="translate(-85.000000, -68.000000)" stroke="#E1F5FF">
                            <line x1="9.9475983e-14" y1="1.56319402e-13" x2="162.023196" y2="162.023196" id="Stroke-1" transform="translate(81.011598, 81.011598) scale(-1, 1) translate(-81.011598, -81.011598) "></line>
                            <line x1="9.3556701" y1="9.3556701" x2="171.378866" y2="171.378866" id="Stroke-3" transform="translate(90.367268, 90.367268) scale(-1, 1) translate(-90.367268, -90.367268) "></line>
                            <line x1="18.7113402" y1="18.7113402" x2="180.734536" y2="180.734536" id="Stroke-5" transform="translate(99.722938, 99.722938) scale(-1, 1) translate(-99.722938, -99.722938) "></line>
                            <line x1="28.0670103" y1="28.0670103" x2="190.090206" y2="190.090206" id="Stroke-7" transform="translate(109.078608, 109.078608) scale(-1, 1) translate(-109.078608, -109.078608) "></line>
                            <line x1="37.4226804" y1="37.4226804" x2="199.445876" y2="199.445876" id="Stroke-9" transform="translate(118.434278, 118.434278) scale(-1, 1) translate(-118.434278, -118.434278) "></line>
                            <line x1="46.7783505" y1="46.7783505" x2="208.801546" y2="208.801546" id="Stroke-11" transform="translate(127.789948, 127.789948) scale(-1, 1) translate(-127.789948, -127.789948) "></line>
                            <line x1="56.1340206" y1="56.1340206" x2="218.157216" y2="218.157216" id="Stroke-13" transform="translate(137.145619, 137.145619) scale(-1, 1) translate(-137.145619, -137.145619) "></line>
                            <line x1="65.4896907" y1="65.4896907" x2="227.512887" y2="227.512887" id="Stroke-15" transform="translate(146.501289, 146.501289) scale(-1, 1) translate(-146.501289, -146.501289) "></line>
                            <line x1="74.8453608" y1="74.8453608" x2="236.868557" y2="236.868557" id="Stroke-17" transform="translate(155.856959, 155.856959) scale(-1, 1) translate(-155.856959, -155.856959) "></line>
                            <line x1="84.2010309" y1="84.2010309" x2="246.224227" y2="246.224227" id="Stroke-19" transform="translate(165.212629, 165.212629) scale(-1, 1) translate(-165.212629, -165.212629) "></line>
                            <line x1="93.556701" y1="93.556701" x2="255.579897" y2="255.579897" id="Stroke-21" transform="translate(174.568299, 174.568299) scale(-1, 1) translate(-174.568299, -174.568299) "></line>
                            <line x1="102.912371" y1="102.912371" x2="264.935567" y2="264.935567" id="Stroke-23" transform="translate(183.923969, 183.923969) scale(-1, 1) translate(-183.923969, -183.923969) "></line>
                            <line x1="112.268041" y1="112.268041" x2="274.291237" y2="274.291237" id="Stroke-25" transform="translate(193.279639, 193.279639) scale(-1, 1) translate(-193.279639, -193.279639) "></line>
                            <line x1="121.623711" y1="121.623711" x2="283.646907" y2="283.646907" id="Stroke-27" transform="translate(202.635309, 202.635309) scale(-1, 1) translate(-202.635309, -202.635309) "></line>
                            <line x1="130.979381" y1="130.979381" x2="293.002577" y2="293.002577" id="Stroke-29" transform="translate(211.990979, 211.990979) scale(-1, 1) translate(-211.990979, -211.990979) "></line>
                            <line x1="140.335052" y1="140.335052" x2="302.358247" y2="302.358247" id="Stroke-31" transform="translate(221.346649, 221.346649) scale(-1, 1) translate(-221.346649, -221.346649) "></line>
                            <line x1="149.690722" y1="149.690722" x2="311.713918" y2="311.713918" id="Stroke-33" transform="translate(230.702320, 230.702320) scale(-1, 1) translate(-230.702320, -230.702320) "></line>
                            <line x1="159.046392" y1="159.046392" x2="321.069588" y2="321.069588" id="Stroke-35" transform="translate(240.057990, 240.057990) scale(-1, 1) translate(-240.057990, -240.057990) "></line>
                        </g>
                    </g>
                </g>
            </g>
            <path d="M244,280 C246.209139,280 248,281.790861 248,284 C248,286.209139 246.209139,288 244,288 C241.790861,288 240,286.209139 240,284 C240,281.790861 241.790861,280 244,280 Z M284,280 C286.209139,280 288,281.790861 288,284 C288,286.209139 286.209139,288 284,288 C281.790861,288 280,286.209139 280,284 C280,281.790861 281.790861,280 284,280 Z M324,280 C326.209139,280 328,281.790861 328,284 C328,286.209139 326.209139,288 324,288 C321.790861,288 320,286.209139 320,284 C320,281.790861 321.790861,280 324,280 Z M244,240 C246.209139,240 248,241.790861 248,244 C248,246.209139 246.209139,248 244,248 C241.790861,248 240,246.209139 240,244 C240,241.790861 241.790861,240 244,240 Z M284,240 C286.209139,240 288,241.790861 288,244 C288,246.209139 286.209139,248 284,248 C281.790861,248 280,246.209139 280,244 C280,241.790861 281.790861,240 284,240 Z M324,240 C326.209139,240 328,241.790861 328,244 C328,246.209139 326.209139,248 324,248 C321.790861,248 320,246.209139 320,244 C320,241.790861 321.790861,240 324,240 Z M244,200 C246.209139,200 248,201.790861 248,204 C248,206.209139 246.209139,208 244,208 C241.790861,208 240,206.209139 240,204 C240,201.790861 241.790861,200 244,200 Z M284,200 C286.209139,200 288,201.790861 288,204 C288,206.209139 286.209139,208 284,208 C281.790861,208 280,206.209139 280,204 C280,201.790861 281.790861,200 284,200 Z M324,200 C326.209139,200 328,201.790861 328,204 C328,206.209139 326.209139,208 324,208 C321.790861,208 320,206.209139 320,204 C320,201.790861 321.790861,200 324,200 Z M244,160 C246.209139,160 248,161.790861 248,164 C248,166.209139 246.209139,168 244,168 C241.790861,168 240,166.209139 240,164 C240,161.790861 241.790861,160 244,160 Z M284,160 C286.209139,160 288,161.790861 288,164 C288,166.209139 286.209139,168 284,168 C281.790861,168 280,166.209139 280,164 C280,161.790861 281.790861,160 284,160 Z M324,160 C326.209139,160 328,161.790861 328,164 C328,166.209139 326.209139,168 324,168 C321.790861,168 320,166.209139 320,164 C320,161.790861 321.790861,160 324,160 Z M244,120 C246.209139,120 248,121.790861 248,124 C248,126.209139 246.209139,128 244,128 C241.790861,128 240,126.209139 240,124 C240,121.790861 241.790861,120 244,120 Z M284,120 C286.209139,120 288,121.790861 288,124 C288,126.209139 286.209139,128 284,128 C281.790861,128 280,126.209139 280,124 C280,121.790861 281.790861,120 284,120 Z M324,120 C326.209139,120 328,121.790861 328,124 C328,126.209139 326.209139,128 324,128 C321.790861,128 320,126.209139 320,124 C320,121.790861 321.790861,120 324,120 Z M244,80 C246.209139,80 248,81.790861 248,84 C248,86.209139 246.209139,88 244,88 C241.790861,88 240,86.209139 240,84 C240,81.790861 241.790861,80 244,80 Z M284,80 C286.209139,80 288,81.790861 288,84 C288,86.209139 286.209139,88 284,88 C281.790861,88 280,86.209139 280,84 C280,81.790861 281.790861,80 284,80 Z M324,80 C326.209139,80 328,81.790861 328,84 C328,86.209139 326.209139,88 324,88 C321.790861,88 320,86.209139 320,84 C320,81.790861 321.790861,80 324,80 Z M244,40 C246.209139,40 248,41.790861 248,44 C248,46.209139 246.209139,48 244,48 C241.790861,48 240,46.209139 240,44 C240,41.790861 241.790861,40 244,40 Z M284,40 C286.209139,40 288,41.790861 288,44 C288,46.209139 286.209139,48 284,48 C281.790861,48 280,46.209139 280,44 C280,41.790861 281.790861,40 284,40 Z M324,40 C326.209139,40 328,41.790861 328,44 C328,46.209139 326.209139,48 324,48 C321.790861,48 320,46.209139 320,44 C320,41.790861 321.790861,40 324,40 Z" id="形状结合" fill="url(#linearGradient-5)" mask="url(#mask-2)"></path>
            <path d="M1454,432 C1456.20914,432 1458,433.790861 1458,436 C1458,438.209139 1456.20914,440 1454,440 C1451.79086,440 1450,438.209139 1450,436 C1450,433.790861 1451.79086,432 1454,432 Z M1494,432 C1496.20914,432 1498,433.790861 1498,436 C1498,438.209139 1496.20914,440 1494,440 C1491.79086,440 1490,438.209139 1490,436 C1490,433.790861 1491.79086,432 1494,432 Z M1534,432 C1536.20914,432 1538,433.790861 1538,436 C1538,438.209139 1536.20914,440 1534,440 C1531.79086,440 1530,438.209139 1530,436 C1530,433.790861 1531.79086,432 1534,432 Z M1574,432 C1576.20914,432 1578,433.790861 1578,436 C1578,438.209139 1576.20914,440 1574,440 C1571.79086,440 1570,438.209139 1570,436 C1570,433.790861 1571.79086,432 1574,432 Z M1614,432 C1616.20914,432 1618,433.790861 1618,436 C1618,438.209139 1616.20914,440 1614,440 C1611.79086,440 1610,438.209139 1610,436 C1610,433.790861 1611.79086,432 1614,432 Z M1654,432 C1656.20914,432 1658,433.790861 1658,436 C1658,438.209139 1656.20914,440 1654,440 C1651.79086,440 1650,438.209139 1650,436 C1650,433.790861 1651.79086,432 1654,432 Z M1454,392 C1456.20914,392 1458,393.790861 1458,396 C1458,398.209139 1456.20914,400 1454,400 C1451.79086,400 1450,398.209139 1450,396 C1450,393.790861 1451.79086,392 1454,392 Z M1494,392 C1496.20914,392 1498,393.790861 1498,396 C1498,398.209139 1496.20914,400 1494,400 C1491.79086,400 1490,398.209139 1490,396 C1490,393.790861 1491.79086,392 1494,392 Z M1534,392 C1536.20914,392 1538,393.790861 1538,396 C1538,398.209139 1536.20914,400 1534,400 C1531.79086,400 1530,398.209139 1530,396 C1530,393.790861 1531.79086,392 1534,392 Z M1574,392 C1576.20914,392 1578,393.790861 1578,396 C1578,398.209139 1576.20914,400 1574,400 C1571.79086,400 1570,398.209139 1570,396 C1570,393.790861 1571.79086,392 1574,392 Z M1614,392 C1616.20914,392 1618,393.790861 1618,396 C1618,398.209139 1616.20914,400 1614,400 C1611.79086,400 1610,398.209139 1610,396 C1610,393.790861 1611.79086,392 1614,392 Z M1654,392 C1656.20914,392 1658,393.790861 1658,396 C1658,398.209139 1656.20914,400 1654,400 C1651.79086,400 1650,398.209139 1650,396 C1650,393.790861 1651.79086,392 1654,392 Z M1454,352 C1456.20914,352 1458,353.790861 1458,356 C1458,358.209139 1456.20914,360 1454,360 C1451.79086,360 1450,358.209139 1450,356 C1450,353.790861 1451.79086,352 1454,352 Z M1494,352 C1496.20914,352 1498,353.790861 1498,356 C1498,358.209139 1496.20914,360 1494,360 C1491.79086,360 1490,358.209139 1490,356 C1490,353.790861 1491.79086,352 1494,352 Z M1534,352 C1536.20914,352 1538,353.790861 1538,356 C1538,358.209139 1536.20914,360 1534,360 C1531.79086,360 1530,358.209139 1530,356 C1530,353.790861 1531.79086,352 1534,352 Z M1574,352 C1576.20914,352 1578,353.790861 1578,356 C1578,358.209139 1576.20914,360 1574,360 C1571.79086,360 1570,358.209139 1570,356 C1570,353.790861 1571.79086,352 1574,352 Z M1614,352 C1616.20914,352 1618,353.790861 1618,356 C1618,358.209139 1616.20914,360 1614,360 C1611.79086,360 1610,358.209139 1610,356 C1610,353.790861 1611.79086,352 1614,352 Z M1654,352 C1656.20914,352 1658,353.790861 1658,356 C1658,358.209139 1656.20914,360 1654,360 C1651.79086,360 1650,358.209139 1650,356 C1650,353.790861 1651.79086,352 1654,352 Z M1454,312 C1456.20914,312 1458,313.790861 1458,316 C1458,318.209139 1456.20914,320 1454,320 C1451.79086,320 1450,318.209139 1450,316 C1450,313.790861 1451.79086,312 1454,312 Z M1494,312 C1496.20914,312 1498,313.790861 1498,316 C1498,318.209139 1496.20914,320 1494,320 C1491.79086,320 1490,318.209139 1490,316 C1490,313.790861 1491.79086,312 1494,312 Z M1534,312 C1536.20914,312 1538,313.790861 1538,316 C1538,318.209139 1536.20914,320 1534,320 C1531.79086,320 1530,318.209139 1530,316 C1530,313.790861 1531.79086,312 1534,312 Z M1614,312 C1616.20914,312 1618,313.790861 1618,316 C1618,318.209139 1616.20914,320 1614,320 C1611.79086,320 1610,318.209139 1610,316 C1610,313.790861 1611.79086,312 1614,312 Z M1574,312 C1576.20914,312 1578,313.790861 1578,316 C1578,318.209139 1576.20914,320 1574,320 C1571.79086,320 1570,318.209139 1570,316 C1570,313.790861 1571.79086,312 1574,312 Z M1654,312 C1656.20914,312 1658,313.790861 1658,316 C1658,318.209139 1656.20914,320 1654,320 C1651.79086,320 1650,318.209139 1650,316 C1650,313.790861 1651.79086,312 1654,312 Z M1454,272 C1456.20914,272 1458,273.790861 1458,276 C1458,278.209139 1456.20914,280 1454,280 C1451.79086,280 1450,278.209139 1450,276 C1450,273.790861 1451.79086,272 1454,272 Z M1494,272 C1496.20914,272 1498,273.790861 1498,276 C1498,278.209139 1496.20914,280 1494,280 C1491.79086,280 1490,278.209139 1490,276 C1490,273.790861 1491.79086,272 1494,272 Z M1534,272 C1536.20914,272 1538,273.790861 1538,276 C1538,278.209139 1536.20914,280 1534,280 C1531.79086,280 1530,278.209139 1530,276 C1530,273.790861 1531.79086,272 1534,272 Z M1574,272 C1576.20914,272 1578,273.790861 1578,276 C1578,278.209139 1576.20914,280 1574,280 C1571.79086,280 1570,278.209139 1570,276 C1570,273.790861 1571.79086,272 1574,272 Z M1614,272 C1616.20914,272 1618,273.790861 1618,276 C1618,278.209139 1616.20914,280 1614,280 C1611.79086,280 1610,278.209139 1610,276 C1610,273.790861 1611.79086,272 1614,272 Z M1654,272 C1656.20914,272 1658,273.790861 1658,276 C1658,278.209139 1656.20914,280 1654,280 C1651.79086,280 1650,278.209139 1650,276 C1650,273.790861 1651.79086,272 1654,272 Z M1454,232 C1456.20914,232 1458,233.790861 1458,236 C1458,238.209139 1456.20914,240 1454,240 C1451.79086,240 1450,238.209139 1450,236 C1450,233.790861 1451.79086,232 1454,232 Z M1494,232 C1496.20914,232 1498,233.790861 1498,236 C1498,238.209139 1496.20914,240 1494,240 C1491.79086,240 1490,238.209139 1490,236 C1490,233.790861 1491.79086,232 1494,232 Z M1534,232 C1536.20914,232 1538,233.790861 1538,236 C1538,238.209139 1536.20914,240 1534,240 C1531.79086,240 1530,238.209139 1530,236 C1530,233.790861 1531.79086,232 1534,232 Z M1574,232 C1576.20914,232 1578,233.790861 1578,236 C1578,238.209139 1576.20914,240 1574,240 C1571.79086,240 1570,238.209139 1570,236 C1570,233.790861 1571.79086,232 1574,232 Z M1614,232 C1616.20914,232 1618,233.790861 1618,236 C1618,238.209139 1616.20914,240 1614,240 C1611.79086,240 1610,238.209139 1610,236 C1610,233.790861 1611.79086,232 1614,232 Z M1654,232 C1656.20914,232 1658,233.790861 1658,236 C1658,238.209139 1656.20914,240 1654,240 C1651.79086,240 1650,238.209139 1650,236 C1650,233.790861 1651.79086,232 1654,232 Z" id="形状结合" fill="#E8F6FF" mask="url(#mask-2)"></path>
        </g>
    </g>
</svg>