<?xml version="1.0" encoding="UTF-8"?>
<svg width="28px" height="28px" viewBox="0 0 28 28" version="1.1" xmlns="http://www.w3.org/2000/svg" xmlns:xlink="http://www.w3.org/1999/xlink">
    <title>linkedin-fill</title>
    <g id="产品页" stroke="none" stroke-width="1" fill="none" fill-rule="evenodd">
        <g id="BMC" transform="translate(-1454.000000, -9183.000000)" fill-rule="nonzero">
            <g id="footer" transform="translate(0.000000, 8534.000000)">
                <g id="-">
                    <g transform="translate(1366.000000, 649.000000)">
                        <g id="linkedin-fill" transform="translate(88.000000, 0.000000)">
                            <g id="编组">
                                <rect id="矩形" stroke-opacity="0.01" stroke="#FFFFFF" stroke-width="0.1" opacity="0" x="0" y="0" width="28" height="28"></rect>
                                <path d="M24,3 C24.60675,3 25,3.39325 25,4 L25,4 L25,24 C25,24.60675 24.60675,25 24,25 L24,25 L4,25 C3.39325,25 3,24.60675 3,24 L3,24 L3,4 C3,3.39325 3.39325,3 4,3 L4,3 Z M18.0775147,8 C16.2604254,8 14.7990626,9.55401522 14.7990626,11.4610313 C14.7990626,11.728825 14.8298281,11.9966188 14.8798221,12.2542688 C12.1589953,12.104142 9.7323639,10.7327134 8.11909626,8.63296703 C7.83451508,9.14826712 7.67299603,9.73660186 7.67299603,10.3797126 C7.67299603,11.580727 8.25177262,12.6397295 9.13435885,13.2625528 C8.59596202,13.2402367 8.08833073,13.0799662 7.65184473,12.8223161 L7.65184473,12.8649197 C7.65184473,14.5467456 8.77863238,15.9404903 10.280375,16.2610313 C10.005408,16.3360947 9.71121259,16.3786982 9.41701719,16.3786982 C9.2035813,16.3786982 9.00168249,16.3563821 8.79786083,16.325951 C9.21319553,17.6973795 10.4226655,18.6934911 11.8628771,18.725951 C10.7360894,19.6571429 9.32472059,20.2049028 7.79221247,20.2049028 C7.51724552,20.2049028 7.26342988,20.1947591 7,20.1622992 C8.45367143,21.1462384 10.1784641,21.7142857 12.0359332,21.7142857 C18.0659776,21.7142857 21.3655811,16.4436179 21.3655811,11.8688081 C21.3655811,11.7186813 21.3655811,11.5685545 21.3559668,11.4184277 C21.9943516,10.9254438 22.5538998,10.3147929 23,9.62907861 C22.4116092,9.89687236 21.7713015,10.0896027 21.1117654,10.1646661 C21.7924528,9.73660186 22.3096984,9.06103128 22.5538998,8.25765004 C21.9251292,8.65325444 21.2136762,8.94336433 20.4733806,9.09349112 C19.8734527,8.41792054 19.021632,8 18.0775147,8 Z" id="形状结合" fill="#E1F3FE"></path>
                            </g>
                        </g>
                    </g>
                </g>
            </g>
        </g>
    </g>
</svg>