<?xml version="1.0" encoding="UTF-8"?>
<svg width="184px" height="105px" viewBox="0 0 184 105" version="1.1" xmlns="http://www.w3.org/2000/svg" xmlns:xlink="http://www.w3.org/1999/xlink">
    <title>youmi-logo</title>
    <g id="首页*" stroke="none" stroke-width="1" fill="none" fill-rule="evenodd">
        <g id="国际版客户证言logo" transform="translate(-106.000000, -999.000000)">
            <g id="youmi-logo" transform="translate(106.000000, 999.000000)">
                <rect id="矩形备份" fill="#FFFFFF" x="0" y="0" width="184" height="105" rx="4"></rect>
                <path d="M99.4942905,27 C110.303999,27 119.55258,34.7218768 121.426608,45.3120407 L121.426608,45.3120407 L125.898388,70.5907292 C126.608605,74.602035 123.505485,78.2786885 119.411887,78.2786885 C117.855262,78.2786885 116.426949,77.7405314 115.296905,76.8428491 C115.283398,76.8315432 115.269892,76.8202374 115.255259,76.8089316 C115.233874,76.7919729 115.213614,76.7750141 115.192229,76.7569248 C111.081749,73.3538722 105.799579,71.3052572 100.033425,71.3052572 L100.033425,71.3052572 L83.9663087,71.3052572 C78.2024065,71.3052572 72.921362,73.3527417 68.812007,76.7546637 C68.7883706,76.7738836 68.7647342,76.7931034 68.7410978,76.8111928 L68.7212602,76.8274449 L68.7212602,76.8274449 L68.7005783,76.8428491 C67.5739105,77.7405314 66.1444717,78.2786885 64.5878467,78.2786885 C60.4942493,78.2786885 57.3922547,74.602035 58.1013464,70.5907292 L58.1013464,70.5907292 L62.5742515,45.3120407 C64.4471539,34.7218768 73.6957351,27 84.5054435,27 L84.5054435,27 Z M100.14666,31.4590164 L85.2202439,31.4590164 C75.1812186,31.4590164 66.8082729,39.8288364 66.9191209,50.0581043 C66.95719,53.5799955 67.9727371,56.8680156 69.700399,59.6537313 C70.0116692,60.1537316 70.0519776,60.78046 69.7922125,61.3104142 L69.7922125,61.3104142 L67.5718927,65.8346101 C67.0557216,66.887606 68.1182952,68.0200951 69.173031,67.5419842 L69.173031,67.5419842 L73.9428557,65.3806928 C74.444471,65.1537342 75.0222244,65.2032733 75.4891298,65.4993565 C78.2457749,67.2389887 81.4939583,68.2459016 84.9683165,68.2459016 L84.9683165,68.2459016 L99.9171261,68.2459016 C109.854261,68.2459016 118.099563,60.159492 118.195855,50.0339107 C118.293267,39.808099 110.158813,31.4590164 100.14666,31.4590164 L100.14666,31.4590164 Z M100.215884,52.487259 C100.371412,51.8132216 101.019808,51.3965649 101.668205,51.5604576 C102.314412,51.7220419 102.711993,52.400696 102.556465,53.0758876 C101.857686,56.1009769 99.3002426,58.2131148 96.3375511,58.2131148 L96.3375511,58.2131148 L88.7933666,58.2131148 C85.8087698,58.2131148 83.2447548,56.0986685 82.5569284,53.0712709 C82.4046866,52.3949252 82.8044583,51.7185794 83.4517598,51.5581492 C84.0968708,51.4000274 84.7463629,51.81553 84.9007953,52.4918757 C85.3290438,54.3812581 86.9303211,55.7004786 88.7933666,55.7004786 L88.7933666,55.7004786 L96.3375511,55.7004786 C98.1841677,55.7004786 99.7788733,54.3789497 100.215884,52.487259 Z M83.0819672,39.2622951 C84.0056554,39.2622951 84.7540984,40.2602888 84.7540984,41.4918033 L84.7540984,41.4918033 L84.7540984,43.7213115 C84.7540984,44.9528259 84.0056554,45.9508197 83.0819672,45.9508197 C82.158279,45.9508197 81.4098361,44.9528259 81.4098361,43.7213115 L81.4098361,43.7213115 L81.4098361,41.4918033 C81.4098361,40.2602888 82.158279,39.2622951 83.0819672,39.2622951 Z M100.918033,39.2622951 C101.841721,39.2622951 102.590164,40.2602888 102.590164,41.4918033 L102.590164,41.4918033 L102.590164,43.7213115 C102.590164,44.9528259 101.841721,45.9508197 100.918033,45.9508197 C99.9952574,45.9508197 99.2459016,44.9528259 99.2459016,43.7213115 L99.2459016,43.7213115 L99.2459016,41.4918033 C99.2459016,40.2602888 99.9952574,39.2622951 100.918033,39.2622951 Z" id="路径-2备份" fill="#2B93F7"></path>
            </g>
        </g>
    </g>
</svg>