<?xml version="1.0" encoding="UTF-8"?>
<svg width="184px" height="105px" viewBox="0 0 184 105" version="1.1" xmlns="http://www.w3.org/2000/svg" xmlns:xlink="http://www.w3.org/1999/xlink">
    <title>yunshu-logo</title>
    <defs>
        <polygon id="path-1" points="0 76.5032258 97.7668788 76.5032258 97.7668788 0.146548387 0 0.146548387"></polygon>
    </defs>
    <g id="首页*" stroke="none" stroke-width="1" fill="none" fill-rule="evenodd">
        <g id="国际版客户证言logo" transform="translate(-106.000000, -814.000000)">
            <g id="yunshu-logo" transform="translate(106.000000, 814.000000)">
                <g id="编组-7备份-4" fill="#FFFFFF">
                    <rect id="矩形备份" x="0" y="0" width="184" height="105" rx="4"></rect>
                </g>
                <g id="编组" transform="translate(43.000000, 14.000000)">
                    <polygon id="Fill-1" fill="#7294CB" points="42.6957788 9.81988452 42.7319101 27.7276006 60.5728596 27.6908394"></polygon>
                    <polygon id="Fill-2" fill="#3D64A0" points="12.9079364 12.7661032 30.1311889 5.1282 30.2371081 28.6410194"></polygon>
                    <polygon id="Fill-3" fill="#7294CB" points="17.7308232 38.6536523 40.6489646 28.1394265 4.88292424 14.7637813"></polygon>
                    <polygon id="Fill-4" fill="#B8CBE0" points="42.6957788 9.81988452 17.7310212 38.6536523 42.7759606 48.0198329"></polygon>
                    <polygon id="Fill-5" fill="#9BB4D8" points="17.8110545 76.8534516 42.7763071 48.0196839 17.7308727 38.6535032"></polygon>
                    <polygon id="Fill-6" fill="#9BB4D8" points="17.6137182 0.496476129 4.88312222 14.763831 30.2111727 24.2353277"></polygon>
                    <polygon id="Fill-7" fill="#3D64A0" points="0 59.0487168 17.8112525 76.8536006 17.7751212 59.0119555"></polygon>
                    <g transform="translate(0.000000, 0.350226)">
                        <path d="M57.3770202,47.8624548 L48.4689192,47.8624548 C48.1877879,47.8624548 47.9309091,47.7034871 47.804697,47.450629 C47.6789798,47.1982677 47.706202,46.8967258 47.8744848,46.6706935 L52.2335051,40.8271387 C52.4799899,40.4972806 52.9452424,40.4322032 53.2733939,40.6771129 C53.6015455,40.9240097 53.6683636,41.3914742 53.4228687,41.7208355 L49.9522828,46.3721323 L55.830303,46.3721323 L53.9544444,44.0228871 C53.6980606,43.701971 53.7495354,43.2330161 54.0692727,42.9751903 C54.39,42.7188548 54.8567374,42.7700226 55.1136162,43.0909387 L57.9566061,46.6513194 C58.1347879,46.8748677 58.1699293,47.1813774 58.0466869,47.4397 C57.9229495,47.6980226 57.6626061,47.8624548 57.3770202,47.8624548" id="Fill-8" fill="#3D64A0"></path>
                        <path d="M56.1967141,38.3441619 L49.7222798,38.3441619 C49.3124616,38.3441619 48.9798556,38.0103297 48.9798556,37.5990006 C48.9798556,37.1876716 49.3124616,36.8538394 49.7222798,36.8538394 L56.1967141,36.8538394 C56.6065323,36.8538394 56.9391384,37.1876716 56.9391384,37.5990006 C56.9391384,38.0103297 56.6065323,38.3441619 56.1967141,38.3441619" id="Fill-10" fill="#7294CB"></path>
                        <path d="M58.3476162,41.7366826 L47.2676768,41.7366826 C46.8578586,41.7366826 46.5252525,41.4028503 46.5252525,40.9915213 C46.5252525,40.5801923 46.8578586,40.24636 47.2676768,40.24636 L58.3476162,40.24636 C58.7574343,40.24636 59.0900404,40.5801923 59.0900404,40.9915213 C59.0900404,41.4028503 58.7574343,41.7366826 58.3476162,41.7366826" id="Fill-12" fill="#7294CB"></path>
                        <path d="M68.6347455,41.0822819 C68.8688566,40.6456174 69.1702808,39.9898755 69.5395131,39.1145594 C69.7068061,38.6778948 70.0082303,38.4762045 70.4442808,38.5089916 C70.8125232,38.6441142 70.9634828,38.9466497 70.8966646,39.4170948 C70.7283818,40.1235077 70.275998,41.1160626 69.5395131,42.3942626 C69.5726747,42.4951077 69.6226646,42.5795594 69.6904727,42.6461271 C70.2596646,43.4876626 70.6452303,44.0589529 70.8466747,44.3619852 C71.0139677,44.7653658 70.9298263,45.0857852 70.5952404,45.3202626 C70.2260081,45.5224497 69.9240889,45.4389916 69.6904727,45.0679013 C69.6226646,45.0351142 69.5395131,44.934269 69.4390384,44.7653658 C69.0698061,44.2949206 68.8356949,43.9417142 68.7352202,43.7057465 C68.1986949,44.3793723 67.6621697,44.9506626 67.1266343,45.4211077 C66.6905838,45.7579206 66.3223414,45.8085916 66.0209172,45.5726239 C65.718998,45.303869 65.718998,44.9670561 66.0209172,44.5636755 C66.0535838,44.5303916 66.1540586,44.4121594 66.3223414,44.210469 C66.992503,43.5040561 67.4785434,42.9327658 67.7799677,42.4951077 C67.5112101,42.0584432 66.9583515,41.2511852 66.1213919,40.0733335 C65.8526343,39.7375142 65.8862909,39.4170948 66.2218667,39.1145594 C66.5901091,38.8795852 66.9256848,38.912869 67.2271091,39.2154045 C67.629503,39.7201271 68.0982202,40.3430819 68.6347455,41.0822819 L68.6347455,41.0822819 Z M61.3961091,38.2064561 L61.3961091,36.6421142 C61.3961091,36.2725142 61.6302202,36.0708239 62.0999273,36.0370432 C62.5349879,36.0708239 62.7695939,36.2725142 62.8037455,36.6421142 L62.8037455,38.2064561 L63.4065939,38.2064561 C63.7753313,38.2402368 63.9762808,38.4925981 64.0099374,38.9630432 C63.9762808,39.4349787 63.7753313,39.6694561 63.4065939,39.6694561 L62.8037455,39.6694561 L62.8037455,40.42654 C63.5075636,41.2005142 63.8921394,41.6043916 63.9599475,41.6371787 C64.1272404,41.8731465 64.2108869,42.0241658 64.2108869,42.0912303 L64.2108869,37.7524045 C64.1772303,36.9451465 64.4954828,36.5591529 65.1661394,36.59194 L70.6452303,36.59194 C71.0476242,36.6257206 71.2649071,36.8780819 71.2990586,37.3485271 C71.2312505,37.7861852 70.9971394,38.0047658 70.5952404,38.0047658 L65.7694828,38.0047658 C65.6348566,38.0385465 65.5685333,38.105611 65.5685333,38.2064561 L65.5685333,46.0773465 C65.5343818,46.2462497 65.6012,46.3297077 65.7694828,46.3297077 L70.7462,46.3297077 C71.1144424,46.3634884 71.3153919,46.5651787 71.3490485,46.9347787 C71.3490485,47.3714432 71.1644323,47.607411 70.7961899,47.6411916 L65.2166242,47.6411916 C64.5128061,47.6411916 64.1772303,47.3386561 64.2108869,46.7330884 L64.2108869,42.9993335 C64.0099374,43.2015206 63.8089879,43.2690819 63.6080384,43.2015206 C63.4065939,43.2015206 63.1383313,42.9665465 62.8037455,42.4951077 L62.8037455,47.4395013 C62.7695939,47.8428819 62.5349879,48.0614626 62.0999273,48.0952432 C61.6302202,48.0614626 61.3961091,47.8428819 61.3961091,47.4395013 L61.3961091,43.8065916 C61.1610081,44.4121594 60.9763919,44.7827529 60.8432505,44.9168819 C60.5413313,45.2194174 60.2062505,45.2874755 59.8380081,45.1185723 C59.5692505,44.9506626 59.486099,44.6645206 59.5865737,44.2606432 C59.5865737,44.2278561 59.6533919,44.07634 59.7875232,43.8065916 C60.3908667,42.4951077 60.8932404,41.1160626 61.2956343,39.6694561 L60.3403818,39.6694561 C59.9043313,39.6694561 59.6697253,39.4349787 59.6365636,38.9630432 C59.6697253,38.4925981 59.9043313,38.2402368 60.3403818,38.2064561 L61.3961091,38.2064561 Z" id="Fill-14" fill="#7294CB"></path>
                        <path d="M81.050999,38.1055116 L79.1909788,38.1055116 L79.1909788,41.0821826 L81.3524232,41.0821826 L81.3524232,38.4080471 C81.3524232,38.2063568 81.2519485,38.1055116 81.050999,38.1055116 M76.8285848,36.6926858 L82.0062515,36.6926858 C82.5417869,36.6926858 82.8105444,36.9788277 82.8105444,37.5506148 L82.8105444,43.5546277 C82.8105444,44.8333245 82.893696,45.6231955 83.0614838,45.925731 C83.1624535,45.925731 83.2287768,45.6231955 83.2629283,45.0176277 L83.2629283,44.2610406 C83.2629283,43.8909439 83.4133929,43.6892535 83.7153121,43.6554729 C83.9830798,43.6892535 84.1340394,43.8909439 84.167696,44.2610406 L84.167696,45.4215052 C84.167696,47.2377116 83.7821303,48.1284277 83.0114939,48.0951439 C81.9384434,47.9267374 81.4029081,46.6321439 81.4029081,44.2103697 L81.4029081,42.5958535 L79.1909788,42.5958535 L79.1909788,47.5402471 C79.1573222,47.9441245 78.9058879,48.1622084 78.4371707,48.195989 C77.9674636,48.1622084 77.7333525,47.9441245 77.7333525,47.5402471 L77.7333525,42.5958535 L76.6776253,42.5958535 C76.2757263,42.5958535 76.0742818,42.3608794 76.0742818,41.8894406 C76.0742818,41.4189955 76.2757263,41.1666342 76.6776253,41.1328535 L77.7333525,41.1328535 L77.7333525,38.1561826 L76.8285848,38.1561826 C76.4261909,38.1561826 76.2252414,37.9212084 76.2252414,37.4497697 C76.2252414,36.9788277 76.4261909,36.7269632 76.8285848,36.6926858 M72.9075949,39.3668213 L74.1137869,39.3668213 C74.7839485,39.3668213 75.1017061,39.6693568 75.0690394,40.2749245 L75.0690394,45.3201632 C75.0353828,45.556131 75.2363323,45.2535955 75.6723828,44.41206 C75.905999,44.0767374 76.2252414,44.0086794 76.6271404,44.2103697 C76.9290596,44.4463374 76.9958778,44.7652665 76.8285848,45.1691439 C76.1247667,46.4806277 75.4209485,47.3047761 74.7171303,47.6410923 C74.0133121,47.8090019 73.6440798,47.472189 73.6114131,46.6321439 L73.6114131,41.0320084 C73.6114131,40.9306665 73.5609283,40.8804923 73.4604535,40.8804923 L72.9075949,40.8804923 C72.505201,40.8804923 72.3042515,40.628131 72.3042515,40.1234084 C72.3042515,39.6529632 72.505201,39.4006019 72.9075949,39.3668213" id="Fill-16" fill="#7294CB"></path>
                        <path d="M92.8640576,38.6100355 L94.0202596,38.6100355 C94.3548455,37.9716806 94.5894515,37.4669581 94.7240778,37.0963645 C94.8245525,36.9284548 94.9250273,36.7267645 95.025502,36.4907968 C95.1591384,36.2220419 95.4442293,36.1554742 95.8802798,36.2891065 C96.2148657,36.4907968 96.348997,36.7431581 96.2821788,37.0461903 C96.181704,37.2478806 96.0639061,37.517629 95.9302697,37.8534484 C95.7961384,38.1559839 95.6788354,38.4083452 95.5783606,38.6100355 L96.584098,38.6100355 C96.9181889,38.6438161 97.1028051,38.8797839 97.1369566,39.3164484 C97.1028051,39.7878871 96.9181889,40.0228613 96.584098,40.0228613 L94.5731182,40.0228613 L94.5731182,41.8390677 L96.7345626,41.8390677 C97.1028051,41.8728484 97.3042495,42.1088161 97.3379061,42.5454806 C97.3042495,43.0169194 97.1028051,43.2518935 96.7345626,43.2518935 L94.9250273,43.2518935 C95.3600879,44.6314355 96.0639061,45.8246871 97.0364818,46.8341323 C97.270098,47.1694548 97.2374313,47.5226613 96.9360071,47.8932548 C96.6004313,48.1625065 96.2821788,48.1456161 95.9807545,47.8430806 C95.0759869,46.9349774 94.3721687,45.7581194 93.8693,44.3115129 C93.1986434,45.8927452 92.2938758,47.1028871 91.154997,47.9439258 C90.752603,48.1456161 90.4006939,48.0611645 90.0992697,47.6915645 C89.8641687,47.320971 89.9309869,47.0020419 90.3002192,46.7332871 C91.6400475,45.7919 92.4443404,44.6314355 92.713098,43.2518935 L90.5016636,43.2518935 C90.1319364,43.2518935 89.9309869,43.0169194 89.8983202,42.5454806 C89.9309869,42.1088161 90.1319364,41.8728484 90.5016636,41.8390677 L93.1154919,41.8390677 L93.1154919,40.0228613 L90.8030879,40.0228613 C90.4338556,40.0228613 90.2329061,39.7878871 90.1997444,39.3164484 C90.2329061,38.8797839 90.4338556,38.6438161 90.8030879,38.6100355 L91.8588152,38.6100355 C91.7241889,38.542971 91.6400475,38.4257323 91.6073808,38.256829 C91.5069061,38.0889194 91.3386232,37.8027774 91.1045121,37.3989 C91.037199,37.2980548 91.0040374,37.2145968 91.0040374,37.1470355 C90.8030879,36.8112161 90.8699061,36.5250742 91.2049869,36.2891065 C91.6073808,36.0874161 91.9419667,36.1211968 92.2107242,36.3899516 C92.4443404,36.8276097 92.6957747,37.2980548 92.9645323,37.8027774 C93.0981687,38.173371 93.0650071,38.4421258 92.8640576,38.6100355 L92.8640576,38.6100355 Z M88.440199,44.7148935 L88.440199,43.3020677 L87.3849667,43.3020677 L87.3849667,44.9165839 L88.440199,44.7148935 Z M87.3849667,41.9399129 L88.4406939,41.9399129 L88.4406939,40.6786032 L87.3849667,40.6786032 L87.3849667,41.9399129 Z M87.3844717,39.3164484 L88.440199,39.3164484 L88.440199,38.0551387 L87.3844717,38.0551387 L87.3844717,39.3164484 Z M85.9773303,36.5921387 L90.0992697,36.5921387 C90.4338556,36.6259194 90.6184717,36.8782806 90.6521283,37.3487258 C90.6184717,37.8201645 90.4338556,38.0551387 90.0992697,38.0551387 L89.8478354,38.0551387 L89.8478354,44.3616871 L89.9987949,44.3616871 C90.3670374,44.2946226 90.6184717,44.4799194 90.752603,44.9165839 C90.8535727,45.4213065 90.7189465,45.7074484 90.350704,45.7745129 L89.8478354,45.8753581 L89.8478354,47.5405452 C89.8141788,47.9101452 89.5790778,48.1118355 89.1440172,48.1456161 C88.6743101,48.1118355 88.440199,47.9101452 88.440199,47.5405452 L88.440199,46.2285645 L86.1282899,46.7332871 C85.725896,46.7332871 85.4571384,46.5653774 85.323997,46.2285645 C85.1893707,45.7581194 85.3061788,45.4550871 85.6759061,45.3204613 L85.9773303,45.2697903 L85.9773303,38.0551387 C85.608098,38.0218548 85.4244717,37.7863839 85.4244717,37.3487258 C85.4244717,36.8782806 85.608098,36.6259194 85.9773303,36.5921387 L85.9773303,36.5921387 Z" id="Fill-18" fill="#7294CB"></path>
                        <path d="M56.0178394,37.4787316 C56.0178394,38.2631381 55.384304,38.8985123 54.6032737,38.8985123 C53.8217485,38.8985123 53.1877182,38.2631381 53.1877182,37.4787316 C53.1877182,36.6943252 53.8217485,36.058951 54.6032737,36.058951 C55.384304,36.058951 56.0178394,36.6943252 56.0178394,37.4787316" id="Fill-20" fill="#7294CB"></path>
                        <path d="M49.0363788,40.9037413 C49.0363788,41.6881477 48.4028434,42.3240187 47.6218131,42.3240187 C46.8402879,42.3240187 46.2062576,41.6881477 46.2062576,40.9037413 C46.2062576,40.1198316 46.8402879,39.4839606 47.6218131,39.4839606 C48.4028434,39.4839606 49.0363788,40.1198316 49.0363788,40.9037413" id="Fill-22" fill="#7294CB"></path>
                        <path d="M75.6669879,37.4787316 C75.6669879,38.2631381 75.0339475,38.8985123 74.2524222,38.8985123 C73.470897,38.8985123 72.8373616,38.2631381 72.8373616,37.4787316 C72.8373616,36.6943252 73.470897,36.058951 74.2524222,36.058951 C75.0339475,36.058951 75.6669879,36.6943252 75.6669879,37.4787316" id="Fill-24" fill="#7294CB"></path>
                        <path d="M75.2614263,37.1914968 C75.2614263,37.7503677 74.8100323,38.2034258 74.2532141,38.2034258 C73.696396,38.2034258 73.245002,37.7503677 73.245002,37.1914968 C73.245002,36.632129 73.696396,36.179071 74.2532141,36.179071 C74.8100323,36.179071 75.2614263,36.632129 75.2614263,37.1914968" id="Fill-26" fill="#FEFEFE"></path>
                        <path d="M74.7573202,37.1914968 C74.7573202,37.4706839 74.5316232,37.6977097 74.2529667,37.6977097 C73.9748051,37.6977097 73.7491081,37.4706839 73.7491081,37.1914968 C73.7491081,36.9118129 73.9748051,36.6847871 74.2529667,36.6847871 C74.5316232,36.6847871 74.7573202,36.9118129 74.7573202,37.1914968" id="Fill-28" fill="#7294CB"></path>
                        <path d="M55.6113869,37.4787316 C55.6113869,38.0376026 55.1599929,38.4906606 54.6031747,38.4906606 C54.0458616,38.4906606 53.5944677,38.0376026 53.5944677,37.4787316 C53.5944677,36.9198606 54.0458616,36.4663058 54.6031747,36.4663058 C55.1599929,36.4663058 55.6113869,36.9198606 55.6113869,37.4787316" id="Fill-30" fill="#FEFEFE"></path>
                        <path d="M48.6298768,40.9037413 C48.6298768,41.463109 48.1784828,41.9161671 47.6216646,41.9161671 C47.0643515,41.9161671 46.6129576,41.463109 46.6129576,40.9037413 C46.6129576,40.3448703 47.0643515,39.8918123 47.6216646,39.8918123 C48.1784828,39.8918123 48.6298768,40.3448703 48.6298768,40.9037413" id="Fill-32" fill="#FEFEFE"></path>
                        <path d="M47.8280091,53.2134581 L49.9508475,53.2134581 C50.4423323,53.2134581 50.8303727,53.0862839 51.1075444,52.8319355 C51.3614535,52.5934839 51.4881606,52.2834968 51.4881606,51.8940258 C51.4881606,51.4643161 51.3688778,51.1463806 51.131797,50.9238258 C50.8699687,50.6848774 50.4740091,50.5740968 49.9429283,50.5740968 L47.8280091,50.5740968 L47.8280091,53.2134581 Z M49.9429283,50.3828387 C50.4898475,50.3828387 50.9174838,50.5105097 51.2263323,50.7807548 C51.5277566,51.0346065 51.6782212,51.4086774 51.6782212,51.8940258 C51.6782212,52.2437548 51.5747768,52.5537419 51.3852111,52.8160387 C51.1793121,53.0703871 50.9016455,53.2293548 50.5373626,53.3088387 L50.5373626,53.3252323 C51.1629788,53.4603548 51.503999,53.8254839 51.5594333,54.4141613 L51.6307061,55.2253935 C51.6623828,55.5751226 51.7336556,55.8533161 51.8598677,56.0599742 L51.6465444,56.0599742 C51.5351808,55.8533161 51.4718273,55.5910194 51.4480697,55.2730839 L51.3772919,54.4300581 C51.3451202,54.0564839 51.1867364,53.7862387 50.9174838,53.6188258 C50.6799081,53.4757548 50.3631404,53.4047161 49.9592616,53.4047161 L47.8280091,53.4047161 L47.8280091,56.0599742 L47.6374535,56.0599742 L47.6374535,50.3828387 L49.9429283,50.3828387 Z" id="Fill-34" fill="#878787"></path>
                        <path d="M53.1100111,52.6332258 C52.8249202,52.9988516 52.6823747,53.4603548 52.6823747,54.0087935 C52.6823747,54.5492839 52.8249202,55.0107871 53.1100111,55.3764129 C53.4188596,55.7738323 53.8390717,55.9804903 54.3696576,55.9804903 C54.8928192,55.9804903 55.3125364,55.7738323 55.629304,55.3764129 C55.9143949,55.0107871 56.0569404,54.5492839 56.0569404,54.0087935 C56.0569404,53.4603548 55.9143949,52.9988516 55.629304,52.6332258 C55.3125364,52.2278581 54.8928192,52.0286516 54.3696576,52.0286516 C53.8390717,52.0286516 53.4188596,52.2278581 53.1100111,52.6332258 M55.7802636,52.5214516 C56.0891121,52.9193677 56.247496,53.4206129 56.247496,54.0087935 C56.247496,54.5895226 56.0891121,55.0823226 55.7802636,55.4961355 C55.4308293,55.9407484 54.9556778,56.1717484 54.3696576,56.1717484 C53.7757182,56.1717484 53.3079909,55.9407484 52.9595465,55.4961355 C52.6427788,55.0823226 52.4923141,54.5895226 52.4923141,54.0087935 C52.4923141,53.4206129 52.6427788,52.9193677 52.9595465,52.5214516 C53.3079909,52.0609419 53.7757182,51.8378903 54.3696576,51.8378903 C54.9556778,51.8378903 55.4308293,52.0609419 55.7802636,52.5214516" id="Fill-36" fill="#878787"></path>
                        <path d="M59.0180253,53.9450077 C57.766298,53.9450077 57.148601,54.3270271 57.148601,55.090569 C57.148601,55.3608142 57.2515505,55.583369 57.4653687,55.7423368 C57.6712677,55.9013045 57.9563586,55.9807884 58.305298,55.9807884 C58.7646111,55.9807884 59.1927424,55.8059239 59.5882071,55.4715948 C59.9688232,55.1541561 60.1588838,54.8277755 60.1588838,54.50984 L60.1588838,53.9370594 L59.0180253,53.9450077 Z M60.0005,52.3150916 C60.2301566,52.5858335 60.3489444,52.9430142 60.3489444,53.396569 L60.3489444,56.0602723 L60.1588838,56.0602723 L60.1588838,55.1144142 C59.9846616,55.376711 59.7545101,55.6072142 59.4615,55.8059239 C59.0813788,56.0443755 58.6933384,56.1715497 58.2815404,56.1715497 C57.9009242,56.1715497 57.5841566,56.076169 57.3465808,55.8854077 C57.0852475,55.6866981 56.9585404,55.4164529 56.9585404,55.0821239 C56.9585404,54.6052206 57.1560253,54.2554916 57.560399,54.0403884 C57.8935,53.8501239 58.3844899,53.7542465 59.0180253,53.7542465 L60.1588838,53.7467948 L60.1588838,53.4442594 C60.1588838,52.4979045 59.6911566,52.0289497 58.7725303,52.0289497 C58.3919141,52.0289497 58.0672273,52.1084335 57.8138131,52.2832981 C57.5366414,52.4581626 57.3624192,52.7204594 57.2911465,53.0547884 L57.1090051,53.0388916 C57.188197,52.6494206 57.3782576,52.3468852 57.687601,52.1402271 C57.9726919,51.933569 58.3369747,51.8381884 58.7725303,51.8381884 C59.3189545,51.8381884 59.7307525,51.9971561 60.0005,52.3150916 L60.0005,52.3150916 Z" id="Fill-38" fill="#878787"></path>
                        <path d="M61.8127081,52.6249794 C61.5434556,52.9831535 61.4088293,53.44416 61.4088293,54.0084955 C61.4088293,54.5733277 61.5350414,55.034831 61.8042939,55.4004568 C62.0903747,55.7819794 62.4937586,55.980689 63.009001,55.980689 C63.5158293,55.980689 63.9043646,55.7899277 64.1894556,55.4163535 C64.4507889,55.0661277 64.5859101,54.6215148 64.5859101,54.0805277 L64.5859101,53.9692503 C64.5859101,53.4123665 64.4507889,52.9593084 64.1968798,52.6095794 C63.9043646,52.2201084 63.5079101,52.0288503 63.009001,52.0288503 C62.5021727,52.0288503 62.097799,52.22756 61.8127081,52.6249794 L61.8127081,52.6249794 Z M64.7754758,50.27176 L64.7754758,56.0601729 L64.5859101,56.0601729 L64.5859101,55.0025406 C64.3003242,55.7819794 63.7776576,56.1719471 63.009001,56.1719471 C62.4224859,56.1719471 61.9710919,55.9488955 61.6543242,55.5117342 C61.3613141,55.1143148 61.2187687,54.6130697 61.2187687,54.0084955 C61.2187687,53.4044181 61.3613141,52.9116181 61.6617485,52.5137019 C61.9869303,52.0606439 62.4388192,51.838089 63.009001,51.838089 C63.7850818,51.838089 64.3082434,52.22756 64.5859101,53.0149471 L64.5859101,50.27176 L64.7754758,50.27176 Z" id="Fill-40" fill="#878787"></path>
                        <path d="M68.9000879,52.6332258 C68.614997,52.9988516 68.4724515,53.4603548 68.4724515,54.0087935 C68.4724515,54.5492839 68.614997,55.0107871 68.9000879,55.3764129 C69.2089364,55.7738323 69.6291485,55.9804903 70.1597343,55.9804903 C70.682896,55.9804903 71.1026131,55.7738323 71.4193808,55.3764129 C71.7044717,55.0107871 71.8470172,54.5492839 71.8470172,54.0087935 C71.8470172,53.4603548 71.7044717,52.9988516 71.4193808,52.6332258 C71.1026131,52.2278581 70.682896,52.0286516 70.1597343,52.0286516 C69.6291485,52.0286516 69.2089364,52.2278581 68.9000879,52.6332258 M71.5703404,52.5214516 C71.8791889,52.9193677 72.0375727,53.4206129 72.0375727,54.0087935 C72.0375727,54.5895226 71.8791889,55.0823226 71.5703404,55.4961355 C71.2209061,55.9407484 70.7457545,56.1717484 70.1597343,56.1717484 C69.5657949,56.1717484 69.0980677,55.9407484 68.7496232,55.4961355 C68.4328556,55.0823226 68.2823909,54.5895226 68.2823909,54.0087935 C68.2823909,53.4206129 68.4328556,52.9193677 68.7496232,52.5214516 C69.0980677,52.0609419 69.5657949,51.8378903 70.1597343,51.8378903 C70.7457545,51.8378903 71.2209061,52.0609419 71.5703404,52.5214516" id="Fill-42" fill="#878787"></path>
                        <path d="M75.2440535,50.3826897 L75.2440535,50.5739477 L74.5946798,50.5739477 C74.3249323,50.5739477 74.1269525,50.6375348 74.0160838,50.7806058 C73.896801,50.90778 73.8413667,51.1303348 73.8413667,51.4323735 L73.8413667,51.9490187 L75.1886192,51.9490187 L75.1886192,52.1402768 L73.8413667,52.1402768 L73.8413667,56.0603219 L73.6513061,56.0603219 L73.6513061,52.1402768 L72.4312556,52.1402768 L72.4312556,51.9490187 L73.6513061,51.9490187 L73.6513061,51.4323735 C73.6513061,51.0980445 73.7230737,50.8441929 73.8730434,50.6688316 C74.0319222,50.4780703 74.269498,50.3826897 74.602104,50.3826897 L75.2440535,50.3826897 Z" id="Fill-44" fill="#878787"></path>
                        <path d="M82.4111202,50.7407148 C82.8709283,51.0745471 83.1322616,51.5196568 83.1956152,52.0606439 L83.0134737,52.0606439 C82.9501202,51.5832439 82.7120495,51.1937729 82.3002515,50.8917342 C81.9042919,50.6055923 81.4449788,50.4620245 80.9376556,50.4620245 C80.1769182,50.4620245 79.5671404,50.7327665 79.1078273,51.2891535 C78.6801909,51.8142439 78.4658778,52.4665084 78.4658778,53.2613471 C78.4658778,54.0407858 78.6801909,54.6766568 79.1078273,55.1853535 C79.5433828,55.7104439 80.1219788,55.980689 80.8510394,55.980689 C81.3895444,55.980689 81.8567768,55.8296697 82.2606556,55.527631 C82.7046253,55.1937987 82.981797,54.7322955 83.0926657,54.1441148 L83.2748071,54.1441148 C83.1560192,54.7958826 82.8630091,55.3050761 82.3873626,55.6707019 C81.9518071,56.005031 81.4365646,56.1719471 80.8510394,56.1719471 C80.0665444,56.1719471 79.4325141,55.8853084 78.9568677,55.3130245 C78.4980495,54.7645858 78.2763121,54.0805277 78.2763121,53.2613471 C78.2763121,52.4267665 78.5054737,51.7263148 78.9652818,51.1699277 C79.4562717,50.5653535 80.1135646,50.27176 80.9376556,50.27176 C81.4924939,50.27176 81.9834838,50.4222826 82.4111202,50.7407148" id="Fill-46" fill="#878787"></path>
                        <mask id="mask-2" fill="white">
                            <use xlink:href="#path-1"></use>
                        </mask>
                        <g id="Clip-49"></g>
                        <polygon id="Fill-48" fill="#878787" mask="url(#mask-2)" points="84.3418687 56.0599742 84.5324242 56.0599742 84.5324242 50.2715613 84.3418687 50.2715613"></polygon>
                        <path d="M86.2189646,52.6332258 C85.9338737,52.9988516 85.7913283,53.4603548 85.7913283,54.0087935 C85.7913283,54.5492839 85.9338737,55.0107871 86.2189646,55.3764129 C86.5278131,55.7738323 86.9480253,55.9804903 87.4786111,55.9804903 C88.0017727,55.9804903 88.4214899,55.7738323 88.7382576,55.3764129 C89.0233485,55.0107871 89.1658939,54.5492839 89.1658939,54.0087935 C89.1658939,53.4603548 89.0233485,52.9988516 88.7382576,52.6332258 C88.4214899,52.2278581 88.0017727,52.0286516 87.4786111,52.0286516 C86.9480253,52.0286516 86.5278131,52.2278581 86.2189646,52.6332258 M88.8892172,52.5214516 C89.1980657,52.9193677 89.3564495,53.4206129 89.3564495,54.0087935 C89.3564495,54.5895226 89.1980657,55.0823226 88.8892172,55.4961355 C88.5402778,55.9407484 88.0646313,56.1717484 87.4786111,56.1717484 C86.8846717,56.1717484 86.4169444,55.9407484 86.0685,55.4961355 C85.7517323,55.0823226 85.6012677,54.5895226 85.6012677,54.0087935 C85.6012677,53.4206129 85.7517323,52.9193677 86.0685,52.5214516 C86.4169444,52.0609419 86.8846717,51.8378903 87.4786111,51.8378903 C88.0646313,51.8378903 88.5402778,52.0609419 88.8892172,52.5214516" id="Fill-50" fill="#878787" mask="url(#mask-2)"></path>
                        <path d="M90.4163838,51.9492174 L90.4163838,54.4698497 C90.4163838,54.9551981 90.5193333,55.3287723 90.7252323,55.5831206 C90.9469697,55.8459142 91.2795758,55.98054 91.7393838,55.98054 C92.1358384,55.98054 92.4758687,55.837469 92.7456162,55.5513271 C93.0148687,55.2651852 93.1494949,54.891611 93.1494949,54.4385529 L93.1494949,51.9492174 L93.3395556,51.9492174 L93.3395556,56.0600239 L93.1494949,56.0600239 L93.1494949,55.2572368 C92.8485657,55.8613142 92.3813333,56.1717981 91.7393838,56.1717981 C90.7252323,56.1717981 90.2258283,55.5995142 90.2258283,54.4698497 L90.2258283,51.9492174 L90.4163838,51.9492174 Z" id="Fill-51" fill="#878787" mask="url(#mask-2)"></path>
                        <path d="M94.8037152,52.6249794 C94.5344626,52.9831535 94.3998364,53.44416 94.3998364,54.0084955 C94.3998364,54.5733277 94.5260485,55.034831 94.795301,55.4004568 C95.0813818,55.7819794 95.4847657,55.980689 96.0000081,55.980689 C96.5068364,55.980689 96.8953717,55.7899277 97.1804626,55.4163535 C97.441796,55.0661277 97.5769172,54.6215148 97.5769172,54.0805277 L97.5769172,53.9692503 C97.5769172,53.4123665 97.441796,52.9593084 97.1878869,52.6095794 C96.8953717,52.2201084 96.4989172,52.0288503 96.0000081,52.0288503 C95.4931798,52.0288503 95.0888061,52.22756 94.8037152,52.6249794 L94.8037152,52.6249794 Z M97.7664828,50.27176 L97.7664828,56.0601729 L97.5769172,56.0601729 L97.5769172,55.0025406 C97.2913313,55.7819794 96.7686646,56.1719471 96.0000081,56.1719471 C95.4134929,56.1719471 94.962099,55.9488955 94.6453313,55.5117342 C94.3523212,55.1143148 94.2097758,54.6130697 94.2097758,54.0084955 C94.2097758,53.4044181 94.3523212,52.9116181 94.6527556,52.5137019 C94.9779374,52.0606439 95.4298263,51.838089 96.0000081,51.838089 C96.7760889,51.838089 97.2992505,52.22756 97.5769172,53.0149471 L97.5769172,50.27176 L97.7664828,50.27176 Z" id="Fill-52" fill="#878787" mask="url(#mask-2)"></path>
                    </g>
                </g>
            </g>
        </g>
    </g>
</svg>