<?xml version="1.0" encoding="UTF-8"?>
<svg width="184px" height="105px" viewBox="0 0 184 105" version="1.1" xmlns="http://www.w3.org/2000/svg" xmlns:xlink="http://www.w3.org/1999/xlink">
    <title>zego</title>
    <defs>
        <polygon id="path-1" points="0.655619437 0.422 56.54 0.422 56.54 30.9996 0.655619437 30.9996"></polygon>
    </defs>
    <g id="首页*" stroke="none" stroke-width="1" fill="none" fill-rule="evenodd">
        <g id="中国版客户证言" transform="translate(-106.000000, -1526.000000)">
            <g id="zego" transform="translate(106.000000, 1526.000000)">
                <rect id="矩形备份" fill="#FFFFFF" x="0" y="0" width="184" height="105" rx="4"></rect>
                <g id="编组" transform="translate(38.000000, 36.000000)">
                    <g transform="translate(52.000000, 0.578400)">
                        <mask id="mask-2" fill="white">
                            <use xlink:href="#path-1"></use>
                        </mask>
                        <g id="Clip-2"></g>
                        <path d="M15.9532,0.4216 C16.6092,0.4216 17.2752,0.4636 17.9342,0.5466 C23.6032,1.2596 28.5842,5.3656 30.4352,10.8106 L24.6662,10.8106 C22.8902,7.6466 19.5452,5.6876 15.8982,5.6876 C15.3492,5.6876 14.7942,5.7326 14.2502,5.8216 C10.1062,6.5016 6.7382,9.8706 6.0572,14.0146 C5.5212,17.2836 6.5402,20.4856 8.8552,22.8016 C10.7492,24.6946 13.2652,25.7376 15.9392,25.7376 C16.5032,25.7376 17.0752,25.6916 17.6402,25.5986 C20.8832,25.0666 23.6542,22.9256 25.0512,19.8736 L25.1532,19.6526 L25.3152,19.2986 L24.9262,19.2986 L17.3922,19.2986 L17.3922,14.6666 L31.2172,14.6656 L31.2262,15.0346 C31.2222,15.0966 31.2252,15.2216 31.2302,15.3466 C31.2332,15.4186 31.2362,15.4866 31.2342,15.5266 C31.1822,18.5146 32.4462,21.3486 34.7032,23.3016 C36.5192,24.8706 38.8532,25.7346 41.2742,25.7346 C41.8312,25.7346 42.3942,25.6896 42.9472,25.5986 C47.0902,24.9186 50.4592,21.5496 51.1392,17.4046 C51.6752,14.1356 50.6562,10.9336 48.3422,8.6196 C46.4472,6.7256 43.9312,5.6826 41.2572,5.6826 C40.6942,5.6826 40.1212,5.7296 39.5562,5.8216 C37.2832,6.1946 35.1382,7.4296 33.6062,9.2336 C32.9722,7.5036 32.0902,5.8836 30.9772,4.4076 C33.7932,1.8356 37.4422,0.4216 41.2762,0.4216 C41.9292,0.4216 42.5892,0.4636 43.2412,0.5466 C50.0192,1.4006 55.5602,6.9416 56.4162,13.7206 C57.0162,18.4886 55.4302,23.1546 52.0632,26.5226 C49.1742,29.4096 45.3322,30.9996 41.2452,30.9996 C40.5872,30.9996 39.9192,30.9576 39.2612,30.8746 C35.1722,30.3586 31.4002,28.1196 28.9122,24.7336 L28.7872,24.5616 L28.5852,24.2836 L28.3832,24.5616 L28.2582,24.7326 C25.3422,28.7156 20.8572,30.9996 15.9552,30.9996 C15.2932,30.9996 14.6202,30.9576 13.9552,30.8746 C7.1742,30.0196 1.6332,24.4796 0.7802,17.7006 C0.1802,12.9316 1.7662,8.2656 5.1332,4.8996 C8.0202,2.0116 11.8632,0.4216 15.9532,0.4216" id="Fill-1" fill="#0044FF" mask="url(#mask-2)"></path>
                    </g>
                    <polygon id="Fill-3" fill="#141921" points="49.6387 2.0556 49.6387 6.8256 33.4077 6.8256 33.2577 6.8256 33.2577 6.9746 33.2577 13.7166 33.2577 13.8666 33.4077 13.8666 47.1697 13.8666 47.1697 18.7506 33.4077 18.7506 33.2577 18.7506 33.2577 18.9016 33.2577 25.5866 33.2577 25.7376 33.4077 25.7376 49.6387 25.7376 49.6387 30.4686 27.7347 30.4686 27.7347 2.0556"></polygon>
                    <polygon id="Fill-5" fill="#141921" points="23.084 2.0551 23.079 6.3841 8.211 25.5071 8.023 25.7491 8.33 25.7491 23.446 25.7491 23.446 30.4781 0 30.4781 0 26.7271 15.629 7.0631 15.823 6.8201 15.512 6.8201 0.416 6.8201 0.416 2.0551"></polygon>
                </g>
            </g>
        </g>
    </g>
</svg>