<?xml version="1.0" encoding="UTF-8"?>
<svg width="110px" height="110px" viewBox="0 0 110 110" version="1.1" xmlns="http://www.w3.org/2000/svg" xmlns:xlink="http://www.w3.org/1999/xlink">
    <title>BMC</title>
    <defs>
        <linearGradient x1="50%" y1="0%" x2="50%" y2="100%" id="linearGradient-1">
            <stop stop-color="#E9C7FF" offset="0%"></stop>
            <stop stop-color="#CF96FF" offset="100%"></stop>
        </linearGradient>
        <linearGradient x1="50%" y1="0%" x2="50%" y2="100%" id="linearGradient-2">
            <stop stop-color="#C74EFA" offset="0%"></stop>
            <stop stop-color="#9626F4" offset="100%"></stop>
        </linearGradient>
        <linearGradient x1="50%" y1="0%" x2="50%" y2="100%" id="linearGradient-3">
            <stop stop-color="#E9C7FF" offset="0%"></stop>
            <stop stop-color="#CF96FF" offset="100%"></stop>
        </linearGradient>
        <linearGradient x1="50%" y1="0%" x2="50%" y2="100%" id="linearGradient-4">
            <stop stop-color="#C74EFA" offset="0%"></stop>
            <stop stop-color="#9626F4" offset="100%"></stop>
        </linearGradient>
    </defs>
    <g id="产品页" stroke="none" stroke-width="1" fill="none" fill-rule="evenodd">
        <g id="Edge-Data-Center-Services" transform="translate(-593.000000, -7169.000000)">
            <g id="complete-solution" transform="translate(0.000000, 6635.000000)">
                <g transform="translate(348.000000, 246.000000)" id="bmc">
                    <g transform="translate(156.000000, 276.000000)">
                        <g id="BMC" transform="translate(89.000000, 12.000000)">
                            <g id="编组" transform="translate(15.277778, 12.222222)">
                                <path d="M74.8460057,62.4205635 C75.6920427,61.8343156 76.1974894,60.8658822 76.1974894,59.8311273 C76.1974894,58.7963724 75.6920427,57.8279389 74.8460057,57.241691 L59.4039603,46.4538361 L41.9848452,34.3580965 C40.9193357,33.6218724 39.5142743,33.6218724 38.4487649,34.3580965 L21.0819072,46.4538361 L5.63115215,57.241691 C4.79241126,57.8329398 4.29281631,58.7995651 4.29281631,59.8311273 C4.29281631,60.8626895 4.79241126,61.8293148 5.63115215,62.4205635 L21.0819072,73.1996407 L38.5010222,85.3041581 C39.5665317,86.0403821 40.9715931,86.0403821 42.0371026,85.3041581 L59.4039603,73.1996407 L74.8460057,62.4205635 Z" id="路径-3" fill="url(#linearGradient-1)"></path>
                                <path d="M0,29.7021887 L0,38.6281813 L0,38.6281813 C-0.00825340962,39.7569099 0.545319341,40.8163303 1.47793311,41.4564525 L18.6904231,53.2737418 L37.9971784,66.4697148 C39.1898214,67.2771014 40.7559794,67.2771014 41.9486224,66.4697148 L61.2553777,53.2579854 L78.4757706,41.4406961 C79.4083844,40.8005739 79.9619571,39.7411535 79.9537037,38.6124249 L79.9537037,38.6124249 L79.9537037,29.5131121 L0,29.7021887 Z" id="路径-4" fill="url(#linearGradient-2)"></path>
                                <path d="M78.4600067,31.8664183 C79.3966021,31.2054618 79.9537037,30.1300782 79.9537037,28.9831072 C79.9537037,27.8361363 79.3966021,26.7607527 78.4600067,26.0997962 L61.2457304,14.0761123 L41.9448752,0.628571032 C40.7606728,-0.209523677 39.1772235,-0.209523677 37.9930211,0.628571032 L18.6842622,14.0761123 L1.49369704,26.1077065 C0.557101641,26.768663 0,27.8440466 0,28.9910175 C0,30.1379885 0.557101641,31.2133721 1.49369704,31.8743286 L18.7000696,43.8821919 L38.0088285,57.3297331 C39.195259,58.1607825 40.7742522,58.1607825 41.9606826,57.3297331 L61.2615378,43.8821919 L78.4600067,31.8664183 Z" id="路径-5" fill="url(#linearGradient-3)"></path>
                                <ellipse id="椭圆形" fill="#FFFFFF" fill-rule="nonzero" cx="40.5134539" cy="28.9765101" rx="7.78072956" ry="5.90262242"></ellipse>
                                <ellipse id="椭圆形-2" fill="url(#linearGradient-4)" cx="40.5134539" cy="28.9765101" rx="4.02451529" ry="3.21961223"></ellipse>
                            </g>
                            <rect id="矩形备份-6" x="0" y="0" width="110" height="110"></rect>
                        </g>
                    </g>
                </g>
            </g>
        </g>
    </g>
</svg>