<?xml version="1.0" encoding="UTF-8"?>
<svg width="544px" height="1010px" viewBox="0 0 544 1010" version="1.1" xmlns="http://www.w3.org/2000/svg" xmlns:xlink="http://www.w3.org/1999/xlink">
    <title>编组 94</title>
    <g id="首页✅" stroke="none" stroke-width="1" fill="none" fill-rule="evenodd">
        <g id="手机版首页" transform="translate(-48.000000, -6840.000000)">
            <g id="编组-38" transform="translate(0.000000, 6532.000000)">
                <g id="编组-94" transform="translate(48.000000, 308.000000)">
                    <rect id="矩形" fill="#E1F3FE" x="0" y="0" width="544" height="1010"></rect>
                    <path d="M474.755978,484 C480.132984,484 484.377989,482.457143 487.773993,479.628571 C491.169997,476.542857 493.150999,472.685714 493.150999,468.057143 C493.150999,463.428571 491.452997,459.828571 488.339993,456.742857 C484.94399,453.657143 480.698985,452.371429 475.887979,452.371429 C473.057976,452.371429 470.793973,452.628571 469.661972,453.142857 C469.661972,446.971429 471.642974,441.314286 475.887979,436.428571 C480.415984,430.771429 486.358991,426.914286 494,424.857143 L494,412 C481.547986,414.828571 471.925974,420.485714 464.567966,428.971429 C457.209957,437.2 453.813953,447.228571 453.813953,458.8 C453.813953,466 455.511955,472.171429 459.19096,476.8 C463.152964,481.428571 468.24697,484 474.755978,484 Z M418.942024,484 C424.602031,484 429.130036,482.457143 432.52604,479.628571 C435.639044,476.542857 437.337046,472.685714 437.337046,468.057143 C437.337046,463.428571 435.639044,459.828571 432.24304,456.742857 C428.847036,453.657143 424.885031,452.371429 420.357026,452.371429 C417.244022,452.371429 414.98002,452.628571 413.848018,453.142857 C413.848018,446.971429 415.829021,441.314286 420.357026,436.171429 C424.602031,430.771429 430.545038,426.914286 438.186047,424.857143 L438.186047,412 C425.734032,414.828571 416.112021,420.485714 409.037013,428.971429 C401.679004,437.2 398,447.228571 398,458.8 C398,466.257143 399.698002,472.171429 403.660007,476.8 C407.339011,481.428571 412.433017,484 418.942024,484 Z" id="“" fill="#FFFFFF" transform="translate(446.000000, 448.000000) scale(-1, -1) rotate(-360.000000) translate(-446.000000, -448.000000) "></path>
                </g>
            </g>
        </g>
    </g>
</svg>