<?xml version="1.0" encoding="UTF-8"?>
<svg width="110px" height="110px" viewBox="0 0 110 110" version="1.1" xmlns="http://www.w3.org/2000/svg" xmlns:xlink="http://www.w3.org/1999/xlink">
    <title>EDCS</title>
    <defs>
        <linearGradient x1="50%" y1="0%" x2="50%" y2="100%" id="linearGradient-1">
            <stop stop-color="#00D1E5" offset="0%"></stop>
            <stop stop-color="#00A4C7" offset="100%"></stop>
        </linearGradient>
        <linearGradient x1="50%" y1="-2.48949813e-15%" x2="50%" y2="100%" id="linearGradient-2">
            <stop stop-color="#77E6FF" offset="0%"></stop>
            <stop stop-color="#00CAF8" offset="100%"></stop>
        </linearGradient>
    </defs>
    <g id="产品页" stroke="none" stroke-width="1" fill="none" fill-rule="evenodd">
        <g id="Edge-Data-Center-Services" transform="translate(-905.000000, -7169.000000)">
            <g id="complete-solution" transform="translate(0.000000, 6635.000000)">
                <g transform="translate(348.000000, 246.000000)" id="edcs">
                    <g transform="translate(468.000000, 276.000000)">
                        <g id="EDCS" transform="translate(89.000000, 12.000000)">
                            <g id="绿EDC" transform="translate(15.787037, 12.731481)">
                                <path d="M20.3448745,16.868325 L20.3448745,73.514476 C20.3162988,73.6739315 20.3018162,73.8356245 20.3018162,73.997645 C20.3018162,78.3245311 29.5808725,81.8437318 41.0702531,81.8800684 C52.5596338,81.9158466 61.8817483,78.4543377 61.8817483,74.134663 L61.8817483,74.0697597 L62.1688034,74.0697597 L62.1688034,7.46455913 L20.3448745,16.868325 Z" id="路径-2" fill="url(#linearGradient-1)"></path>
                                <ellipse id="椭圆形" fill="#0090AD" transform="translate(41.193342, 11.852147) rotate(-13.630000) translate(-41.193342, -11.852147) " cx="41.193342" cy="11.8521473" rx="21.4879011" ry="6.8920812"></ellipse>
                                <path d="M15.108983,49.9079142 C6.83439572,49.8405257 0.0710404838,56.5019411 0.00019247041,64.788788 C-0.0424340796,73.0511752 7.00158321,81.0419615 14.9091528,84.537037 C23.8586945,80.1413899 29.9963387,73.2227127 30.0462963,64.9531781 C30.0462963,56.6831447 23.3667078,49.971218 15.108983,49.9436512 L15.108983,49.9079142 Z" id="形状-path" fill="#25DBFF"></path>
                                <path d="M14.8023077,70.7312903 C11.7762744,70.7392673 9.31031515,68.2932683 9.2791363,65.2528977 L9.2791363,65.2528977 C9.26774043,63.0057641 10.6061041,60.9734822 12.6690101,60.1055447 C14.731916,59.2376071 17.1121296,59.7053518 18.6976028,61.290246 C20.2830761,62.8751402 20.7608234,65.2643129 19.9076389,67.3415302 C19.0544544,69.4187474 17.0387636,70.7739791 14.8023077,70.7739791 L14.8023077,70.7312903 Z" id="形状-path" fill="#FFFFFF"></path>
                                <path d="M75.9419249,52.8202712 L53.4115564,40.4856683 L53.4115564,81.1969876 C53.4115564,82.9794447 58.4610977,84.4267998 64.6945709,84.4267998 C70.9280442,84.4267998 75.9775855,83.0008342 75.9775855,81.1969876 C75.9722439,81.1341153 75.9602911,81.0719805 75.9419249,81.0116121 L75.9419249,52.8202712 Z" id="路径" fill="url(#linearGradient-2)"></path>
                                <ellipse id="椭圆形-2" fill="#00CAF8" transform="translate(64.790119, 46.731795) rotate(-57.820000) translate(-64.790119, -46.731795) " cx="64.790119" cy="46.7317949" rx="4.2378471" ry="13.0757874"></ellipse>
                            </g>
                            <rect id="矩形备份-8" x="0" y="0" width="110" height="110"></rect>
                        </g>
                    </g>
                </g>
            </g>
        </g>
    </g>
</svg>