<?xml version="1.0" encoding="UTF-8"?>
<svg width="160px" height="160px" viewBox="0 0 160 160" version="1.1" xmlns="http://www.w3.org/2000/svg" xmlns:xlink="http://www.w3.org/1999/xlink">
    <title>编组 36</title>
    <defs>
        <linearGradient x1="50%" y1="0%" x2="50%" y2="100%" id="linearGradient-1">
            <stop stop-color="#00D1E5" offset="0%"></stop>
            <stop stop-color="#00A4C7" offset="100%"></stop>
        </linearGradient>
        <linearGradient x1="50%" y1="-2.48949813e-15%" x2="50%" y2="100%" id="linearGradient-2">
            <stop stop-color="#77E6FF" offset="0%"></stop>
            <stop stop-color="#00CAF8" offset="100%"></stop>
        </linearGradient>
    </defs>
    <g id="首页✅" stroke="none" stroke-width="1" fill="none" fill-rule="evenodd">
        <g id="手机版首页" transform="translate(-408.000000, -3028.000000)">
            <g id="编组-36" transform="translate(408.000000, 3028.000000)">
                <g id="Icon/Product+bg/Bare-Metal-Cloud-Center备份">
                    <g id="Icon/product/CloudWan-bg">
                        <rect id="矩形备份-16" x="0" y="0" width="160" height="160"></rect>
                        <path d="M38.054543,50.4171312 L80.0845086,8.38709677 L122.114474,50.4171312 C145.326983,73.6296402 145.326983,111.264553 122.114474,134.477062 C98.9019651,157.689571 61.2670521,157.689571 38.054543,134.477062 C14.842034,111.264553 14.842034,73.6296402 38.054543,50.4171312 Z" id="路径" fill="#E0F9FF"></path>
                    </g>
                    <g id="编组-9" transform="translate(12.500000, 13.333333)">
                        <g id="绿EDC" transform="translate(19.135802, 15.432099)">
                            <path d="M24.6604539,20.4464545 L24.6604539,89.1084558 C24.6258167,89.3017352 24.6082621,89.4977267 24.6082621,89.6941151 C24.6082621,94.9388256 35.8556031,99.2045234 49.782125,99.2485677 C63.708647,99.2919353 75.0081798,95.0961669 75.0081798,89.8601976 L75.0081798,89.781527 L75.3561254,89.781527 L75.3561254,9.04795046 L24.6604539,20.4464545 Z" id="路径-2" fill="url(#linearGradient-1)"></path>
                            <ellipse id="椭圆形" fill="#0090AD" transform="translate(49.931324, 14.366239) rotate(-13.630000) translate(-49.931324, -14.366239) " cx="49.9313236" cy="14.3662391" rx="26.0459407" ry="8.35403781"></ellipse>
                            <path d="M18.3139188,60.4944415 C8.28411603,60.4127584 0.0861096774,68.4872013 0.000233297467,78.5318643 C-0.051435248,88.5468791 8.48676752,98.2326806 18.0717003,102.469136 C28.9196297,97.1410786 36.3591985,88.7548033 36.4197531,78.731125 C36.4197531,68.706842 28.3232822,60.5711733 18.3139188,60.537759 L18.3139188,60.4944415 Z" id="形状-path" fill="#25DBFF"></path>
                            <path d="M17.9421912,85.7348974 C14.274272,85.7445664 11.2852305,82.7797191 11.2474379,79.0944214 L11.2474379,79.0944214 C11.2336248,76.3706232 12.8558838,73.9072512 15.3563758,72.8552056 C17.8568679,71.8031601 20.7419753,72.3701234 22.663761,74.2912073 C24.5855467,76.2122912 25.1646345,79.1082581 24.1304714,81.6260972 C23.0963084,84.1439363 20.6530468,85.7866413 17.9421912,85.7866413 L17.9421912,85.7348974 Z" id="形状-path" fill="#FFFFFF"></path>
                            <path d="M92.0508181,64.0245712 L64.7412804,49.0735374 L64.7412804,98.4205911 C64.7412804,100.581145 70.8619365,102.335515 78.4176617,102.335515 C85.9733869,102.335515 92.094043,100.607072 92.094043,98.4205911 C92.0875684,98.3443822 92.0730801,98.2690673 92.0508181,98.1958935 L92.0508181,64.0245712 Z" id="路径" fill="url(#linearGradient-2)"></path>
                            <ellipse id="椭圆形-2" fill="#00CAF8" transform="translate(78.533478, 56.644600) rotate(-57.820000) translate(-78.533478, -56.644600) " cx="78.5334776" cy="56.6445998" rx="5.13678437" ry="15.8494392"></ellipse>
                        </g>
                        <rect id="矩形备份-8" x="0" y="0" width="133.333333" height="133.333333"></rect>
                    </g>
                </g>
                <rect id="矩形" x="0" y="0" width="160" height="160"></rect>
            </g>
        </g>
    </g>
</svg>