<?xml version="1.0" encoding="UTF-8"?>
<svg width="96px" height="96px" viewBox="0 0 96 96" version="1.1" xmlns="http://www.w3.org/2000/svg" xmlns:xlink="http://www.w3.org/1999/xlink">
    <title>Icon/product/game</title>
    <defs>
        <linearGradient x1="50%" y1="0%" x2="50%" y2="100%" id="linearGradient-1">
            <stop stop-color="#007DF5" offset="0%"></stop>
            <stop stop-color="#0047E7" offset="100%"></stop>
        </linearGradient>
    </defs>
    <g id="Icon/product/game" stroke="none" stroke-width="1" fill="none" fill-rule="evenodd">
        <g id="game">
            <rect id="矩形" fill="#000000" fill-rule="nonzero" opacity="0" x="0" y="0" width="96" height="96"></rect>
            <path d="M63.4237764,26 C75.4179977,26 78.1750143,37.0213291 78.1750143,37.0213291 C81.3916714,44.9821209 83,52.4821853 83,59.5215223 C83,70.0805277 74.4526697,72.3044828 74.4526697,72.3044828 C64.3579197,74.9193246 59.8220978,69.1502587 57.9175278,65.0004165 L37.0824722,65.0004165 C35.1779022,69.1502587 30.6420803,74.9193246 20.5473303,72.3044828 C20.5473303,72.3044828 12,70.0805277 12,59.5215223 C12,52.4821853 13.6083286,44.9821209 16.8249857,37.0213291 C16.8249857,37.0213291 19.5820023,26 31.5770508,26 L31.5770508,26 Z" id="形状" fill="url(#linearGradient-1)"></path>
            <path d="M61.0007241,37 C57.1339609,37 54,40.1339609 54,44 C54,47.8660391 57.1339609,51 61.0007241,51 C64.8660391,51 68,47.865315 68,44 C68,40.134685 64.8660391,37 61.0007241,37 Z" id="形状" fill="#FFFFFF"></path>
            <path d="M35,36.2679492 C35.6188022,36.6252148 36,37.2854689 36,38 L36,42 L40,42 C40.530433,42 41.0391408,42.2315954 41.4142136,42.6438379 C41.7892863,43.0560804 42,43.6152012 42,44.1982001 C42,44.781199 41.7892863,45.3403198 41.4142136,45.7525622 C41.0391408,46.1648047 40.530433,46.3964001 40,46.3964001 L36,46.396 L36,50 C36,50.7145311 35.6188022,51.3747852 35,51.7320508 C34.3811979,52.0893164 33.6188021,52.0893164 33,51.7320508 C32.3811978,51.3747852 32,50.7145311 32,50 L32,46.396 L28,46.3964001 C26.8954305,46.3964001 26,45.4122324 26,44.1982001 C26,42.9841677 26.8954305,42 28,42 L32,42 L32,38 C32,37.2854689 32.3811978,36.6252148 33,36.2679492 C33.6188021,35.9106836 34.3811979,35.9106836 35,36.2679492 Z" id="路径-2" fill="#FFFFFF"></path>
        </g>
    </g>
</svg>