<?xml version="1.0" encoding="UTF-8"?>
<svg width="160px" height="160px" viewBox="0 0 160 160" version="1.1" xmlns="http://www.w3.org/2000/svg" xmlns:xlink="http://www.w3.org/1999/xlink">
    <title>编组 55</title>
    <defs>
        <radialGradient cx="65.0054716%" cy="41.6529542%" fx="65.0054716%" fy="41.6529542%" r="57.2626144%" id="radialGradient-1">
            <stop stop-color="#5ADFF4" offset="0%"></stop>
            <stop stop-color="#1EF5DD" stop-opacity="0" offset="100%"></stop>
        </radialGradient>
        <linearGradient x1="90.7018671%" y1="16.2321958%" x2="1.8598635%" y2="100%" id="linearGradient-2">
            <stop stop-color="#1088D9" offset="0%"></stop>
            <stop stop-color="#25BDEE" offset="100%"></stop>
        </linearGradient>
        <linearGradient x1="0%" y1="99.3073506%" x2="81.8321653%" y2="15.7379768%" id="linearGradient-3">
            <stop stop-color="#0CA8FD" offset="0%"></stop>
            <stop stop-color="#1CD3FF" offset="100%"></stop>
        </linearGradient>
    </defs>
    <g id="首页✅" stroke="none" stroke-width="1" fill="none" fill-rule="evenodd">
        <g id="手机版首页" transform="translate(-408.000000, -1324.000000)">
            <g id="编组-55" transform="translate(408.000000, 1324.000000)">
                <g id="Icon/Product+bg/Bare-Metal-Cloud-Center备份">
                    <g id="Icon/product/CloudWan-bg">
                        <rect id="矩形备份-13" x="0" y="0" width="160" height="160"></rect>
                        <circle id="椭圆形备份-2" fill="#E1F5FF" cx="80" cy="80" r="69.6774194"></circle>
                    </g>
                    <g id="编组-6" transform="translate(12.500000, 13.333333)">
                        <g id="绿火箭" transform="translate(19.135802, 19.135802)">
                            <path d="M17.9654815,34.5679012 L9.19814305,42.562065 C-0.38645239,52.0369871 -2.7431836,66.6238824 3.36990285,78.6357288 L3.36990285,78.6357288 C6.25393407,84.3511635 10.849994,89.023574 16.5167475,92.0009713 L16.874768,92.1924982 C28.6132753,98.3396118 42.9756466,96.2174019 52.4353593,86.938001 L61.1111111,79.0854005 L17.9654815,34.5679012 Z" id="路径-2" fill="url(#radialGradient-1)" fill-rule="nonzero"></path>
                            <path d="M77.120932,83.273478 L77.120932,83.273478 C93.9799145,65.431202 93.578592,37.4123264 76.2155105,20.0602358 C58.852429,2.7081451 30.8336671,2.32492631 13.0025248,19.1956578 L13.0025248,19.1956578 C-3.85645768,37.0379338 -3.45513524,65.0568094 13.9079463,82.4089 C31.2710278,99.7609907 59.2897897,100.144209 77.120932,83.273478 Z" id="路径-3" fill="#B3E5FF"></path>
                            <g id="rocket" transform="translate(4.938272, 0.000000)">
                                <path d="M22.169362,76.4434902 C22.2622288,71.5758118 18.3685301,67.5527938 13.4672359,67.4523448 C9.77404683,67.4952833 6.50771217,69.8417227 5.31072659,73.3117429 L5.31072659,73.3117429 L0.363184102,86.3438526 C-0.0163257195,87.296811 0.216974692,88.3828699 0.955039652,89.0990554 C1.67987473,89.8253737 2.76916866,90.0561549 3.72936254,89.6868321 L16.0011175,85.0948273 C19.7397632,83.8592882 22.2375696,80.3559633 22.169362,76.4434902 Z" id="路径" fill="url(#linearGradient-2)"></path>
                                <path d="M83.1489792,40.6166687 C91.7956188,26.7579982 89.6223992,12.146239 87.9578055,5.34088785 C87.5133972,3.44517556 86.0206762,1.9663056 84.1107444,1.52952386 C77.2951579,-0.151149896 62.5450078,-2.28184012 48.5901637,6.29602485 C38.2419393,12.6513595 32.2586496,22.5058018 26.4973057,31.9561477 C22.276497,38.8689033 18.8311857,46.2201908 16.2230633,53.8783786 C14.9626045,59.1723132 16.5539706,64.7368441 20.4282074,68.5825092 C24.3024442,72.4281742 29.9063643,74.0058656 35.2364228,72.7515184 C42.9519108,70.1682861 50.3576949,66.7496232 57.320033,62.5572677 C66.8359606,56.8539977 76.7402933,50.8843915 83.1489792,40.6166687 Z" id="路径-4" fill="url(#linearGradient-3)"></path>
                                <path d="M16.4542569,54.245739 C18.9796802,46.7811386 22.3227323,39.6144697 26.4233238,32.8745486 L27.4405755,31.2122429 C26.9665339,30.744463 26.2240352,30.6788322 25.6742566,31.0561147 L2.97104762,48.505733 C1.52839972,49.6169982 2.31445787,52.1242328 4.26573163,52.6752734 L15.5479781,55.7794686 C15.7324506,55.8419193 15.9303144,55.8545967 16.1213381,55.8162046 C16.2053504,55.2874349 16.3164677,54.7632653 16.4542569,54.245739 Z" id="路径-5" fill="#1276C4"></path>
                                <path d="M57.9635931,61.8381803 C51.1803188,65.910821 43.9669439,69.2308672 36.4533429,71.7385427 C35.9238868,71.877369 35.3865635,71.9847064 34.8442357,72.059983 C34.7979348,72.2501065 34.7979348,72.4484521 34.8442357,72.6385756 L37.9792205,83.8430673 C38.5155896,85.7808933 41.0402234,86.5982702 42.1684481,85.1196446 L59.7391597,62.5820851 C60.148554,62.0404661 60.0974382,61.2829183 59.6189391,60.8003872 L57.9635931,61.8381803 Z" id="路径-6" fill="#1276C4"></path>
                                <path d="M58.3927712,40.4697246 C55.8191426,40.4527472 53.3580022,39.419845 51.5520632,37.5987865 C49.7461242,35.7777279 48.7437118,33.3180798 48.7658708,30.7622264 L48.7658708,30.7622264 C48.8068839,25.4417296 53.183123,21.161604 58.5405427,21.2022313 C63.8979625,21.2428587 68.2078753,25.5888547 68.1670699,30.9093531 C68.1262645,36.2298515 63.7501926,40.5101456 58.3927712,40.4697246 L58.3927712,40.4697246 Z" id="路径-7" fill="#FFFFFF"></path>
                            </g>
                        </g>
                        <rect id="矩形备份-5" x="0" y="0" width="133.333333" height="133.333333"></rect>
                    </g>
                </g>
                <rect id="矩形" x="0" y="0" width="160" height="160"></rect>
            </g>
        </g>
    </g>
</svg>