<?xml version="1.0" encoding="UTF-8"?>
<svg width="110px" height="110px" viewBox="0 0 110 110" version="1.1" xmlns="http://www.w3.org/2000/svg" xmlns:xlink="http://www.w3.org/1999/xlink">
    <title>GIA</title>
    <defs>
        <radialGradient cx="65.0054716%" cy="41.6529542%" fx="65.0054716%" fy="41.6529542%" r="57.2626144%" id="radialGradient-1">
            <stop stop-color="#5ADFF4" offset="0%"></stop>
            <stop stop-color="#1EF5DD" stop-opacity="0" offset="100%"></stop>
        </radialGradient>
        <linearGradient x1="90.7018671%" y1="16.2321958%" x2="1.8598635%" y2="100%" id="linearGradient-2">
            <stop stop-color="#1088D9" offset="0%"></stop>
            <stop stop-color="#25BDEE" offset="100%"></stop>
        </linearGradient>
        <linearGradient x1="0%" y1="99.3073506%" x2="81.8321653%" y2="15.7379768%" id="linearGradient-3">
            <stop stop-color="#0CA8FD" offset="0%"></stop>
            <stop stop-color="#1CD3FF" offset="100%"></stop>
        </linearGradient>
    </defs>
    <g id="产品页" stroke="none" stroke-width="1" fill="none" fill-rule="evenodd">
        <g id="Edge-Data-Center-Services" transform="translate(-437.000000, -6893.000000)">
            <g id="complete-solution" transform="translate(0.000000, 6635.000000)">
                <g transform="translate(348.000000, 246.000000)" id="ecn">
                    <g id="GIA" transform="translate(89.000000, 12.000000)">
                        <g id="绿火箭" transform="translate(15.787037, 15.787037)">
                            <path d="M14.8215223,28.5185185 L7.58846802,35.1137036 C-0.318823222,42.9305143 -2.26312647,54.9647029 2.78016985,64.8744763 L2.78016985,64.8744763 C5.15949561,69.5897099 8.95124501,73.4444486 13.6263167,75.9008013 L13.9216836,76.058811 C23.6059522,81.1301798 35.4549085,79.3793566 43.2591714,71.7238508 L50.4166667,65.2454554 L14.8215223,28.5185185 Z" id="路径-2" fill="url(#radialGradient-1)" fill-rule="nonzero"></path>
                            <path d="M63.6247689,68.7006193 L63.6247689,68.7006193 C77.5334294,53.9807416 77.2023384,30.8651693 62.8777962,16.5496945 C48.5532539,2.23421971 25.4377754,1.91806421 10.727083,15.8364177 L10.727083,15.8364177 C-3.18157758,30.5562954 -2.85048658,53.6718677 11.4740557,67.9873425 C25.7985979,82.3028173 48.9140765,82.6189728 63.6247689,68.7006193 Z" id="路径-3" fill="#B3E5FF"></path>
                            <g id="rocket" transform="translate(4.074074, 0.000000)">
                                <path d="M18.2897237,63.0658794 C18.3663387,59.0500448 15.1540374,55.7310549 11.1104696,55.6481845 C8.06358863,55.6836087 5.36886254,57.6194212 4.38134944,60.4821879 L4.38134944,60.4821879 L0.299626884,71.2336784 C-0.0134687186,72.0198691 0.179004121,72.9158676 0.787907713,73.5067207 C1.38589665,74.1059333 2.28456414,74.2963278 3.0767241,73.9916365 L13.2009219,70.2032325 C16.2853047,69.1839127 18.3459949,66.2936697 18.2897237,63.0658794 Z" id="路径" fill="url(#linearGradient-2)"></path>
                                <path d="M68.5979078,33.5087517 C75.7313855,22.0753486 73.9384794,10.0206471 72.5651895,4.40623247 C72.1985527,2.84226984 70.9670579,1.62220212 69.3913641,1.26185719 C63.7685052,-0.124698665 51.5996315,-1.8825181 40.086885,5.1942205 C31.5495999,10.4373716 26.6133859,18.5672865 21.8602772,26.3638218 C18.37811,32.0668452 15.5357282,38.1316574 13.3840272,44.4496624 C12.3441487,48.8171584 13.6570258,53.4078964 16.8532711,56.5805701 C20.0495165,59.7532437 24.6727506,61.0548392 29.0700488,60.0200026 C35.4353264,57.8888361 41.5450983,55.0684392 47.2890273,51.6097458 C55.1396675,46.9045481 63.310742,41.979623 68.5979078,33.5087517 Z" id="路径-4" fill="url(#linearGradient-3)"></path>
                                <path d="M13.5747619,44.7527347 C15.6582362,38.5944393 18.4162541,32.6819375 21.7992421,27.1215026 L22.6384748,25.7501004 C22.2473905,25.364182 21.634829,25.3100365 21.1812617,25.6212947 L2.45111429,40.0172297 C1.26092977,40.9340235 1.90942774,43.002492 3.5192286,43.4571005 L12.8270819,46.0180616 C12.9792718,46.0695834 13.1425094,46.0800423 13.3001039,46.0483688 C13.3694141,45.6121338 13.4610859,45.1796939 13.5747619,44.7527347 Z" id="路径-5" fill="#1276C4"></path>
                                <path d="M47.8199643,51.0164987 C42.223763,54.3764273 36.2727288,57.1154655 30.0740079,59.1842977 C29.6372066,59.2988294 29.1939149,59.3873828 28.7464944,59.449486 C28.7082962,59.6063379 28.7082962,59.769973 28.7464944,59.9268249 L31.3328569,69.1705305 C31.7753614,70.769237 33.8581843,71.4435729 34.7889697,70.2237068 L49.2848068,51.6302202 C49.622557,51.1833845 49.5803865,50.5584076 49.1856247,50.1603194 L47.8199643,51.0164987 Z" id="路径-6" fill="#1276C4"></path>
                                <path d="M48.1740363,33.3875228 C46.0507926,33.3735164 44.0203518,32.5213721 42.5304521,31.0189988 C41.0405524,29.5166255 40.2135622,27.4874159 40.2318434,25.3788368 L40.2318434,25.3788368 C40.2656793,20.9894269 43.8760765,17.4583233 48.2959478,17.4918408 C52.7158191,17.5253584 56.2714972,21.1108051 56.2378327,25.5002163 C56.2041682,29.8896275 52.5939089,33.4208702 48.1740363,33.3875228 L48.1740363,33.3875228 Z" id="路径-7" fill="#FFFFFF"></path>
                            </g>
                        </g>
                        <rect id="矩形备份-5" x="0" y="0" width="110" height="110"></rect>
                    </g>
                </g>
            </g>
        </g>
    </g>
</svg>