<?xml version="1.0" encoding="UTF-8"?>
<svg width="28px" height="28px" viewBox="0 0 28 28" version="1.1" xmlns="http://www.w3.org/2000/svg" xmlns:xlink="http://www.w3.org/1999/xlink">
    <title>Icon/Products/BMC-Light</title>
    <defs>
        <path d="M16,2.5 C23.4558441,2.5 29.5,8.54415588 29.5,16 C29.5,23.4558441 23.4558441,29.5 16,29.5 C8.54415588,29.5 2.5,23.4558441 2.5,16 C2.5,8.54415588 8.54415588,2.5 16,2.5 Z M19.7449933,8.37943925 C17.7192924,6.36692185 14.4339119,6.36692185 12.3911883,8.37943925 C11.3528037,9.39415391 10.8421228,10.713283 10.8421228,12.032412 L10.8421228,12.032412 L10.8438584,12.1061035 C10.7582822,12.1020729 10.672566,12.1000597 10.5867824,12.1000597 C9.22496662,12.1000597 7.88017356,12.607417 6.84178905,13.6390435 C4.76502003,15.7022967 4.76502003,19.0339431 6.84178905,21.0802844 C7.88017356,22.1119109 9.22496662,22.6192682 10.5867824,22.6192682 C11.8419226,22.6192682 13.1118914,22.1773036 14.1060472,21.2933744 L14.1060472,21.2933744 L14.314753,21.0971963 L16.0682123,19.3540512 L17.685247,20.961901 L17.8969186,21.1580791 C18.9029372,22.0420084 20.1580774,22.483973 21.4132176,22.483973 C22.7750334,22.483973 24.1198264,21.9766156 25.1582109,20.9449891 C27.23498,18.8817359 27.23498,15.5500895 25.1582109,13.5037483 L25.1582109,13.5037483 L24.9598068,13.3164579 C23.949666,12.4106839 22.6739611,11.9647644 21.4132176,11.9647644 L21.4132176,11.9647644 L21.258,11.968 L21.2532093,11.7686764 C21.1942629,10.6266038 20.7525907,9.49977443 19.939274,8.58635085 Z M10.6208278,14.9581726 C11.2336449,14.9581726 11.8124166,15.1949394 12.237984,15.6177371 L12.237984,15.6177371 L12.3230975,15.7022967 L13.8721629,17.2412806 L12.3230975,18.7802645 L12.237984,18.864824 L12.0906174,18.998797 C11.6833803,19.3373136 11.1655541,19.5243885 10.6208278,19.5243885 C10.0080107,19.5243885 9.42923899,19.2876218 8.98664887,18.8479121 C8.54405874,18.4082024 8.30574099,17.8501094 8.30574099,17.2243687 C8.30574099,16.6155399 8.54405874,16.0405349 8.98664887,15.6008252 C9.42923899,15.2118513 10.0080107,14.9581726 10.6208278,14.9581726 Z M21.3281041,15.0596441 C21.8728304,15.0596441 22.400534,15.2794989 22.7920561,15.6515609 C23.1835781,16.0405349 23.3878505,16.5478922 23.3878505,17.1059853 C23.3878505,17.6471664 23.1665554,18.1714357 22.7920561,18.5604096 C22.400534,18.9493836 21.8898531,19.1523265 21.3281041,19.1523265 C20.7833778,19.1523265 20.2556742,18.9493836 19.8811749,18.5604096 L19.8811749,18.5604096 L19.7960614,18.4758501 L18.417223,17.1059853 L19.7960614,15.7361205 L19.8811749,15.6515609 L20.0159788,15.5332704 C20.3866019,15.2333565 20.843903,15.0596441 21.3281041,15.0596441 Z M15.9319092,9.81695168 C16.5277036,9.81695168 17.1064753,10.0537184 17.5320427,10.4765162 C17.9576101,10.899314 18.1959279,11.457407 18.1959279,12.0662358 L18.1959279,12.0662358 L18.1871947,12.2621495 C18.1466578,12.7157089 17.9665301,13.1419865 17.6788489,13.4932392 L17.6788489,13.4932392 L15.9402123,15.2200512 L14.4652123,13.7710512 L14.3317757,13.6390435 L14.1969251,13.4932392 C13.856191,13.0918075 13.6678905,12.5923842 13.6678905,12.0662358 C13.6678905,11.474319 13.9062083,10.899314 14.3317757,10.4765162 C14.7573431,10.0537184 15.3190921,9.81695168 15.9319092,9.81695168 Z" id="path-1"></path>
        <linearGradient x1="50%" y1="100%" x2="50%" y2="-2.48949813e-15%" id="linearGradient-3">
            <stop stop-color="#0CA8FD" offset="0%"></stop>
            <stop stop-color="#4EC3FE" offset="100%"></stop>
        </linearGradient>
    </defs>
    <g id="框架" stroke="none" stroke-width="1" fill="none" fill-rule="evenodd">
        <g id="导航栏交互2-0730" transform="translate(-333.000000, -819.000000)">
            <g id="编组备份" transform="translate(264.000000, 719.000000)">
                <g id="subitem/Icon+text-hover备份-7" transform="translate(67.000000, 98.000000)">
                    <g id="Icon/Products/CloudNetworking-Grey">
                        <g id="20191112ProductIcon_Cloud-Networking">
                            <mask id="mask-2" fill="white">
                                <use xlink:href="#path-1"></use>
                            </mask>
                            <use id="形状结合" fill="#616E82" xlink:href="#path-1"></use>
                            <rect id="矩形" fill="url(#linearGradient-3)" mask="url(#mask-2)" x="0" y="0" width="32" height="32"></rect>
                        </g>
                    </g>
                </g>
            </g>
        </g>
    </g>
</svg>