<?xml version="1.0" encoding="UTF-8"?>
<svg width="160px" height="160px" viewBox="0 0 160 160" version="1.1" xmlns="http://www.w3.org/2000/svg" xmlns:xlink="http://www.w3.org/1999/xlink">
    <title>编组 39</title>
    <defs>
        <linearGradient x1="33.2349716%" y1="70.6552006%" x2="75.7301873%" y2="28.620354%" id="linearGradient-1">
            <stop stop-color="#081E5E" offset="0%"></stop>
            <stop stop-color="#0037AD" offset="100%"></stop>
        </linearGradient>
        <linearGradient x1="33.6725322%" y1="26.3738843%" x2="75.2510842%" y2="67.9043084%" id="linearGradient-2">
            <stop stop-color="#0CA8FD" offset="0%"></stop>
            <stop stop-color="#4EC3FE" offset="99%"></stop>
        </linearGradient>
        <linearGradient x1="50%" y1="0%" x2="50%" y2="100%" id="linearGradient-3">
            <stop stop-color="#00C4B7" offset="0%"></stop>
            <stop stop-color="#009180" offset="100%"></stop>
        </linearGradient>
        <linearGradient x1="50%" y1="0%" x2="50%" y2="100%" id="linearGradient-4">
            <stop stop-color="#AAEFEC" offset="0%"></stop>
            <stop stop-color="#71DAD4" offset="100%"></stop>
        </linearGradient>
        <linearGradient x1="50%" y1="0%" x2="50%" y2="100%" id="linearGradient-5">
            <stop stop-color="#00D8CE" offset="0%"></stop>
            <stop stop-color="#00B0A0" offset="100%"></stop>
        </linearGradient>
        <linearGradient x1="50%" y1="0%" x2="50%" y2="100%" id="linearGradient-6">
            <stop stop-color="#00D8CE" offset="0%"></stop>
            <stop stop-color="#00B0A0" offset="100%"></stop>
        </linearGradient>
    </defs>
    <g id="首页✅" stroke="none" stroke-width="1" fill="none" fill-rule="evenodd">
        <g id="手机版首页" transform="translate(-408.000000, -2460.000000)">
            <g id="编组-39" transform="translate(408.000000, 2460.000000)">
                <g id="Icon/Product+bg/Bare-Metal-Cloud-Center备份">
                    <g id="Icon/product/CloudWan-bg">
                        <rect id="矩形备份-9" x="-1.42108547e-13" y="0" width="159.35743" height="160"></rect>
                        <path d="M40,13.3333333 C84.1829391,13.3333333 120,49.1503943 120,93.3333333 C120,137.516272 84.1829391,173.333333 40,173.333333 L40,13.3333333 Z" id="Fill-1备份-3" fill="#DEF6F5" transform="translate(80.000000, 93.333333) rotate(90.000000) translate(-80.000000, -93.333333) "></path>
                    </g>
                    <g id="编组-4" transform="translate(12.500000, 13.333333)">
                        <g id="编组" transform="translate(24.074074, 24.074074)">
                            <path d="M24.9128068,59.9979286 C46.2575028,81.3426246 71.4239158,90.8054398 81.1205062,81.1190135 C90.0649503,72.1847336 82.7061122,50.0573987 64.735911,29.9222355 C63.2316181,28.2248239 62.1237268,26.1919957 60.4771359,24.5758973 C58.3833229,22.4820843 55.7813028,20.8456576 53.6366691,18.9957839 C33.8674149,1.88953473 12.5328831,-4.95093213 3.83237842,3.83088565 C-5.90486862,13.4664913 3.55794661,38.6532326 24.9128068,59.9979286 Z M50.4654571,34.4351141 C60.2230324,44.1926894 64.5427923,55.6781686 60.1112269,60.1097341 C55.6796614,64.5412996 44.1941821,60.2215397 34.446771,50.4639643 C24.6993598,40.706389 20.3694357,29.241238 24.8010012,24.7995084 C29.2325667,20.3577788 40.7180459,24.6877029 50.4654571,34.4351141 Z" id="形状" fill="url(#linearGradient-1)"></path>
                            <path d="M24.9128068,24.911314 C3.55794661,46.25601 -5.89470447,71.422423 3.83237842,81.0783569 C13.5594613,90.7342908 38.6953819,81.3121321 60.0400779,59.957272 C81.3847739,38.6024118 90.8170967,13.4868196 81.1306704,3.83088565 C71.444244,-5.82504826 46.2575028,3.55645384 24.9128068,24.911314 Z M50.4756212,50.4639643 C40.7180459,60.2215397 29.2325667,64.5412996 24.8010012,60.1097341 C20.3694357,55.6781686 24.6891957,44.1926894 34.446771,34.4452782 C44.2043463,24.697867 55.6694973,20.367943 60.1112269,24.7995084 C64.5529565,29.2310739 60.2230324,40.7165532 50.4756212,50.4639643 Z" id="形状-2" fill="url(#linearGradient-2)"></path>
                            <path d="M3.83237842,3.83088565 C-3.28252025,10.9457843 -0.131636555,26.3241296 10.5000549,42.4546213 C14.44864,36.5047219 18.9621028,30.9496907 23.9777058,25.8667432 C24.4347157,25.0843948 25.0858876,24.4332229 25.868236,23.976213 C29.4358495,21.8722358 35.8087659,23.4883343 42.456114,27.869079 C49.1237905,23.4781701 55.5170352,21.8722358 59.0846486,24.0168696 C53.9917506,18.9869285 48.422813,14.4630177 42.456114,10.5087263 C26.3256223,-0.122965182 10.9472771,-3.28401302 3.83237842,3.83088565 Z M74.4121732,42.4546213 C70.4554751,48.4076464 65.9390127,53.9689874 60.9243581,59.0628276 C60.4699622,59.8288752 59.830368,60.4684694 59.0643204,60.9228654 C55.4967069,63.0471708 49.1136264,61.4412366 42.4662782,57.0503277 C35.7986017,61.4310724 29.4155212,63.0471708 25.8479077,60.9228654 C30.9348112,65.9452681 36.4969286,70.462361 42.456114,74.4106804 C58.5967699,85.0423719 74.0157717,88.2339121 81.0798497,81.1291776 C88.1439276,74.0244431 85.0438646,58.6054412 74.4121732,42.4546213 Z" id="形状-3" fill="url(#linearGradient-3)"></path>
                            <path d="M42.456114,57.0503277 C35.7884376,61.4310724 29.4053571,63.0471708 25.8377436,60.9228654 L24.9026426,59.9979286 L23.9777058,59.0628276 C21.8534003,55.4952141 23.4694987,49.1121336 27.8502435,42.4546213 C29.7710368,45.3420271 31.9776154,48.0287408 34.4366068,50.4741285 C36.8793862,52.9329872 39.5664431,55.1364419 42.456114,57.0503277 L42.456114,57.0503277 Z" id="路径" fill="#008170"></path>
                            <path d="M57.0518204,42.4546213 C53.1954102,36.6783429 48.2350775,31.7214644 42.456114,27.869079 C49.1237905,23.4781701 55.5170352,21.8722358 59.0846486,24.0168696 C59.3895729,24.3014655 59.6944971,24.6063898 59.9994213,24.911314 L60.914194,25.8362508 C63.0486636,29.4038643 61.4427293,35.7971089 57.0518204,42.4546213 Z" id="路径" fill="#008170"></path>
                            <path d="M81.1306704,3.83088565 C74.0157717,-3.28401302 58.5967699,-0.0823086183 42.5069347,10.5493828 C36.5431889,14.4813765 30.9713188,18.9776748 25.868236,23.976213 L24.9128068,24.9214781 L23.9777058,25.8667432 C21.8737286,29.4343567 23.489827,35.8072731 27.8604076,42.4546213 C29.7814228,39.5705065 31.9880108,36.8871864 34.446771,34.4452782 C36.8861141,31.9867022 39.569772,29.783242 42.456114,27.869079 C49.1237905,23.4781701 55.5170352,21.8722358 59.0846486,24.0168696 C59.4548816,24.2381659 59.7962843,24.5044601 60.1010627,24.8096726 C60.4065232,25.1168188 60.6759229,25.4578311 60.9040299,25.8260867 C65.9314089,30.9212802 70.45511,36.4899597 74.4121732,42.4546213 C85.0438646,26.3139654 88.1947483,10.9457843 81.1306704,3.83088565 Z M57.0518204,42.4546213 C55.1376574,45.3409634 52.9341972,48.0246212 50.4756212,50.4639643 C48.0313988,52.924237 45.3445502,55.1309263 42.456114,57.0503277 C35.7884376,61.4310724 29.4053571,63.0471708 25.8377436,60.9228654 C25.071696,60.4684694 24.4321018,59.8288752 23.9777058,59.0628276 C18.9647277,53.9701871 14.4515311,48.4086764 10.5000549,42.4546213 C-0.121472414,58.5952771 -3.28252025,74.0244431 3.83237842,81.1291776 C10.9472771,88.2339121 26.3561148,85.0423719 42.456114,74.4106804 C48.4091392,70.4539823 53.9704802,65.9375199 59.0643204,60.9228654 L59.9994213,59.9979286 L60.9243581,59.0628276 C63.0486636,55.4952141 61.4427293,49.1121336 57.0518204,42.4546213 Z" id="形状-4" fill="url(#linearGradient-4)"></path>
                            <path d="M23.9878699,59.0628276 C18.9713581,53.9706493 14.4547455,48.4091232 10.5000549,42.4546213 C14.44864,36.5047219 18.9621028,30.9496907 23.9777058,25.8667432 C21.8737286,29.4343567 23.489827,35.8072731 27.8604076,42.4546213 C23.4796629,49.1121336 21.8635645,55.4952141 23.9878699,59.0628276 Z" id="路径" fill="url(#linearGradient-5)"></path>
                            <path d="M60.9243581,59.0628276 C63.0486636,55.4952141 61.4427293,49.1121336 57.0518204,42.4647854 C61.4427293,35.7971089 63.0486636,29.4038643 60.914194,25.8362508 C65.9375212,30.9286999 70.4577903,36.4939409 74.4121732,42.4546213 C70.4554751,48.4076464 65.9390127,53.9689874 60.9243581,59.0628276 Z" id="路径" fill="url(#linearGradient-6)"></path>
                        </g>
                        <rect id="矩形备份" x="0" y="0" width="133.333333" height="133.333333"></rect>
                    </g>
                </g>
                <rect id="矩形" x="0" y="0" width="160" height="160"></rect>
            </g>
        </g>
    </g>
</svg>