<?xml version="1.0" encoding="UTF-8"?>
<svg width="110px" height="110px" viewBox="0 0 110 110" version="1.1" xmlns="http://www.w3.org/2000/svg" xmlns:xlink="http://www.w3.org/1999/xlink">
    <title>IPT</title>
    <defs>
        <linearGradient x1="33.2349716%" y1="70.6552006%" x2="75.7301873%" y2="28.620354%" id="linearGradient-1">
            <stop stop-color="#081E5E" offset="0%"></stop>
            <stop stop-color="#0037AD" offset="100%"></stop>
        </linearGradient>
        <linearGradient x1="33.6725322%" y1="26.3738843%" x2="75.2510842%" y2="67.9043084%" id="linearGradient-2">
            <stop stop-color="#0CA8FD" offset="0%"></stop>
            <stop stop-color="#4EC3FE" offset="99%"></stop>
        </linearGradient>
        <linearGradient x1="50%" y1="0%" x2="50%" y2="100%" id="linearGradient-3">
            <stop stop-color="#00C4B7" offset="0%"></stop>
            <stop stop-color="#009180" offset="100%"></stop>
        </linearGradient>
        <linearGradient x1="50%" y1="0%" x2="50%" y2="100%" id="linearGradient-4">
            <stop stop-color="#AAEFEC" offset="0%"></stop>
            <stop stop-color="#71DAD4" offset="100%"></stop>
        </linearGradient>
        <linearGradient x1="50%" y1="0%" x2="50%" y2="100%" id="linearGradient-5">
            <stop stop-color="#00D8CE" offset="0%"></stop>
            <stop stop-color="#00B0A0" offset="100%"></stop>
        </linearGradient>
        <linearGradient x1="50%" y1="0%" x2="50%" y2="100%" id="linearGradient-6">
            <stop stop-color="#00D8CE" offset="0%"></stop>
            <stop stop-color="#00B0A0" offset="100%"></stop>
        </linearGradient>
    </defs>
    <g id="产品页" stroke="none" stroke-width="1" fill="none" fill-rule="evenodd">
        <g id="Edge-Data-Center-Services" transform="translate(-1217.000000, -7169.000000)">
            <g id="complete-solution" transform="translate(0.000000, 6635.000000)">
                <g transform="translate(348.000000, 246.000000)" id="ipt">
                    <g transform="translate(780.000000, 276.000000)">
                        <g id="IPT" transform="translate(89.000000, 12.000000)">
                            <g id="编组" transform="translate(19.861111, 19.861111)">
                                <path d="M20.5530656,49.4982911 C38.1624398,67.1076653 58.9247305,74.9144878 66.9244176,66.9231861 C74.303584,59.5524052 68.2325426,41.2973539 53.4071266,24.6858443 C52.166085,23.2854797 51.2520746,21.6083965 49.8936372,20.2751153 C48.1662414,18.5477195 46.0195748,17.1976675 44.250252,15.6715218 C27.9406173,1.55886615 10.3396285,-4.08451901 3.16171219,3.16048066 C-4.87151661,11.1098553 2.93530595,31.8889169 20.5530656,49.4982911 Z M41.6340021,28.4089691 C49.6840017,36.4589687 53.2478037,45.9344891 49.5917622,49.5905306 C45.9357207,53.2465721 36.4602003,49.6827702 28.418586,41.6327706 C20.3769718,33.5827709 16.8047845,24.1240214 20.460826,20.4595945 C24.1168675,16.7951675 33.5923879,20.3673549 41.6340021,28.4089691 Z" id="形状" fill="url(#linearGradient-1)"></path>
                                <path d="M20.5530656,20.551834 C2.93530595,38.1612082 -4.86313119,58.923499 3.16171219,66.8896444 C11.1865556,74.8557899 31.9236901,67.082509 49.5330643,49.4647494 C67.1424385,31.8469898 74.9241048,11.1266261 66.932803,3.16048066 C58.9415013,-4.80566481 38.1624398,2.93407442 20.5530656,20.551834 Z M41.6423875,41.6327706 C33.5923879,49.6827702 24.1168675,53.2465721 20.460826,49.5905306 C16.8047845,45.9344891 20.3685864,36.4589687 28.418586,28.4173545 C36.4685857,20.3757403 45.9273353,16.803553 49.5917622,20.4595945 C53.2561891,24.115636 49.6840017,33.5911564 41.6423875,41.6327706 Z" id="形状-2" fill="url(#linearGradient-2)"></path>
                                <path d="M3.16171219,3.16048066 C-2.70807921,9.03027206 -0.108600158,21.7174069 8.66254528,35.0250625 C11.920128,30.1163955 15.6437348,25.5334948 19.7816073,21.3400632 C20.1586404,20.6946257 20.6958572,20.1574089 21.3412947,19.7803757 C24.2845758,18.0445946 29.5422318,19.3778758 35.0262941,22.9919902 C40.5271272,19.3694903 45.801554,18.0445946 48.7448351,19.8139174 C44.5431942,15.664216 39.9488207,11.9319896 35.0262941,8.66969916 C21.7186384,-0.101446275 9.03150359,-2.70931074 3.16171219,3.16048066 Z M61.3900429,35.0250625 C58.125767,39.9363083 54.3996855,44.5244146 50.2625955,48.7268328 C49.8877188,49.358822 49.3600536,49.8864873 48.7280643,50.2613639 C45.7847832,52.0139159 40.5187417,50.6890202 35.0346795,47.0665203 C29.5338464,50.6806348 24.267805,52.0139159 21.3245239,50.2613639 C25.5212193,54.4048462 30.1099661,58.1314478 35.0262941,61.3888113 C48.3423351,70.1599568 61.0630116,72.7929775 66.890876,66.9315715 C72.7187403,61.0701655 70.1611883,48.349489 61.3900429,35.0250625 Z" id="形状-3" fill="url(#linearGradient-3)"></path>
                                <path d="M35.0262941,47.0665203 C29.525461,50.6806348 24.2594196,52.0139159 21.3161385,50.2613639 L20.5446802,49.4982911 L19.7816073,48.7268328 C18.0290553,45.7835516 19.3623365,40.5175102 22.9764509,35.0250625 C24.5611054,37.4071724 26.3815327,39.6237112 28.4102006,41.641156 C30.4254936,43.6697144 32.6423155,45.4875646 35.0262941,47.0665203 L35.0262941,47.0665203 Z" id="路径" fill="#008170"></path>
                                <path d="M47.0677519,35.0250625 C43.8862134,30.2596329 39.7939389,26.1702082 35.0262941,22.9919902 C40.5271272,19.3694903 45.801554,18.0445946 48.7448351,19.8139174 C48.9963976,20.0487091 49.2479601,20.3002715 49.4995226,20.551834 L50.2542101,21.3149069 C52.0151475,24.258188 50.6902517,29.5326149 47.0677519,35.0250625 Z" id="路径" fill="#008170"></path>
                                <path d="M66.932803,3.16048066 C61.0630116,-2.70931074 48.3423351,-0.0679046101 35.0682212,8.70324082 C30.1481309,11.9471356 25.551338,15.6565817 21.3412947,19.7803757 L20.5530656,20.5602195 L19.7816073,21.3400632 C18.0458261,24.2833443 19.3791073,29.5410003 22.9848363,35.0250625 C24.5696738,32.6456678 26.3901089,30.4319288 28.418586,28.4173545 C30.4310441,26.3890293 32.6450619,24.5711747 35.0262941,22.9919902 C40.5271272,19.3694903 45.801554,18.0445946 48.7448351,19.8139174 C49.0502773,19.9964869 49.3319346,20.2161796 49.5833768,20.4679799 C49.8353817,20.7213755 50.0576364,21.0027107 50.2458246,21.3065215 C54.3934123,25.5100562 58.1254657,30.1042167 61.3900429,35.0250625 C70.1611883,21.7090215 72.7606674,9.03027206 66.932803,3.16048066 Z M47.0677519,35.0250625 C45.4885674,37.4062948 43.6707127,39.6203125 41.6423875,41.6327706 C39.625904,43.6624955 37.4092539,45.4830142 35.0262941,47.0665203 C29.525461,50.6806348 24.2594196,52.0139159 21.3161385,50.2613639 C20.6841492,49.8864873 20.156484,49.358822 19.7816073,48.7268328 C15.6459003,44.5254043 11.9225132,39.937158 8.66254528,35.0250625 C-0.100214741,48.3411036 -2.70807921,61.0701655 3.16171219,66.9315715 C9.03150359,72.7929775 21.7437947,70.1599568 35.0262941,61.3888113 C39.9375398,58.1245354 44.5256462,54.3984539 48.7280643,50.2613639 L49.4995226,49.4982911 L50.2625955,48.7268328 C52.0151475,45.7835516 50.6902517,40.5175102 47.0677519,35.0250625 Z" id="形状-4" fill="url(#linearGradient-4)"></path>
                                <path d="M19.7899927,48.7268328 C15.6513704,44.5257856 11.925165,39.9375267 8.66254528,35.0250625 C11.920128,30.1163955 15.6437348,25.5334948 19.7816073,21.3400632 C18.0458261,24.2833443 19.3791073,29.5410003 22.9848363,35.0250625 C19.3707219,40.5175102 18.0374407,45.7835516 19.7899927,48.7268328 Z" id="路径" fill="url(#linearGradient-5)"></path>
                                <path d="M50.2625955,48.7268328 C52.0151475,45.7835516 50.6902517,40.5175102 47.0677519,35.033448 C50.6902517,29.5326149 52.0151475,24.258188 50.2542101,21.3149069 C54.398455,25.5161774 58.127677,30.1075012 61.3900429,35.0250625 C58.125767,39.9363083 54.3996855,44.5244146 50.2625955,48.7268328 Z" id="路径" fill="url(#linearGradient-6)"></path>
                            </g>
                            <rect id="矩形备份" x="0" y="0" width="110" height="110"></rect>
                        </g>
                    </g>
                </g>
            </g>
        </g>
    </g>
</svg>