<?xml version="1.0" encoding="UTF-8"?>
<svg width="640px" height="400px" viewBox="0 0 640 400" version="1.1" xmlns="http://www.w3.org/2000/svg" xmlns:xlink="http://www.w3.org/1999/xlink">
    <title>编组 71</title>
    <defs>
        <polygon id="path-1" points="0 0 640 0 640 400 0 400"></polygon>
        <polygon id="path-3" points="0 0 640 0 640 400 0 400"></polygon>
        <linearGradient x1="50%" y1="0%" x2="50%" y2="100%" id="linearGradient-5">
            <stop stop-color="#B6F3D8" offset="0%"></stop>
            <stop stop-color="#7FE4B0" offset="100%"></stop>
        </linearGradient>
    </defs>
    <g id="首页✅" stroke="none" stroke-width="1" fill="none" fill-rule="evenodd">
        <g id="手机版首页" transform="translate(0.000000, -9569.000000)">
            <g id="编组-95" transform="translate(0.000000, 8995.000000)">
                <g id="编组-71" transform="translate(0.000000, 574.000000)">
                    <g id="网格" opacity="0.319149926">
                        <mask id="mask-2" fill="white">
                            <use xlink:href="#path-1"></use>
                        </mask>
                        <g id="bg"></g>
                        <g id="编组-60" mask="url(#mask-2)" fill="#FFFFFF" fill-rule="nonzero" stroke="#C4CBD7">
                            <g id="编组-47" transform="translate(0.000000, 89.141198)">
                                <line x1="1.13664666e-13" y1="0.108802248" x2="639.999522" y2="0.891197752" id="直线"></line>
                                <line x1="1.13664666e-13" y1="80.8911978" x2="639.999522" y2="81.6735933" id="直线备份"></line>
                                <line x1="1.13664666e-13" y1="161.673593" x2="639.999522" y2="162.455989" id="直线备份-2"></line>
                                <line x1="1.13664666e-13" y1="242.455989" x2="639.999522" y2="243.238384" id="直线备份-3"></line>
                            </g>
                            <g id="编组-59" transform="translate(80.000000, 0.000000)">
                                <line x1="0.5" y1="0.660066007" x2="1" y2="400" id="直线-2"></line>
                                <line x1="81" y1="0.660066007" x2="81.5" y2="400" id="直线-2备份"></line>
                                <line x1="161.5" y1="0.660066007" x2="162" y2="400" id="直线-2备份-2"></line>
                                <line x1="242" y1="0.660066007" x2="242.5" y2="400" id="直线-2备份-3"></line>
                                <line x1="322.5" y1="0.660066007" x2="323" y2="400" id="直线-2备份-4"></line>
                                <line x1="403" y1="0.660066007" x2="403.5" y2="400" id="直线-2备份-5"></line>
                                <line x1="483.5" y1="0.660066007" x2="484" y2="400" id="直线-2备份-6"></line>
                            </g>
                        </g>
                    </g>
                    <g id="编组-61">
                        <mask id="mask-4" fill="white">
                            <use xlink:href="#path-3"></use>
                        </mask>
                        <g id="蒙版"></g>
                        <g mask="url(#mask-4)">
                            <g transform="translate(24.000000, -105.000000)">
                                <path d="M87,0 C135.048773,0 174,38.9512268 174,87 C174,135.048773 135.048773,174 87,174 C38.9512268,174 0,135.048773 0,87 C0,38.9512268 38.9512268,0 87,0 Z M87.5,30 C55.7436269,30 30,55.7436269 30,87.5 C30,119.256373 55.7436269,145 87.5,145 C119.256373,145 145,119.256373 145,87.5 C145,55.7436269 119.256373,30 87.5,30 Z" id="形状结合" fill="#FFEFB3"></path>
                                <path d="M540,314 C588.048946,314 627,352.951054 627,401 C627,449.048946 588.048946,488 540,488" id="Fill-1" fill="url(#linearGradient-5)" transform="translate(583.500000, 401.000000) rotate(242.000000) translate(-583.500000, -401.000000) "></path>
                            </g>
                        </g>
                    </g>
                </g>
            </g>
        </g>
    </g>
</svg>