<?xml version="1.0" encoding="UTF-8"?>
<svg width="143px" height="152px" viewBox="0 0 143 152" version="1.1" xmlns="http://www.w3.org/2000/svg" xmlns:xlink="http://www.w3.org/1999/xlink">
    <title>形状结合</title>
    <defs>
        <linearGradient x1="-1.11022302e-14%" y1="50%" x2="100%" y2="50%" id="linearGradient-1">
            <stop stop-color="#FFFFFF" offset="0%"></stop>
            <stop stop-color="#F3F5F9" offset="100%"></stop>
        </linearGradient>
    </defs>
    <g id="首页✅" stroke="none" stroke-width="1" fill="none" fill-rule="evenodd">
        <g id="7个产品首页备份" transform="translate(-647.000000, -1106.000000)" fill="url(#linearGradient-1)" fill-rule="nonzero">
            <g id="编组-7" transform="translate(108.000000, 840.000000)">
                <g id="编组-3" transform="translate(416.000000, 266.000000)">
                    <path d="M188.01868,5 C189.909056,5 191.738361,5.66941382 193.182242,6.88954799 L267.639816,69.8090055 C271.014525,72.6607623 271.438462,77.7083105 268.586706,81.0830199 C268.298093,81.4245579 267.981354,81.7412971 267.639816,82.0299096 L193.182242,144.949367 C189.807533,147.801124 184.759985,147.377187 181.908228,144.002477 C180.688094,142.558596 180.01868,140.729291 180.01868,138.838915 L180.018,117.651 L120,117.651768 C119.447715,117.651768 119,117.204053 119,116.651768 L119,33.8440713 C119,33.2917865 119.447715,32.8440713 120,32.8440713 L180.018,32.844 L180.01868,13 C180.01868,8.581722 183.600402,5 188.01868,5 Z" id="形状结合" transform="translate(194.738213, 75.919544) rotate(-90.000000) translate(-194.738213, -75.919544) "></path>
                </g>
            </g>
        </g>
    </g>
</svg>