<?xml version="1.0" encoding="UTF-8"?>
<svg width="160px" height="160px" viewBox="0 0 160 160" version="1.1" xmlns="http://www.w3.org/2000/svg" xmlns:xlink="http://www.w3.org/1999/xlink">
    <title>编组 43</title>
    <defs>
        <linearGradient x1="50%" y1="0%" x2="50%" y2="100%" id="linearGradient-1">
            <stop stop-color="#00E9AC" offset="0%"></stop>
            <stop stop-color="#00CF74" offset="100%"></stop>
        </linearGradient>
        <linearGradient x1="50%" y1="0%" x2="50%" y2="100%" id="linearGradient-2">
            <stop stop-color="#00C26C" offset="0%"></stop>
            <stop stop-color="#008F3A" offset="100%"></stop>
        </linearGradient>
        <linearGradient x1="50%" y1="0%" x2="50%" y2="100%" id="linearGradient-3">
            <stop stop-color="#00DB8B" offset="0%"></stop>
            <stop stop-color="#00B453" offset="100%"></stop>
        </linearGradient>
        <linearGradient x1="7.89071259%" y1="55.8749844%" x2="107.021383%" y2="42.6496411%" id="linearGradient-4">
            <stop stop-color="#7FE4B0" offset="0%"></stop>
            <stop stop-color="#AEF1D2" offset="100%"></stop>
            <stop stop-color="#B6F3D8" offset="100%"></stop>
        </linearGradient>
    </defs>
    <g id="首页✅" stroke="none" stroke-width="1" fill="none" fill-rule="evenodd">
        <g id="手机版首页" transform="translate(-408.000000, -2176.000000)">
            <g id="编组-43" transform="translate(408.000000, 2176.000000)">
                <g id="Icon/Product+bg/Bare-Metal-Cloud-Center备份">
                    <g id="编组-14">
                        <rect id="矩形备份-15" x="0" y="0" width="160" height="160"></rect>
                        <path d="M80,10.9677419 C118.481776,10.9677419 149.677419,42.0050317 149.677419,80.2914688 C149.677419,118.577906 118.481776,149.615196 80,149.615196 C41.5182239,149.615196 10.3225806,118.577906 10.3225806,80.2914688 C10.3225806,42.0050317 41.5182239,10.9677419 80,10.9677419 Z M81.0610775,39.1195092 C58.4017575,39.1195092 40.0327493,57.237724 40.0327493,79.5876746 C40.0327493,101.937625 58.4017575,120.05584 81.0610775,120.05584 C103.720397,120.05584 122.089406,101.937625 122.089406,79.5876746 C122.089406,57.237724 103.720397,39.1195092 81.0610775,39.1195092 Z" id="形状结合备份-2" fill="#E0F9EC"></path>
                    </g>
                    <g id="编组-8" transform="translate(12.500000, 13.333333)">
                        <g id="编组" transform="translate(18.055556, 18.055556)">
                            <path d="M0.550556313,41.325271 C-2.05659818,58.5152043 4.71623132,75.7886414 18.3124616,86.6252678 C31.9086918,97.4618941 50.2575875,100.211268 66.4328739,93.8355657 C82.6081602,87.4598634 94.146306,72.9301182 96.6919336,55.7309658 C100.617473,29.2086472 82.3263643,4.5162054 55.8111945,0.543207986 C29.2960247,-3.42978943 4.57097431,14.8171689 0.550556313,41.325271 Z" id="路径" fill="url(#linearGradient-1)"></path>
                            <path d="M49.2039566,0.0187288913 C44.5264088,-0.113506999 39.8554081,0.455093273 35.3461176,1.70564172 C16.0710527,7.33386703 1.31941026,24.8948628 0.0214522636,47.1512289 C-0.0884886138,50.867203 0.224409701,54.5836298 0.954116695,58.2288823 C2.88162319,67.0987788 7.50608432,75.5177954 13.3896424,82.327637 C20.6550318,90.0494999 30.2983341,95.1129944 40.7788879,96.709152 C42.735036,97.0047843 44.7079466,97.176151 46.6857626,97.2222222 C46.8722955,97.1678057 47.0666006,97.1133891 47.2531335,97.043425 C58.8334852,83.684225 65.4134538,66.7157033 65.8675611,49.0402603 C66.1994429,31.2559585 60.3048839,13.9151538 49.2039566,0.0187288913 Z" id="路径-2" fill="url(#linearGradient-2)"></path>
                            <path d="M48.221861,0 C36.03125,0 26.1861743,21.7777778 26.2244152,48.6111111 C26.2633301,75.4444444 36.1701304,97.2222222 48.3607414,97.2222222 C60.5513523,97.2222222 70.396428,75.4444444 70.3581871,48.6111111 C70.3192723,21.7777778 60.3816096,0 48.221861,0 Z" id="路径-3" fill="url(#linearGradient-3)"></path>
                            <path d="M31.4472716,41.2067697 L66.4145705,41.2067697 C75.3043637,41.2067697 82.5109649,48.4133709 82.5109649,57.3031641 C82.5109649,66.1929572 75.3043637,73.3995585 66.4145705,73.3995585 L31.4472716,73.3995585 C22.5574784,73.3995585 15.3508772,66.1929572 15.3508772,57.3031641 C15.3508772,48.4133709 22.5574784,41.2067697 31.4472716,41.2067697 Z" id="矩形" fill="url(#linearGradient-4)"></path>
                            <path d="M35.3167933,30.5551007 C31.2069868,36.8256775 31.8493498,45.1043975 36.8765058,50.6565449 C41.9036619,56.2086922 50.0330397,57.6177552 56.6153342,54.0778711 C63.1976287,50.537987 66.5535084,42.9522814 64.7636985,35.6591255 C62.9738887,28.3659697 56.4950211,23.2260564 49.0324509,23.1788079 C43.5179621,23.1540901 38.3619284,25.9269472 35.3167933,30.5551007 Z" id="路径-5" fill="#E0F9EC"></path>
                        </g>
                        <rect id="矩形备份-7" x="0" y="0" width="133.333333" height="133.333333"></rect>
                    </g>
                </g>
                <rect id="矩形" x="0" y="0" width="160" height="160"></rect>
            </g>
        </g>
    </g>
</svg>