<?xml version="1.0" encoding="UTF-8"?>
<svg width="110px" height="110px" viewBox="0 0 110 110" version="1.1" xmlns="http://www.w3.org/2000/svg" xmlns:xlink="http://www.w3.org/1999/xlink">
    <title>CLOUDNETWORKING</title>
    <defs>
        <linearGradient x1="50%" y1="0%" x2="50%" y2="100%" id="linearGradient-1">
            <stop stop-color="#00E9AC" offset="0%"></stop>
            <stop stop-color="#00CF74" offset="100%"></stop>
        </linearGradient>
        <linearGradient x1="50%" y1="0%" x2="50%" y2="100%" id="linearGradient-2">
            <stop stop-color="#00C26C" offset="0%"></stop>
            <stop stop-color="#008F3A" offset="100%"></stop>
        </linearGradient>
        <linearGradient x1="50%" y1="0%" x2="50%" y2="100%" id="linearGradient-3">
            <stop stop-color="#00DB8B" offset="0%"></stop>
            <stop stop-color="#00B453" offset="100%"></stop>
        </linearGradient>
        <linearGradient x1="7.89071259%" y1="55.8749844%" x2="107.021383%" y2="42.6496411%" id="linearGradient-4">
            <stop stop-color="#7FE4B0" offset="0%"></stop>
            <stop stop-color="#AEF1D2" offset="100%"></stop>
            <stop stop-color="#B6F3D8" offset="100%"></stop>
        </linearGradient>
    </defs>
    <g id="产品页" stroke="none" stroke-width="1" fill="none" fill-rule="evenodd">
        <g id="Edge-Data-Center-Services" transform="translate(-1373.000000, -6893.000000)">
            <g id="complete-solution" transform="translate(0.000000, 6635.000000)">
                <g transform="translate(348.000000, 246.000000)" id="CloudN">
                    <g transform="translate(936.000000, 0.000000)">
                        <g id="CLOUDNETWORKING" transform="translate(89.000000, 12.000000)">
                            <g id="编组" transform="translate(14.895833, 14.895833)">
                                <path d="M0.454208958,34.0933485 C-1.69669349,48.2750435 3.89089084,62.5256292 15.1077808,71.4658459 C26.3246707,80.4060627 41.4625097,82.6742961 54.8071209,77.4143417 C68.1517321,72.1543873 77.6707024,60.1673475 79.7708452,45.9780468 C83.0094151,24.097134 67.9192505,3.72586946 46.0442355,0.448146588 C24.1692204,-2.82957628 3.7710538,12.2241643 0.454208958,34.0933485 Z" id="路径" fill="url(#linearGradient-1)"></path>
                                <path d="M40.5932642,0.0154513353 C36.7342872,-0.0936432741 32.8807116,0.37545195 29.160547,1.40715442 C13.2586185,6.0504403 1.08851347,20.5382618 0.0176981175,38.8997638 C-0.0730031064,41.9654425 0.185138003,45.0314946 0.787146273,48.0388279 C2.37733913,55.3564925 6.19251957,62.3021812 11.046455,67.9203006 C17.0404013,74.2908374 24.9961256,78.4682204 33.6425825,79.7850504 C35.2564047,80.028947 36.8840559,80.1703246 38.5157542,80.2083333 C38.6696438,80.1634397 38.8299455,80.118546 38.9838351,80.0608256 C48.5376253,69.0394856 53.9660994,55.0404552 54.3407379,40.4582148 C54.6145404,25.7861658 49.7515292,11.4800019 40.5932642,0.0154513353 Z" id="路径-2" fill="url(#linearGradient-2)"></path>
                                <path d="M39.7830353,0 C29.7257813,0 21.6035938,17.9666667 21.6351425,40.1041667 C21.6672473,62.2416667 29.8403576,80.2083333 39.8976116,80.2083333 C49.9548657,80.2083333 58.0770531,62.2416667 58.0455044,40.1041667 C58.0133996,17.9666667 49.814828,0 39.7830353,0 Z" id="路径-3" fill="url(#linearGradient-3)"></path>
                                <path d="M25.9439991,33.995585 L54.7920207,33.995585 C62.1261,33.995585 68.0715461,39.941031 68.0715461,47.2751104 C68.0715461,54.6091897 62.1261,60.5546358 54.7920207,60.5546358 L25.9439991,60.5546358 C18.6099197,60.5546358 12.6644737,54.6091897 12.6644737,47.2751104 C12.6644737,39.941031 18.6099197,33.995585 25.9439991,33.995585 Z" id="矩形" fill="url(#linearGradient-4)"></path>
                                <path d="M29.1363545,25.2079581 C25.7457641,30.3811839 26.2757136,37.211128 30.4231173,41.7916495 C34.570521,46.3721711 41.2772577,47.5346481 46.7076507,44.6142437 C52.1380437,41.6938392 54.9066444,35.4356321 53.4300513,29.4187786 C51.9534582,23.401925 46.6083924,19.1614966 40.451772,19.1225166 C35.9023187,19.1021243 31.6485909,21.3897314 29.1363545,25.2079581 Z" id="路径-5" fill="#E0F9EC"></path>
                            </g>
                            <rect id="矩形备份-7" x="0" y="0" width="110" height="110"></rect>
                        </g>
                    </g>
                </g>
            </g>
        </g>
    </g>
</svg>